<?xml version="1.0" encoding="UTF-8" ?>
<!DOCTYPE svg PUBLIC "-//W3C//DTD SVG 1.1//EN" "http://www.w3.org/Graphics/SVG/1.1/DTD/svg11.dtd">
<svg width="697pt" height="119pt" viewBox="0 0 697 119" version="1.1" xmlns="http://www.w3.org/2000/svg">
<path d=" M 244.60 67.76 C 258.78 45.35 272.95 22.93 287.15 0.54 C 282.62 17.35 278.03 34.15 273.47 50.96 C 280.24 51.28 287.02 51.61 293.81 51.92 C 280.47 74.09 267.19 96.30 253.85 118.47 C 258.26 101.43 262.74 84.41 267.17 67.37 C 259.65 67.51 252.12 67.67 244.60 67.76 Z" />
<path d=" M 484.50 20.50 C 490.08 20.50 495.66 20.50 501.25 20.50 C 501.25 46.50 501.25 72.50 501.25 98.50 C 493.37 98.51 485.49 98.50 477.62 98.50 C 470.31 79.12 463.32 59.62 455.80 40.32 C 456.62 48.53 457.74 56.74 457.76 65.01 C 457.73 76.17 457.77 87.34 457.74 98.50 C 452.25 98.50 446.75 98.50 441.26 98.50 C 441.24 72.50 441.24 46.50 441.26 20.50 C 448.92 20.50 456.59 20.50 464.25 20.50 C 471.76 40.21 479.32 59.90 486.77 79.64 C 483.50 60.09 484.73 40.22 484.50 20.50 Z" />
<path d=" M 556.50 20.50 C 562.75 20.50 569.00 20.50 575.25 20.50 C 575.26 37.33 575.23 54.17 575.26 71.00 C 575.39 77.88 573.86 85.09 569.39 90.51 C 564.22 96.81 555.98 99.94 547.98 100.26 C 539.14 100.77 529.43 99.52 522.59 93.39 C 516.86 88.29 514.34 80.53 514.29 73.02 C 514.20 55.51 514.26 38.00 514.26 20.50 C 520.50 20.50 526.75 20.50 533.00 20.50 C 533.01 38.04 532.98 55.59 533.01 73.13 C 533.09 77.83 534.47 83.54 539.30 85.48 C 543.80 87.19 549.76 86.98 553.28 83.35 C 555.73 80.55 556.45 76.70 556.50 73.08 C 556.50 55.55 556.49 38.03 556.50 20.50 Z" />
<path d=" M 0.50 20.50 C 20.35 20.50 40.20 20.50 60.05 20.50 C 59.42 25.33 58.82 30.17 58.18 35.00 C 51.79 35.00 45.39 35.00 39.00 35.00 C 39.00 56.17 39.00 77.33 39.00 98.50 C 32.83 98.50 26.67 98.50 20.50 98.50 C 20.49 77.33 20.50 56.17 20.50 35.00 C 13.83 34.99 7.17 35.01 0.50 35.00 C 0.50 30.17 0.50 25.33 0.50 20.50 Z" />
<path d=" M 67.26 98.50 C 67.24 72.50 67.24 46.50 67.26 20.50 C 73.42 20.50 79.58 20.50 85.74 20.50 C 85.76 46.50 85.75 72.50 85.75 98.50 C 79.59 98.51 73.42 98.49 67.26 98.50 Z" />
<path d=" M 100.00 20.50 C 107.66 20.50 115.33 20.50 122.99 20.50 C 130.49 40.04 137.84 59.64 145.42 79.15 C 142.27 59.75 143.47 40.06 143.26 20.50 C 148.84 20.50 154.42 20.50 160.00 20.50 C 160.00 46.50 160.00 72.50 160.00 98.50 C 152.10 98.49 144.20 98.53 136.30 98.48 C 129.08 78.85 121.75 59.27 114.42 39.68 C 117.38 59.16 116.33 78.88 116.50 98.50 C 111.00 98.50 105.50 98.50 100.00 98.50 C 100.00 72.50 100.00 46.50 100.00 20.50 Z" />
<path d=" M 166.05 20.55 C 172.83 20.45 179.61 20.52 186.39 20.50 C 191.14 31.84 195.92 43.17 200.65 54.51 C 205.35 43.15 210.17 31.85 214.90 20.50 C 221.47 20.50 228.04 20.50 234.61 20.50 C 226.40 36.83 217.92 53.03 209.66 69.33 C 209.28 79.03 209.62 88.78 209.50 98.50 C 203.33 98.50 197.17 98.50 191.00 98.50 C 190.99 89.29 191.01 80.07 191.00 70.86 C 191.02 69.80 190.77 68.82 190.23 67.91 C 182.16 52.13 173.99 36.39 166.05 20.55 Z" />
<path d=" M 322.56 20.50 C 330.37 20.50 338.18 20.50 346.00 20.50 C 349.85 37.80 353.69 55.11 357.47 72.43 C 361.35 55.18 364.64 37.79 368.33 20.50 C 376.20 20.57 384.08 20.36 391.94 20.61 C 393.64 46.60 395.85 72.56 397.65 98.54 C 391.53 98.43 385.40 98.58 379.28 98.45 C 378.92 78.31 376.73 58.17 377.77 38.02 C 373.77 55.41 370.03 72.86 366.06 90.25 C 360.18 90.23 354.30 90.29 348.42 90.22 C 344.52 72.67 339.79 55.30 336.28 37.67 C 337.17 57.96 335.81 78.23 334.96 98.50 C 328.87 98.49 322.78 98.53 316.70 98.48 C 318.76 72.49 320.67 46.49 322.56 20.50 Z" />
<path d=" M 408.50 20.50 C 414.67 20.50 420.83 20.50 427.00 20.50 C 427.00 46.50 427.00 72.50 427.00 98.50 C 420.83 98.50 414.67 98.50 408.50 98.50 C 408.50 72.50 408.50 46.50 408.50 20.50 Z" />
<path d=" M 582.00 20.50 C 601.92 20.50 621.84 20.51 641.76 20.49 C 641.14 25.33 640.55 30.17 639.91 35.00 C 633.53 35.00 627.14 34.99 620.75 35.00 C 620.74 56.17 620.77 77.34 620.74 98.50 C 614.58 98.50 608.42 98.50 602.26 98.50 C 602.23 77.34 602.26 56.17 602.25 35.00 C 595.50 34.99 588.75 35.00 582.00 35.00 C 582.00 30.17 581.99 25.33 582.00 20.50 Z" />
<path d=" M 648.75 20.50 C 664.76 20.49 680.77 20.50 696.78 20.50 C 696.06 24.99 695.45 29.49 694.81 33.99 C 685.70 34.02 676.60 33.98 667.50 34.01 C 667.50 40.09 667.49 46.17 667.50 52.25 C 675.42 52.26 683.34 52.24 691.26 52.26 C 691.24 56.67 691.25 61.08 691.25 65.50 C 683.33 65.50 675.42 65.49 667.50 65.50 C 667.49 72.00 667.50 78.50 667.50 85.00 C 677.25 85.00 687.00 85.00 696.75 85.00 C 696.75 89.50 696.75 94.00 696.75 98.50 C 680.75 98.50 664.75 98.50 648.75 98.50 C 648.75 72.50 648.75 46.50 648.75 20.50 Z" />
</svg>
