<svg viewBox="0 0 1611 484" xmlns="http://www.w3.org/2000/svg"><path d="M1359.35 1.57c9.47-4.47 21.87 2.08 23.52 12.4 2.03 8.51-3.52 17.72-11.92 20.02-9.56 3.22-20.87-4.03-21.86-14.08-1.21-7.57 3.14-15.47 10.26-18.34zM667.08 4.66c16.63-1.23 33.59-.25 49.64 4.53 23.1 6.98 44.45 20.94 58.38 40.86-5.89 4.35-11.66 8.85-17.55 13.2-9.11-11.96-20.77-22.14-34.49-28.46-17.67-8.33-37.81-10.77-57.1-8.25-18.37 2.48-35.9 10.52-49.9 22.65-14.47 12.42-24.76 29.65-28.59 48.35-4.57 21.95-2.36 45.73 8.29 65.66 8.44 15.53 21.38 28.62 36.86 37.17 18.02 9.93 39.23 13.01 59.55 11.09 17.68-1.64 34.89-8.35 48.84-19.37 6.09-4.69 11.47-10.21 16.56-15.94 5.85 4.4 11.67 8.84 17.54 13.22-11.61 14.97-27.17 26.77-44.68 34-20.54 8.71-43.32 10.71-65.38 8.81-18.84-1.72-37.54-7.38-53.38-17.88-15.17-9.91-27.65-23.79-36.19-39.74-9.31-17.27-13.52-37-13.5-56.55-.18-17.49 3.27-35.19 11.16-50.88 7.91-16.08 20.19-29.75 34.41-40.55 17.14-12.95 38.2-20.21 59.53-21.92zm147.93-.41h20.74c0 30.29 0 60.57-.01 90.85 9.92-13.23 23.21-24.38 39.12-29.51 16.94-5.32 36.4-4.57 51.88 4.66 12.78 7.44 22.05 20.4 25.47 34.74 4.26 17.35 3.5 35.34 3.54 53.05v69.45c-6.92.02-13.83.01-20.75.01-.01-21.17 0-42.34 0-63.51-.05-13.82.29-27.66-.82-41.45-.75-10.08-4.05-20.25-10.57-28.09-7.28-8.5-18.53-12.75-29.58-12.72-22.6-1.14-43.85 14.41-52.45 34.83-4.88 11.47-4.99 24.15-5.54 36.39-.51 24.84-.22 49.7-.29 74.55H815c0-74.42-.01-148.83.01-223.25zm480 0h20.98c.02 74.42.01 148.83.01 223.25h-21c0-74.42-.01-148.83.01-223.25zm-236.94 59.81c17.4-3.5 36.1-1.98 52.21 5.75 11.7 5.91 21.39 15.19 29.22 25.6-.01-9.72 0-19.44 0-29.15 7-.01 13.99-.01 21-.01V227.5h-21c-.01-9.09 0-18.18 0-27.27-9.93 11.93-22.65 21.95-37.55 26.76-24.06 8.05-52.25 5.14-72.98-9.96-11.31-8.29-20.99-19.01-27.41-31.52-8.23-16.05-10.55-34.74-8.02-52.49 4.69-33.23 31.55-62.27 64.53-68.96m9.21 19.24c-10.66 1.56-20.77 6.16-29.17 12.87-13.18 10.34-21.86 26.08-23.85 42.69-4.11 30.43 16.14 62.72 46.04 70.84 28.11 8.23 61.28-5.75 73.93-32.39 7.1-14.71 8.27-31.94 4.37-47.7-3.73-15.05-13.77-28.03-26.42-36.75-13-8.86-29.46-11.89-44.9-9.56zm172.15-13.82c6.89-4.77 15.26-7.44 23.66-7.18 6.29.23 12.28 2.58 17.78 5.51-3.7 5.83-7.36 11.69-11.08 17.51-4.33-1.65-8.93-3.35-13.64-2.62-12.14 1.43-21.87 10.93-26.87 21.63-6.11 11.92-7.64 25.44-8.2 38.63-1.18 28.16-.31 56.36-.58 84.54H1199c0-53.75-.01-107.5.01-161.25 7.16.01 14.32-.01 21.49.01-.02 7.72.02 15.44-.02 23.17 5.23-7.56 11.33-14.71 18.95-19.95zm224.9-2.18c16.79-5.96 35.34-6.45 52.62-2.41 17.08 4.01 32.34 14.33 43.09 28.1 12.82 15.38 18.24 35.75 18.25 55.5-48.46.02-96.92 0-145.37.01-.1 19.06 7.93 38.49 23.11 50.39 13.16 11.01 31.24 15.09 48.03 12.3 15.03-2.5 30.16-9.16 39.78-21.37 4.18-5.04 7.81-10.52 11.27-16.08 5.96 3.09 11.97 6.11 17.9 9.28-8.04 15.71-19.69 30.14-35.58 38.38-17.27 9.66-37.85 11.41-57.18 8.92-15.54-2.05-30.62-8.62-41.91-19.6-13-12.94-22.53-29.67-25.61-47.86-3.18-18.84-.69-38.84 8.25-55.85 9.12-17.79 24.36-32.86 43.35-39.71m-5.16 25.9c-12.75 8.52-19.95 22.96-24.13 37.3h120.31c-1.56-5.44-3.23-10.89-5.79-15.95-5.63-12.12-16.29-21.47-28.48-26.67-19.73-8.83-44.16-7.39-61.91 5.32zm-103.42-26.94c6.91-.01 13.83-.01 20.75-.01V227.5h-20.75V66.26z" fill="#231f20"/><path fill="#107099" d="M0 5.75h475.78c-.01 60.31.04 120.62-.03 180.92-1.3-.85-2.61-1.68-3.79-2.69-19.55-18.77-38.84-37.82-58.28-56.71-18.91-18.72-37.77-37.49-57.14-55.73-25.09 22.58-49.61 45.78-74.55 68.53-24.65 22.68-49.75 44.86-74.35 67.58-20.51 19.51-41.78 38.18-62.63 57.32-29.45 26.92-58.4 54.38-88.03 81.1C37.97 363.32 19.12 380.74 0 397.86V5.75z"/><path fill="#fff" d="M281.99 140.07c24.94-22.75 49.46-45.95 74.55-68.53 19.37 18.24 38.23 37.01 57.14 55.73 19.44 18.89 38.73 37.94 58.28 56.71 1.18 1.01 2.49 1.84 3.79 2.69-.01 37.61.02 75.23-.01 112.84-1-7.94-6.81-13.82-13.05-18.21-14.77-13.86-29.25-28.05-43.77-42.18-10.57-10.13-20.41-20.98-31.26-30.82-9.29-8.7-17.87-18.17-27.62-26.38-1.87-1.77-4.83-1.24-6.42.61-15.29 14.39-30.9 28.44-46.14 42.88-37.67 35.69-75.53 71.19-112.98 107.11-27.27 26.06-54.85 51.78-82.16 77.79-22.09 19.55-42.11 41.31-64.28 60.78-3.45 3.12-6.75 6.42-9.83 9.91H0v-83.14c19.12-17.12 37.97-34.54 56.98-51.79 29.63-26.72 58.58-54.18 88.03-81.1 20.85-19.14 42.12-37.81 62.63-57.32 24.6-22.72 49.7-44.9 74.35-67.58z"/><path d="M353.62 182.53c1.59-1.85 4.55-2.38 6.42-.61 9.75 8.21 18.33 17.68 27.62 26.38 10.85 9.84 20.69 20.69 31.26 30.82 14.52 14.13 29 28.32 43.77 42.18 6.24 4.39 12.05 10.27 13.05 18.21.03 60.49 0 120.99.01 181.49H38.23c3.08-3.49 6.38-6.79 9.83-9.91 22.17-19.47 42.19-41.23 64.28-60.78 27.31-26.01 54.89-51.73 82.16-77.79 37.45-35.92 75.31-71.42 112.98-107.11 15.24-14.44 30.85-28.49 46.14-42.88zm295.64 76.58c33.99-8.23 71.33-3.78 101.63 14.02 11.52 6.6 22.04 14.83 31.73 23.88-5.58 5.55-11.43 10.83-17.08 16.3-13.98-13.22-30.25-24.43-48.64-30.49-14.08-4.94-29.2-6.92-44.06-5.39-18.74 1.89-36.7 9.47-51.78 20.65-18.03 13.58-30.53 34.22-34.31 56.47-5.44 30.38 7.35 62.29 29.99 82.7 28.04 25.22 70.55 32.77 105.62 19.06 16.98-6.87 31.62-19.66 40.19-35.9 4.05-7.76 6.61-16.25 7.9-24.9-23.15-.02-46.3-.01-69.44-.01-.02-7.17-.01-14.33-.01-21.5 31.43 0 62.86-.01 94.28.01-.17 18.46-3.32 37.17-11.38 53.91-8.82 18.34-23.61 33.75-41.64 43.21-17.2 9.09-36.87 12.85-56.22 12.62-21.59.29-43.59-3.8-62.77-13.99-12.91-6.76-24.3-16.25-33.67-27.38-11.05-12.74-19.38-27.92-23.53-44.31-5.24-20.74-4.65-42.93 1.74-63.35 5.67-17.95 15.97-34.41 29.62-47.37 14.43-13.7 32.54-23.43 51.83-28.24zm471.74-3.86h20.99c.03 42.29-.03 84.58.03 126.88 23.23-20.14 46.45-40.29 69.68-60.41 1.79-1.47 3.35-3.3 5.44-4.37 10.04-.26 20.11 0 30.17-.11-29.43 25.69-59.05 51.18-88.55 76.8 31.25 28.16 62.56 56.24 93.8 84.42-9.96.09-19.92.02-29.88.03-26.86-24.23-53.82-48.34-80.69-72.56.02 24.19.01 48.38.01 72.57h-21V255.25zm-227.98 59.2c17.73-2.67 36.45-.9 52.75 6.86 13.62 6.5 24.85 17.34 33.09 29.88 9.28 14.27 12.77 31.49 13.18 48.31-48.54 0-97.07-.01-145.61.01.25 14.44 4.4 29.09 13.46 40.52 8.99 11.46 22.16 19.73 36.6 22.09 16.67 2.77 34.23-1.15 48.49-10.11 10.46-6.51 17.29-17.13 23.75-27.31 5.93 3.1 11.86 6.2 17.83 9.22-5.13 10.19-11.71 19.77-20.12 27.54-12.65 11.66-29.27 18.74-46.36 20.33-17.27 1.55-35.33-.1-51-7.98-14.92-7.32-26.25-20.41-34.08-34.83-9.03-16.68-11.85-36.38-8.89-55.05 2.95-19.08 12.64-36.97 26.73-50.13 10.97-10.42 25.25-17.12 40.18-19.35m-18.81 28.77c-13.51 8.45-21.28 23.36-25.55 38.27 40.08 0 80.16.04 120.24-.02-2.32-8.86-5.68-17.64-11.23-25.02-19.1-24.54-57.68-30.65-83.46-13.23zm202.87-29.09c9.16-2.26 18.77.11 26.82 4.71-3.75 5.8-7.34 11.71-11.12 17.48-4.64-1.84-9.66-3.52-14.69-2.47-11.95 1.93-21.28 11.48-26.12 22.16-8.25 16.72-7.71 35.8-8.45 53.95-.06 22.85 0 45.69-.02 68.54H1022V317.25c7.17.01 14.33-.01 21.5.01-.01 7.71.01 15.42-.01 23.13 8.18-11.75 18.99-23.26 33.59-26.26zm234.79 6.84c17.64-8.26 38.05-9.47 56.97-5.56 18.09 3.76 34.38 14.51 45.56 29.12 12.61 15.3 17.69 35.45 17.9 54.96-48.53.03-97.07-.01-145.6.02.34 16.97 6.19 34.31 18.64 46.24 12.53 12.8 31.04 18.97 48.77 16.92 16.66-1.85 33.69-8.85 44.15-22.43 3.97-4.88 7.42-10.16 10.78-15.47 6 2.99 11.91 6.14 17.87 9.21-7.71 15.31-18.97 29.32-34.17 37.68-17.98 10.47-39.69 12.35-59.96 9.46-15.25-2.29-30.03-8.94-40.99-19.94-12.33-12.34-21.39-28.17-24.76-45.36-4.09-20.67-.9-42.88 9.71-61.16 8.1-14.31 20.22-26.57 35.13-33.69m.7 23.6c-12.41 8.6-19.53 22.77-23.59 36.95 40.1-.04 80.2-.01 120.3-.02-1.96-7.12-4.41-14.18-8.23-20.54-6.2-10.36-16.2-18.09-27.3-22.61-19.67-8.37-43.77-6.53-61.18 6.22zm197.28-17.72c14.27-10.72 32.79-15.34 50.45-12.97 16.31 2.01 31.68 11.54 40.09 25.75 9.21 14.95 9.85 33.05 10.61 50.08v88.79h-20.99c-.02-22.17-.01-44.35-.01-66.53-.05-14.02.41-28.11-1.39-42.05-1.35-9.7-4.91-19.5-11.99-26.5-5.1-5.18-11.94-8.39-19.01-9.79-11.96-2.25-24.79-.61-35.41 5.47-12.31 7.21-22.49 18.55-26.95 32.23-3.68 11.11-3.66 22.98-4.17 34.55-.19 24.21-.02 48.42-.09 72.62h-20.98c-.01-53.75-.01-107.5-.01-161.25h21c-.01 9.46.01 18.92-.02 28.39 5.4-7.07 11.69-13.52 18.87-18.79z" fill="#00af4c"/></svg>