<svg xmlns="http://www.w3.org/2000/svg" viewBox="0 0 1054 240"><path d="M0 .8C29.7.7 59.3.8 89 .7c13.4-.1 26.8 1.2 39.8 4.6 25.5 6.5 49.3 21.9 63 44.7 14.2 23.2 18.2 51.4 15.7 78.2-17.8-11.8-35.7-23.6-53.5-35.4-1.8-14.5-8.7-28.5-19.8-38-11.3-9.9-26.4-14.3-41.2-14.5-13.6-.1-27.1 0-40.7 0V69C34.9 81.3 17.4 93.2 0 105.5V.8zm871.4 178.6c7.1-3.1 16.2 2.7 15.9 10.6.4 7-6.6 12.9-13.4 11.6-5.9-.8-10.5-6.8-9.6-12.8.3-4.1 3.3-7.8 7.1-9.4z" fill="#80c41c"/><path d="M0 132c34.6-24.2 69.3-48.3 104-72.4 16.6 11.1 33.3 22.1 50 33.2 17.8 11.8 35.7 23.6 53.5 35.4 4.1 2.8 8.3 5.6 12.6 8.4-1.5 14.1-5.3 27.9-11 40.9-35.1-23-70.1-46.1-105.1-69.3-17.2 12-34.5 24-51.7 36-.1 18.8 0 37.5 0 56.3H92c13.4-.2 27.2-3.4 38.2-11.4 12.9-9.1 21.2-23.9 23.5-39.5 15.1 9.8 30 19.7 45 29.6-10.9 24.3-32.7 42.8-57.5 52.1-15.2 5.9-31.5 8-47.7 8.7H0V132zm753.6-39.4c9-10.4 22.8-16 36.4-15.6 15-.5 30.5 6.2 39.2 18.6-2.4 1.9-4.8 3.7-7.2 5.6-5.9-7.6-14.4-13.2-23.9-14.8-13-2.6-27.2 1.6-36.4 11.3-13.1 13.3-13.6 36.8-1.1 50.7 13 15.3 38.1 17.3 54 5.3 2.7-2 5-4.4 7.4-6.8 2.4 1.8 4.8 3.6 7.2 5.5-7.5 9.6-19 15.9-31.1 17.3-14 1.9-29.4-.9-40.2-10.5-18.8-16.2-21.2-48.2-4.3-66.6zM290.8 79c13.4.1 27-.5 40.4 1.5 10.6 1.6 20.7 7.5 26.7 16.4 7 9.9 9 22.5 7.7 34.3-1.3 12-7.6 23.9-18 30.6-7.5 4.8-16.8 5.9-25.6 6.2h-31.2V79m9 9v71.5c8.7 0 17.5.1 26.3-.7 4.8-.5 9.6-1.3 13.9-3.7 8.5-4.2 14.3-12.8 15.9-22.1 2-10.7.2-22.7-6.6-31.5-4.9-6.5-12.5-10.5-20.5-11.9-9.6-1.6-19.4-1.4-29-1.6zm62.6-9h10.7l22.5 36.6c7.4-12.2 14.9-24.4 22.2-36.6h10.6c-8.9 14.9-17.9 29.7-26.9 44.5-.7 1.1-1.4 2.1-1.2 3.4-.1 13.7 0 27.4 0 41.1h-9c-.1-14 .1-28-.2-42-9.2-15.8-19.2-31.3-28.7-47zm75.6-.2c2.6-.2 3.9 2.2 5.4 3.8 18.5 21.2 37 42.4 55.6 63.6V79h9.3c0 29.7 0 59.5-.1 89.2-1.5 0-2.9-.4-3.7-1.7-19-21.8-38-43.5-57-65.3V168H438V78.8zM559 81c.4-1.6 1.6-2.3 3.3-2.1l41.4 89.1h-10c-4.5-9.7-9.1-19.3-13.5-29-12.9 0-25.8-.1-38.6.1-4.5 9.7-9.1 19.3-13.7 28.9h-10L559 81m2 17.1c-5.1 10.7-10.1 21.3-15.1 31.9h30c-4.9-10.7-10-21.2-14.9-31.9zm65-19.3c1.3 0 2.1.5 2.5 1.6 11.8 23.8 23.3 47.6 35.1 71.3 9.4-19 18.7-38 28.2-57 2.5-5.1 4.8-10.4 7.7-15.4.4-.2 1.1-.4 1.5-.6 4.2 29.8 8.5 59.5 12.6 89.3h-8.8c-2.8-21-5.8-42-8.6-63.1-10.4 21.1-20.9 42.1-31.4 63.1h-2.7c-10.5-21.1-20.8-42.3-31.2-63.5-2.9 21.2-5.7 42.4-8.6 63.5h-8.9c4.3-29.7 8.4-59.5 12.6-89.2zm97.5.2h9v89h-9V79zm143.8 0h17v89h-17V79zm35.7 0c14 .3 28.3-1 42.1 2.3 8.1 1.9 15.1 7.2 19.8 14 7.8 10.7 9.9 24.7 8.2 37.6-1.5 10.7-6.6 21.3-15.5 27.8-4.6 3.6-10.3 5.8-16.2 6.4-12.7 1.5-25.6.7-38.4.9V79m16.8 16.5v56c7.9-.1 16.1.7 23.7-2.2 8-3.3 12-12.2 12.8-20.4 1-9.9-1.2-21.3-9.4-27.7-7.8-5.8-17.9-5.7-27.1-5.7zM974.9 79h19.5c6.7 10.3 13.4 20.6 20.2 30.9 6.7-10.3 13.5-20.6 20.2-30.9h19.2v.4c-9.5 14.8-19.2 29.4-28.8 44.1 9.6 14.7 19.3 29.4 28.8 44.1v.4h-19.2c-6.7-10.3-13.5-20.5-20.2-30.8-6.6 10.3-13.5 20.4-20 30.7-6.6.2-13.1.1-19.7.1 9.7-14.8 19.4-29.6 29.1-44.3-9.7-15-19.4-29.8-29.1-44.7z"/></svg>