<svg xmlns="http://www.w3.org/2000/svg" viewBox="0 0 640 143"><g fill="#5f7461"><path d="M350.1 13.62c3.22-.01 6.44-.01 9.66-.03 5.18 16.3 10.46 32.57 15.39 48.94 5.54-16.28 10.73-32.67 16.28-48.95 3.51.04 7.02.03 10.53.03 5.4 16.3 11.2 32.47 16.38 48.84 5.39-16.21 10.3-32.57 15.49-48.85 3.08.01 6.16.01 9.25.03-6.49 20.06-13.56 39.93-20.2 59.94-3.32.03-6.63.03-9.95.02-5.61-16.54-10.99-33.16-16.72-49.66-5.21 16.63-11.01 33.06-16.38 49.64-3.35.03-6.69.02-10.03.04-6.53-20.01-13.31-39.93-19.7-59.99zm141.9-.23c2.86-.02 5.72-.03 8.59-.03-.01 20.08 0 40.16-.01 60.24-2.83 0-5.66-.01-8.48 0 .14-10.88-.54-21.75-.02-32.62.02-9.2-.4-18.39-.08-27.59zm-481.14.23c1.98 0 3.95-.01 5.93 0 9.61 18.41 19.46 36.7 29.12 55.08 9.56-18.43 19.45-36.69 29.08-55.08 1.92-.01 3.85-.01 5.78-.02.1 20 .02 40.01.04 60.01l-4.02-.03c-.07-18.12.12-36.24-.1-54.36-9.35 18.23-19.24 36.19-28.72 54.35-1.38.01-2.75.03-4.13.05-9.62-18.18-19.32-36.32-28.95-54.5-.02 18.17.02 36.34-.02 54.5-1.34-.02-2.68-.04-4.02-.07.01-19.97-.01-39.95.01-59.93zm198.92.01l3.86-.04c.05 8.57.07 17.14-.01 25.71 3.28-5.85 9.61-9.82 16.36-9.87 6.15-.33 13.13.24 17.69 4.9 3.37 3.25 4.16 8.14 4.09 12.61 0 8.89-.01 17.78-.01 26.67-1.34-.01-2.67-.02-3.99-.02-.02-8.87.02-17.73-.01-26.59-.01-4.15-.93-8.85-4.53-11.4-5.47-3.56-12.36-3.35-18.5-1.99-5.72 2.11-10.62 7.09-10.91 13.44-.37 8.85-.03 17.71-.15 26.56-1.3-.01-2.6-.02-3.9-.02.01-19.99-.01-39.98.01-59.96zm98.9-.01c.98-.01 2.95-.02 3.93-.02.09 20 .02 40 .04 60.01-1.34-.01-2.66-.01-3.99-.02.01-19.99-.02-39.98.02-59.97zm11.1 0l3.93-.03c.1 20.01.02 40.01.04 60.01-1.34 0-2.66 0-3.98-.01 0-19.99-.02-39.98.01-59.97zm185.93-.25h8.52c.05 11.7-.1 23.39.08 35.09 7.16-6.55 14.81-12.55 22.18-18.87 4.26.03 8.52-.01 12.79.07-6.13 5.14-12.46 10.03-18.72 15.01-.85.53-1.91 1.76-.93 2.7 6.98 8.79 14.19 17.4 21.2 26.18-3.88.06-7.75.06-11.62.03-5.7-7.28-11.57-14.43-17.26-21.72-2.62 1.91-5.17 3.91-7.71 5.91-.01 5.28-.01 10.55-.01 15.82-2.84 0-5.68.01-8.52.01-.01-20.08 0-40.16 0-60.23zM167.76 34.81c3.69-4.38 9.8-5.59 15.27-5.42 5.83-.16 12.36.55 16.72 4.86 2.57 2.35 3.24 5.9 4 9.13-.98.03-2.94.08-3.92.1-.83-2.93-1.62-6.26-4.39-8.01-3.95-2.5-8.89-2.88-13.45-2.83-3.74.4-7.94.88-10.68 3.74-2.56 2.45-2.67 6.99-.19 9.52 2.72 2.37 6.48 2.59 9.9 2.98 6.33 1.23 13.15.93 19.01 3.93 6.69 3.36 6.85 14 .97 18.24-5.69 4.34-13.23 3.74-19.98 3.67-5.41.03-11.2-1.79-14.65-6.16-1.88-2.3-2.4-5.31-3.11-8.11.99-.05 2.98-.14 3.98-.18.77 2.77 1.36 5.94 3.81 7.78 4.25 3.23 9.89 3.58 15.03 3.49 4.1.07 8.44-.36 11.94-2.68 3.93-2.74 4.46-9.47.47-12.38-2.45-1.87-5.63-1.97-8.55-2.39-6.63-1.41-13.92-.7-19.99-4.13-5.22-2.99-6.01-10.74-2.19-15.15zm95.71-2.4c5.75-3.89 13.04-2.96 19.6-2.89 5.79.31 13.12 2.8 14.03 9.42.78 10.54-.4 21.17.65 31.7 2.08.06 4.16.06 6.24-.01-.13 1.26-.25 2.53-.37 3.79-2.3.02-4.6.18-6.88-.1-3.23-1.69-2.56-5.91-3.13-8.91-4.11 7.8-13.69 9.87-21.78 9.76-4.47-.5-9.36-1.06-12.78-4.28-4.91-4.91-4.74-14.62 1.51-18.37 6.08-3.93 13.54-2.53 20.3-3.74 3.88-.17 7.83-.16 11.57-1.38 1.67-4.3 1.48-10.49-3.36-12.59-6.79-2.78-14.78-3.03-21.63-.3-3.87 1.46-5.04 5.75-6.09 9.32-.98-.04-2.96-.14-3.94-.18.92-4.19 2.27-8.74 6.06-11.24m1.08 22.07c-4.51 1.44-6.08 7.11-4.24 11.16 1.45 3.51 5.32 5.12 8.83 5.7 7.41.85 15.79-.38 21.26-5.87 3.91-4.1 2.97-10.11 3.1-15.26-9.26 3.79-19.61.91-28.95 4.27zm188.22-25.89c7.66-.2 16-1.36 22.95 2.68 3.18 1.66 5.26 5.03 5.38 8.61.45 9.2-.49 18.46.53 27.63 2.03.14 4.08.21 6.13.23.03 1.89.06 3.78.1 5.66-.7.22-2.11.66-2.81.87-2.1.03-4.2.07-6.29.14-2.66-1.06-4.56-3.14-5.45-5.85-6.84 6.85-17.56 7.71-26.59 5.8-3.35-1.43-6.88-3.28-8.46-6.77-2.4-5.37-1.4-12.93 4.23-15.88 7.46-3.9 16.16-3.59 24.31-4.63 1.82-.41 3.88-.59 5.27-2.01 2.37-3 .63-8-3.02-9.04-5.83-2.08-12.58-1.95-18.18.75-2.67 1.23-3.38 4.27-4.31 6.77-2.58-.04-5.15-.05-7.72-.09.69-3.39 1.44-7.03 3.98-9.58 2.53-2.97 6.39-4.08 9.95-5.29m-1.68 26.77c-3.06.66-6.04 3.37-5.52 6.74.19 3.4 3.67 4.93 6.24 6.36 6.67.53 14.26-.48 18.89-5.83 2.9-3.01 2.36-7.48 2.53-11.31-7.07 2.86-14.87 2.12-22.14 4.04z"/><path d="M556.22 32.3c6.16-4.12 13.85-4.5 20.99-3.71 6.35 1.1 12.4 4.88 15.48 10.65 2.64 4.57 3.21 9.94 3.2 15.12-13.57.06-27.14-.1-40.7.08.99 4.4 3.12 8.83 7.26 11.06 7.52 4.34 19.07 3.05 23.46-5.17 2.99 0 5.97.01 8.96.08-2.02 3.92-4.41 7.85-8.19 10.3-3.45 2.52-7.66 3.5-11.7 4.63-7.17.21-14.89-.99-20.58-5.67-11.36-9.15-10.6-29.48 1.82-37.37m4.68 6.53c-2.88 2.09-4.31 5.45-5.47 8.69 10.54.08 21.09.11 31.64-.02-.92-2.46-1.68-5.09-3.46-7.09-5.52-6.45-16.22-6.68-22.71-1.58zm39.91-9.22c2.87 0 5.73-.01 8.6-.01.02 2.64 0 5.28 0 7.93 2.05-2.97 4.35-6 7.68-7.62 3.73-2.18 8.19-1.51 12.31-1.47.03 3.05.03 6.1.06 9.15-4.75-.21-10.09-1.29-14.3 1.53-3.74 2.32-5.62 6.76-5.7 11.03-.11 7.82.01 15.63-.03 23.45-2.88-.01-5.75-.01-8.62 0 0-14.66-.01-29.33 0-43.99zM91.46 33.43c3.62-3.31 8.79-4.06 13.52-4.02 5.69-.07 11.74-.23 16.82 2.77 3.1 1.75 4.77 5.31 4.78 8.79.12 8.02-.03 16.05.02 24.08-.04 2.17.51 4.28 1.07 6.36 1.94-.32 3.88-.69 5.82-1.03-.27 1.37-.55 2.73-.85 4.09-2.61-.35-5.98.93-7.99-1.27-1.81-2.24-1.25-5.33-1.47-8-3.52 5.96-10.28 9.51-17.14 9.51-5.42.06-11.43.69-16.11-2.62-6.72-4.26-6.9-15.99.32-19.84 5.95-3.47 13.03-2.43 19.57-3.35 3.13-.42 6.33-.17 9.44-.71 3.93-.99 3.84-5.96 2.91-9.08-.78-2.83-3.62-4.12-5.95-5.44-6.66-1.04-13.95-2.06-20.18 1.21-3.37 1.68-4.43 5.57-5.4 8.89-1.33-.02-2.66-.05-4-.08.97-3.64 1.84-7.67 4.82-10.26m22.62 18.94c-6.66.16-13.51-.06-19.93 1.97-4.35 1.28-6.43 6.51-4.8 10.61 1.14 4.17 5.69 5.96 9.59 6.44 7.4.74 15.89-.58 21.09-6.39 3.59-4.06 2.47-9.82 2.71-14.78-2.83.95-5.74 1.58-8.66 2.15zm36.1-21.32c3.73-1.91 8-1.67 12.06-1.56l.12 4.03c-3.92-.04-8.11-.64-11.75 1.17-5.89 2.53-9.47 8.94-9.4 15.23-.08 7.88.01 15.77-.02 23.65-1.34.02-2.69.03-4.02.05 0-14.36-.05-28.72.02-43.08 1.33.01 2.66.03 3.98.04.02 3.35.05 6.71-.01 10.06 1.9-4.03 4.8-7.81 9.02-9.59zm-97.85 70.32c4.12.01 8.25.01 12.37.03-.09.96-.19 1.92-.29 2.88-2.76-.01-5.52-.02-8.28-.02 0 1.13.01 2.27.01 3.4 2.85 0 5.71 0 8.56.06l-.96 2.64c-2.48.42-5.02.26-7.53.31-.04 2.28-.09 4.57-.13 6.86-1.25.01-2.49.01-3.74.02-.03-5.39-.02-10.79-.01-16.18zm21.64.02l3.77-.03c.03 3.85-.38 7.76.39 11.57 1.16 3.58 7.37 3.33 8.12-.4.57-3.69.24-7.45.27-11.16.95 0 2.87.01 3.83.01-.13 4.41.64 9.01-.78 13.27-1.78 3.48-6.27 3.29-9.6 3.09-2.74.02-5.5-1.99-5.8-4.81-.52-3.83-.23-7.7-.2-11.54zm48.29-.04c1.28.02 2.55.04 3.83.05.04 4.42.04 8.84.05 13.25 2.88-.01 5.75-.01 8.63-.02.04.73.11 2.18.14 2.91-4.21-.01-8.43-.01-12.64 0-.03-5.39-.03-10.79-.01-16.19zm38.23 1.07c4.54-3.37 12.35-1.83 13.58 4.28-2.64-.02-4.74-1.41-6.41-3.31-1.84.27-3.66.62-5.47 1.06.36.69 1.07 2.08 1.42 2.77 2.85.41 5.81.55 8.5 1.67 3.4 1.71 2.48 7.24-.99 8.29-2.88.87-6.02.81-8.96.29-2.42-.44-3.32-3.04-4.57-4.82 1.3-.12 2.6-.24 3.9-.35.83 1.11 1.66 2.21 2.49 3.32 2.53-.21 5.64.11 6.76-2.77-3-2.64-7.65-1.42-10.8-3.78-1.98-1.78-1.51-5.14.55-6.65zm23.37-1.03c4.38-.01 8.77-.02 13.15.02-.17.97-.34 1.94-.51 2.9-2.92-.03-5.83-.06-8.74-.08 0 1.13 0 2.26-.01 3.39l8.75-.03.04 2.88c-2.96.02-5.91.03-8.86.05.02 1.38.05 2.75.08 4.13 3.15-.01 6.3-.01 9.45-.01.02.72.05 2.16.06 2.89-4.47.01-8.94.01-13.41-.02-.01-5.37-.01-10.74 0-16.12zm23.64 0c4.14.02 8.31-.27 12.44.2 1.43.15 2.69 1.12 3.33 2.4.93 2.12-.74 4-1.55 5.83.9 2.51 1.54 5.1 2.16 7.69l-4.1.04c-.4-2.04-.82-4.06-1.28-6.08-2.4-.09-4.81-.16-7.21-.21v6.22l-3.78.09c-.02-5.39-.02-10.79-.01-16.18m3.78 2.8c.01 1.49.01 2.98.02 4.47 2.38-.08 4.78 0 7.14-.42.86-1.05 1.06-2.45 1.52-3.69-2.89-.19-5.78-.29-8.68-.36zm20.48-2.78c1.45-.01 2.92-.01 4.38 0a580.3 580.3 0 0 0 5.64 12.47c1.83-4.19 3.7-8.36 5.57-12.53 1.3.02 2.61.06 3.92.09-2.48 5.34-5.03 10.64-7.46 16-1.46.06-2.91.13-4.36.2-2.62-5.38-5.15-10.81-7.69-16.23zm28.71-.05c1.24.01 2.49.02 3.74.02.02 5.33.02 10.67.04 16-1.26.08-2.52.16-3.77.25-.03-5.43-.02-10.85-.01-16.27zm16.07 2.08c4.54-4.5 13.53-3.46 15.79 2.94-1.19.06-2.39.1-3.58.15-1.73-1.28-3.32-3.52-5.77-2.94-5.66.58-6.23 9.89-.92 11.44 2.68 1.31 4.82-1.14 6.75-2.61 1.23.02 2.46.05 3.69.09-1.35 1.82-2.31 4.48-4.8 4.93-2.9.52-6 .65-8.83-.24-5.08-2.26-5.78-9.83-2.33-13.76zm25.1-2.06c4.37 0 8.74 0 13.11.02-.11.96-.21 1.92-.31 2.88l-8.95-.03c0 1.12.01 2.24.02 3.36 2.91 0 5.82-.01 8.74-.01 0 .72.01 2.17.02 2.89-2.92 0-5.84-.01-8.75-.02l-.03 4.18c3.09-.01 6.18-.01 9.28-.02.03.73.11 2.18.15 2.9h-13.28c-.01-5.38-.01-10.77 0-16.15zm38.63 0c4.19.04 8.41-.29 12.59.24 1.71.19 3 1.67 3.46 3.26.03 1.79-1.06 3.34-1.7 4.95.77 2.53 1.41 5.08 2.05 7.65-1.39.03-2.77.07-4.15.11a935.7 935.7 0 0 0-1.15-6.06c-2.41-.12-4.81-.21-7.21-.3-.09 2.11-.18 4.23-.26 6.34l-3.62-.03c-.03-5.39-.02-10.77-.01-16.16m3.81 2.77c0 1.5.02 3.01.03 4.52 2.37-.09 4.77 0 7.11-.45.86-.98 1.25-2.13 1.18-3.47-2.74-.53-5.55-.5-8.32-.6zm22.45-2.78c4.37.01 8.73.01 13.09.02-.08.96-.17 1.92-.25 2.88-3 0-5.99-.01-8.98-.01 0 1.12 0 2.23.01 3.35 2.93 0 5.86-.01 8.79 0 .01.71.03 2.15.03 2.87h-8.8l-.03 4.17c3.13-.01 6.25-.01 9.38-.02.04.73.11 2.18.14 2.91-4.46-.01-8.91-.01-13.37 0-.02-5.39-.01-10.78-.01-16.17zm29.84.01h4.84c2.72 5.38 5.53 10.71 8.15 16.15-1.51-.02-3.01-.03-4.51-.04-.61-1.26-1.21-2.52-1.81-3.78h-8.99c-.61 1.29-1.21 2.58-1.8 3.87-1.01-.02-3.03-.08-4.03-.11 2.69-5.37 5.45-10.72 8.15-16.09m-.74 9.89c2.01.01 4.04.02 6.06.02-1.01-2.26-2.05-4.52-3.12-6.76-1 2.24-1.99 4.48-2.94 6.74zm22.58-9.91c1.21 0 2.44.01 3.66.01.02 4.43.01 8.85.08 13.28 2.85-.01 5.71-.03 8.57-.06.11.98.23 1.95.35 2.93-4.22.01-8.44.01-12.65.02-.03-5.39-.03-10.78-.01-16.18zm58.86 4.65c1.93-4.44 7.14-6.55 11.63-4.71 2.61.56 3.45 3.35 4.54 5.41-2.49-.21-4.61-1.36-6.35-3.07-1.49-.07-2.96-.13-4.44-.19-.08 1.24-.14 2.49-.2 3.73 3.18.48 6.61.45 9.52 1.98 2.88 2.07 1.79 6.97-1.48 8.04-2.9.85-6.05.79-9.01.27-2.42-.43-3.27-3.06-4.52-4.83 1.27-.12 2.55-.23 3.83-.34.82 1.09 1.64 2.19 2.48 3.29 2.99.1 5.99-.38 6.99-3.65-4.68-1.06-10.78-.7-12.99-5.93zm24.32-4.62c5.41-.01 10.82-.01 16.23 0-.09.97-.18 1.93-.26 2.9-2-.01-3.99-.03-5.97-.04-.01 4.42-.01 8.85-.02 13.28-.93 0-2.8 0-3.74.01-.02-4.43-.02-8.86-.01-13.29-2 .01-4 .03-5.99.04-.09-.97-.17-1.94-.24-2.9zm29.8.01c1.6-.02 3.2-.03 4.81-.04 2.76 5.35 5.55 10.69 8.18 16.11l-4.37.09c-.72-1.3-1.43-2.6-2.14-3.89-2.94.03-5.87.04-8.8.05-.6 1.28-1.19 2.56-1.78 3.84-1.01-.03-3.05-.07-4.07-.09 2.7-5.37 5.47-10.7 8.17-16.07m-1.04 9.88h6.13c-.96-2.27-1.92-4.54-2.86-6.81-1.11 2.26-2.2 4.53-3.27 6.81zm19.27-9.8c5.5-.14 11.01-.13 16.51-.06-.14.96-.27 1.92-.39 2.88l-5.91-.06c0 4.44 0 8.88-.02 13.32-.95-.02-2.86-.04-3.81-.05 0-4.43 0-8.86-.01-13.29-1.77.04-3.55.08-5.31.13-.27-.72-.79-2.16-1.06-2.87zm25.17-.11c4.36.01 8.71.01 13.07.02-.1.96-.19 1.93-.28 2.89l-9-.03c0 1.12 0 2.24.01 3.36h8.84c0 .72.01 2.16.01 2.87-2.95 0-5.89 0-8.83-.01-.02 1.39-.03 2.78-.03 4.17 3.14.01 6.27.01 9.41.02.02.72.05 2.16.07 2.88-4.42-.01-8.84-.01-13.26 0-.02-5.39-.02-10.78-.01-16.17zm-473.98.01h3.83c.01 4.42.01 8.85.01 13.28 2.93-.02 5.86-.02 8.79-.03.04.72.11 2.16.14 2.89-4.25.01-8.51.01-12.76.01-.02-5.38-.01-10.77-.01-16.15zm354.19 0c4.55-.01 9.1-.06 13.65.16-1.21 4.41-6.44 2.26-9.76 2.71-.04.83-.13 2.51-.17 3.34 2.95.01 5.9.01 8.86.01.01.73.04 2.17.05 2.89-2.95 0-5.89-.01-8.83-.01l-.04 4.16h9.64c.01.72.04 2.16.05 2.88-4.48.01-8.97.01-13.45.01-.01-5.38-.01-10.76 0-16.15z"/></g><g fill="#d6d955"><path d="M10.6 88.63c206.36 0 412.72.02 619.08-.01.14 13.69.02 27.39.07 41.08-206.4-.02-412.79-.02-619.18 0 .02-13.69-.05-27.38.03-41.07m41.73 12.74c-.01 5.39-.02 10.79.01 16.18 1.25-.01 2.49-.01 3.74-.02.04-2.29.09-4.58.13-6.86 2.51-.05 5.05.11 7.53-.31l.96-2.64c-2.85-.06-5.71-.06-8.56-.06 0-1.13-.01-2.27-.01-3.4 2.76 0 5.52.01 8.28.02.1-.96.2-1.92.29-2.88-4.12-.02-8.25-.02-12.37-.03m21.64.02c-.03 3.84-.32 7.71.2 11.54.3 2.82 3.06 4.83 5.8 4.81 3.33.2 7.82.39 9.6-3.09 1.42-4.26.65-8.86.78-13.27-.96 0-2.88-.01-3.83-.01-.03 3.71.3 7.47-.27 11.16-.75 3.73-6.96 3.98-8.12.4-.77-3.81-.36-7.72-.39-11.57l-3.77.03m48.29-.04c-.02 5.4-.02 10.8.01 16.19 4.21-.01 8.43-.01 12.64 0-.03-.73-.1-2.18-.14-2.91-2.88.01-5.75.01-8.63.02-.01-4.41-.01-8.83-.05-13.25-1.28-.01-2.55-.03-3.83-.05m38.23 1.07c-2.06 1.51-2.53 4.87-.55 6.65 3.15 2.36 7.8 1.14 10.8 3.78-1.12 2.88-4.23 2.56-6.76 2.77-.83-1.11-1.66-2.21-2.49-3.32-1.3.11-2.6.23-3.9.35 1.25 1.78 2.15 4.38 4.57 4.82 2.94.52 6.08.58 8.96-.29 3.47-1.05 4.39-6.58.99-8.29-2.69-1.12-5.65-1.26-8.5-1.67-.35-.69-1.06-2.08-1.42-2.77 1.81-.44 3.63-.79 5.47-1.06 1.67 1.9 3.77 3.29 6.41 3.31-1.23-6.11-9.04-7.65-13.58-4.28m23.37-1.03c-.01 5.38-.01 10.75 0 16.12 4.47.03 8.94.03 13.41.02-.01-.73-.04-2.17-.06-2.89-3.15 0-6.3 0-9.45.01-.03-1.38-.06-2.75-.08-4.13 2.95-.02 5.9-.03 8.86-.05l-.04-2.88-8.75.03c.01-1.13.01-2.26.01-3.39 2.91.02 5.82.05 8.74.08.17-.96.34-1.93.51-2.9-4.38-.04-8.77-.03-13.15-.02m23.64 0c-.01 5.39-.01 10.79.01 16.18l3.78-.09v-6.22c2.4.05 4.81.12 7.21.21.46 2.02.88 4.04 1.28 6.08l4.1-.04c-.62-2.59-1.26-5.18-2.16-7.69.81-1.83 2.48-3.71 1.55-5.83-.64-1.28-1.9-2.25-3.33-2.4-4.13-.47-8.3-.18-12.44-.2m24.26.02c2.54 5.42 5.07 10.85 7.69 16.23 1.45-.07 2.9-.14 4.36-.2 2.43-5.36 4.98-10.66 7.46-16-1.31-.03-2.62-.07-3.92-.09-1.87 4.17-3.74 8.34-5.57 12.53a580.3 580.3 0 0 1-5.64-12.47c-1.46-.01-2.93-.01-4.38 0m28.71-.05c-.01 5.42-.02 10.84.01 16.27 1.25-.09 2.51-.17 3.77-.25-.02-5.33-.02-10.67-.04-16-1.25 0-2.5-.01-3.74-.02m16.07 2.08c-3.45 3.93-2.75 11.5 2.33 13.76 2.83.89 5.93.76 8.83.24 2.49-.45 3.45-3.11 4.8-4.93-1.23-.04-2.46-.07-3.69-.09-1.93 1.47-4.07 3.92-6.75 2.61-5.31-1.55-4.74-10.86.92-11.44 2.45-.58 4.04 1.66 5.77 2.94 1.19-.05 2.39-.09 3.58-.15-2.26-6.4-11.25-7.44-15.79-2.94m25.1-2.06c-.01 5.38-.01 10.77 0 16.15h13.28c-.04-.72-.12-2.17-.15-2.9-3.1.01-6.19.01-9.28.02l.03-4.18c2.91.01 5.83.02 8.75.02-.01-.72-.02-2.17-.02-2.89-2.92 0-5.83.01-8.74.01-.01-1.12-.02-2.24-.02-3.36l8.95.03c.1-.96.2-1.92.31-2.88-4.37-.02-8.74-.02-13.11-.02m38.63 0c-.01 5.39-.02 10.77.01 16.16l3.62.03c.08-2.11.17-4.23.26-6.34 2.4.09 4.8.18 7.21.3.39 2.01.77 4.03 1.15 6.06 1.38-.04 2.76-.08 4.15-.11-.64-2.57-1.28-5.12-2.05-7.65.64-1.61 1.73-3.16 1.7-4.95-.46-1.59-1.75-3.07-3.46-3.26-4.18-.53-8.4-.2-12.59-.24m26.26-.01c0 5.39-.01 10.78.01 16.17 4.46-.01 8.91-.01 13.37 0-.03-.73-.1-2.18-.14-2.91-3.13.01-6.25.01-9.38.02l.03-4.17h8.8c0-.72-.02-2.16-.03-2.87-2.93-.01-5.86 0-8.79 0-.01-1.12-.01-2.23-.01-3.35 2.99 0 5.98.01 8.98.01.08-.96.17-1.92.25-2.88-4.36-.01-8.72-.01-13.09-.02m29.84.01c-2.7 5.37-5.46 10.72-8.15 16.09 1 .03 3.02.09 4.03.11.59-1.29 1.19-2.58 1.8-3.87h8.99c.6 1.26 1.2 2.52 1.81 3.78 1.5.01 3 .02 4.51.04-2.62-5.44-5.43-10.77-8.15-16.15h-4.84m21.84-.02c-.02 5.4-.02 10.79.01 16.18 4.21-.01 8.43-.01 12.65-.02-.12-.98-.24-1.95-.35-2.93-2.86.03-5.72.05-8.57.06-.07-4.43-.06-8.85-.08-13.28-1.22 0-2.45-.01-3.66-.01m58.86 4.65c2.21 5.23 8.31 4.87 12.99 5.93-1 3.27-4 3.75-6.99 3.65-.84-1.1-1.66-2.2-2.48-3.29-1.28.11-2.56.22-3.83.34 1.25 1.77 2.1 4.4 4.52 4.83 2.96.52 6.11.58 9.01-.27 3.27-1.07 4.36-5.97 1.48-8.04-2.91-1.53-6.34-1.5-9.52-1.98.06-1.24.12-2.49.2-3.73 1.48.06 2.95.12 4.44.19 1.74 1.71 3.86 2.86 6.35 3.07-1.09-2.06-1.93-4.85-4.54-5.41-4.49-1.84-9.7.27-11.63 4.71m24.32-4.62c.07.96.15 1.93.24 2.9 1.99-.01 3.99-.03 5.99-.04-.01 4.43-.01 8.86.01 13.29.94-.01 2.81-.01 3.74-.01.01-4.43.01-8.86.02-13.28 1.98.01 3.97.03 5.97.04.08-.97.17-1.93.26-2.9-5.41-.01-10.82-.01-16.23 0m29.8.01c-2.7 5.37-5.47 10.7-8.17 16.07 1.02.02 3.06.06 4.07.09.59-1.28 1.18-2.56 1.78-3.84 2.93-.01 5.86-.02 8.8-.05.71 1.29 1.42 2.59 2.14 3.89l4.37-.09c-2.63-5.42-5.42-10.76-8.18-16.11-1.61.01-3.21.02-4.81.04m18.23.08c.27.71.79 2.15 1.06 2.87 1.76-.05 3.54-.09 5.31-.13.01 4.43.01 8.86.01 13.29.95.01 2.86.03 3.81.05.02-4.44.02-8.88.02-13.32l5.91.06c.12-.96.25-1.92.39-2.88-5.5-.07-11.01-.08-16.51.06m25.17-.11c-.01 5.39-.01 10.78.01 16.17 4.42-.01 8.84-.01 13.26 0-.02-.72-.05-2.16-.07-2.88-3.14-.01-6.27-.01-9.41-.02 0-1.39.01-2.78.03-4.17 2.94.01 5.88.01 8.83.01 0-.71-.01-2.15-.01-2.87h-8.84c-.01-1.12-.01-2.24-.01-3.36l9 .03c.09-.96.18-1.93.28-2.89-4.36-.01-8.71-.01-13.07-.02m-473.98.01c0 5.38-.01 10.77.01 16.15 4.25 0 8.51 0 12.76-.01-.03-.73-.1-2.17-.14-2.89-2.93.01-5.86.01-8.79.03 0-4.43 0-8.86-.01-13.28h-3.83m354.19 0c-.01 5.39-.01 10.77 0 16.15 4.48 0 8.97 0 13.45-.01-.01-.72-.04-2.16-.05-2.88h-9.64l.04-4.16c2.94 0 5.88.01 8.83.01-.01-.72-.04-2.16-.05-2.89-2.96 0-5.91 0-8.86-.01.04-.83.13-2.51.17-3.34 3.32-.45 8.55 1.7 9.76-2.71-4.55-.22-9.1-.17-13.65-.16z"/><path d="M211.28 104.19c2.9.07 5.79.17 8.68.36-.46 1.24-.66 2.64-1.52 3.69-2.36.42-4.76.34-7.14.42-.01-1.49-.01-2.98-.02-4.47zm132.8-.04c2.77.1 5.58.07 8.32.6.07 1.34-.32 2.49-1.18 3.47-2.34.45-4.74.36-7.11.45-.01-1.51-.03-3.02-.03-4.52zm51.55 7.12c.95-2.26 1.94-4.5 2.94-6.74 1.07 2.24 2.11 4.5 3.12 6.76-2.02 0-4.05-.01-6.06-.02zm134.52.01c1.07-2.28 2.16-4.55 3.27-6.81.94 2.27 1.9 4.54 2.86 6.81h-6.13z"/></g></svg>