<svg xmlns="http://www.w3.org/2000/svg" viewBox="0 0 1114 234"><path fill="#017acb" d="M0 0h234c-.03 16.88.05 33.76-.04 50.65-19.94 26.88-39.22 54.26-59.04 81.23-19.58-27.23-38.96-54.62-58.39-81.96-.64.58-1.2 1.22-1.69 1.92-18.92 26.63-37.71 53.35-56.72 79.91-18.93-26.06-37.54-52.36-56.41-78.47-.43-.48-1.28-1.42-1.71-1.9V0z"/><path d="M114.84 51.84c.49-.7 1.05-1.34 1.69-1.92 19.43 27.34 38.81 54.73 58.39 81.96 19.82-26.97 39.1-54.35 59.04-81.23.08 12.02.03 24.04.03 36.06-19.16 26.28-38.26 52.6-57.39 78.9-.54.81-1.19 1.52-1.95 2.13-17.1-24.11-34.28-48.17-51.4-72.27-2.32-3.2-4.35-6.73-7.05-9.58-19.42 27.27-38.69 54.65-58.13 81.91C38.64 140.85 19.26 113.85 0 86.78v-35.4c.43.48 1.28 1.42 1.71 1.9 18.87 26.11 37.48 52.41 56.41 78.47 19.01-26.56 37.8-53.28 56.72-79.91zm219.32 14.51c3 .26 6.21-.41 9.09.31 6.88 8.96 13.59 18.05 20.58 26.92-.06-8.91.01-17.83-.04-26.74l.35-.47c3.13.01 6.27-.03 9.41.03.07 14.76-.06 29.53.06 44.3-2.71.55-5.66.12-8.45.21-7.22-9.27-14.17-18.77-21.47-27.97 0 9.32-.01 18.64.01 27.96-3.25.08-6.5.04-9.74.02.1-14.84-.3-29.78.2-44.57zm103.91-.28c2.93-.01 5.87-.03 8.81.01 6.4 14.94 12.75 29.89 19.1 44.85-3.48-.18-7.12.4-10.48-.28-1.19-3.19-2.59-6.31-3.77-9.5-6.27-.34-12.58-.07-18.86-.13-1.43 3.26-2.7 6.59-4.06 9.88-3.36.09-6.72.04-10.08.02 6.25-14.83 12.65-29.6 18.87-44.45l.47-.4m3.96 12.56c-1.99 4.48-3.78 9.06-5.62 13.61 3.88.01 7.76.03 11.64-.01-1.74-4.44-3.67-8.81-5.36-13.27l-.66-.33zm61.28-12.28c12.16.06 24.32 0 36.47.03.08 3 0 6 .05 9-4.52.15-9.04-.01-13.55.07-.08 11.82.02 23.65-.05 35.48-3.28-.04-6.57.15-9.83-.1.09-11.76-.03-23.52.07-35.27-4.52-.32-9.06-.01-13.58-.15-.04-2.88 0-5.77-.03-8.66l.45-.4zm135.95.04c3.49-.04 6.98 0 10.49-.04 3.12 9.71 6.03 19.49 8.97 29.25.15.04.43.12.57.16 3.17-9.86 6.4-19.7 9.73-29.5 2.81.02 5.64-.11 8.45.06 3.35 9.99 6.41 20.09 10.03 29.97 2.89-9.99 6.04-19.92 9.07-29.87 3.42-.11 6.86-.03 10.29-.04-4.98 14.91-10.1 29.77-15.1 44.67-2.83.45-5.81.13-8.69.15-3.2-9.35-6.54-18.66-9.61-28.05-.2.04-.61.11-.81.15-3.09 9.3-6.35 18.55-9.55 27.82-2.74.34-5.54 0-8.3.16l-.48-.43c-5.01-14.82-10.06-29.64-15.06-44.46zM764 66.08c3-.04 6.02-.04 9.03 0 6.42 14.92 12.78 29.88 19.1 44.85-3.42.02-6.84.02-10.25 0-1.45-3.25-2.7-6.59-4.06-9.88-6.27-.11-12.54-.04-18.8-.03-1.45 3.27-2.65 6.64-4.1 9.9-3.34.04-6.67.01-10 .02 6.3-14.98 12.68-29.92 19.08-44.86m4.16 12.35c-1.78 4.63-3.78 9.18-5.59 13.8 3.88.03 7.76.05 11.64-.01-1.76-4.6-3.87-9.07-5.48-13.73l-.57-.06zm69.23-12.04c3.14-.05 6.29-.01 9.44-.02l.38.45c-.05 11.71 0 23.43-.02 35.14 7.38.1 14.78 0 22.17.05.02 2.97.02 5.95 0 8.92-10.68-.04-21.36.13-32.02-.09.09-14.81-.02-29.63.05-44.45zm77.68-.02c3.19.01 6.39-.02 9.6.02.06 11.86-.02 23.73.04 35.6 7.38.04 14.77-.03 22.16.03.01 2.96 0 5.92.01 8.89-10.68.06-21.36.02-32.04.02-.08-14.68.01-29.37-.04-44.05l.27-.51zm77.26.02c11.16-.06 22.33.04 33.49-.05.25 2.91.06 5.85.1 8.77-7.93.05-15.86-.02-23.78.03-.03 2.99-.04 5.97 0 8.96 6.98.07 13.97-.01 20.96.04.06 2.9.02 5.81.01 8.72-7 .05-13.99-.03-20.97.04-.04 3.08-.02 6.16-.01 9.25 8.03.1 16.06-.01 24.1.05.04 2.9.02 5.82 0 8.73-11.31-.01-22.63.08-33.93-.05.04-14.83-.03-29.66.03-44.49zm82.01.01c3.03-.02 6.08-.12 9.13.05 6.92 8.99 13.68 18.12 20.67 27.06.12-9.04-.03-18.08.08-27.12 3.25-.05 6.51-.02 9.78.01v44.48c-2.89-.06-5.87.38-8.68-.18-7.04-9.33-14.14-18.62-21.24-27.9-.06 9.37.03 18.74-.05 28.12-3.25.01-6.5.1-9.73-.05.04-14.83-.03-29.65.04-44.47z" fill="#012c56"/><path d="M116.2 85.89c2.7 2.85 4.73 6.38 7.05 9.58-18.53 26.07-37.01 52.17-55.5 78.27-.9 1.14-1.52 2.57-2.75 3.42-2.52-2.95-4.5-6.33-6.93-9.36 19.44-27.26 38.71-54.64 58.13-81.91zm60.4 79.72c19.13-26.3 38.23-52.62 57.39-78.9.02 6.5.01 13 0 19.5-17.63 23.41-34.4 47.5-51.94 70.98-3-2.56-4.64-6.55-7.4-9.45.76-.61 1.41-1.32 1.95-2.13zm157.79-13.16c4.77.26 9.74-.71 14.37.76 5.75 2.26 5.26 11.66-.58 13.54 1.78 2.53 3.42 5.16 5.31 7.62-1.87.43-3.83.13-5.74.16-1.65-2.28-3.11-4.71-4.74-7-1.26.29-4.48-1.11-3.77 1.4.04 1.82-.06 3.63.06 5.45-1.58.44-3.29.09-4.91.17-.03-7.37-.03-14.73 0-22.1m4.87 4.5c-.03 2.03-.02 4.06-.01 6.09 1.88.36 3.9.11 5.83.05 2.75-.08 3.83-4.16 1.5-5.58-2.24-1.1-4.91-.55-7.32-.56zm37.97-4.52c5.55.16 11.25-.28 16.72.2.01 1.39-.01 2.78-.04 4.18-3.93.02-7.85-.03-11.78.02-.02 1.46-.02 2.93 0 4.41 3.46.18 7.03-.31 10.42.23l-.04 4.12c-3.46.1-6.92-.01-10.38.05-.02 1.51-.02 3.02.01 4.53 3.96.05 7.92-.02 11.89.03.04 1.35.05 2.7.03 4.05-5.35.76-11.28.09-16.85.31-.03-7.38-.07-14.76.02-22.13zm48.92-.11c1.5-.03 3-.04 4.51.01 3.12 7.42 6.44 14.76 9.36 22.26-1.62-.02-3.24-.02-4.85-.02-1.09-1.43-1.38-3.33-2.22-4.91-3.08-.07-6.15-.03-9.22-.02-.76 1.61-1.33 3.29-2.07 4.91-1.62-.16-3.51.43-4.96-.3 3.28-7.25 6.2-14.66 9.45-21.93m-.67 12.92c1.89.01 3.78.02 5.68 0-.88-2.3-1.92-4.54-2.71-6.87-1.26 2.16-1.98 4.59-2.97 6.87zm37.79-12.79c1.63.13 3.42-.37 4.95.23-.07 5.8-.03 11.61-.02 17.41 3.65.09 7.31-.01 10.97.04 0 1.41.02 2.81.05 4.22-5.23.52-10.65.07-15.95.2-.04-7.36-.04-14.74 0-22.1zm66.86-.03c5.53.04 11.06 0 16.6.02.04 1.45.02 2.9.01 4.36-3.93.05-7.86-.02-11.79.03-.03 1.46-.03 2.93.01 4.4 3.44.26 7.2-.42 10.46.33l-.04 4.02c-3.47.11-6.95-.01-10.42.06-.04 1.51-.04 3.02 0 4.53 3.98.04 7.97-.01 11.96.02-.09 1.46.28 3.02-.19 4.42-5.54-.1-11.09-.02-16.63-.04-.06-7.38-.1-14.77.03-22.15zm43.33 1.04c4.08-2.41 9.54-1.37 13.13 1.5-.84 1.24-1.69 2.48-2.55 3.7-2.24-1.72-8.23-4.06-8.56.34 2.07 2.55 6.02 1.99 8.68 3.76 4.4 2.04 3.93 9.14-.3 11.09-4.57 2.09-10.72 1-14.08-2.69.94-1.05 1.81-2.15 2.7-3.24 2.65 1.73 6.13 3.71 9.25 1.94.16-.47.46-1.41.62-1.88-1.89-2.67-5.89-2.07-8.5-3.71-4.34-1.77-4.25-8.57-.39-10.81zm36.16-.99c6.04-.11 12.09.04 18.14-.08.55 1.42.1 3.09.23 4.6-2.26.05-4.51-.06-6.75.06.04 5.78-.05 11.57.05 17.36-1.6.36-3.28.09-4.9.14-.05-5.85.01-11.7-.03-17.55-2.25-.02-4.49.01-6.72 0-.03-1.51-.03-3.02-.02-4.53zm46.97-.08c1.49-.15 3-.09 4.52-.06 3.33 7.32 6.32 14.83 9.55 22.22-1.73 0-3.45.05-5.17-.01-.78-1.62-1.24-3.38-2.13-4.94-3.06.07-6.11-.03-9.16.06-.69 1.59-1.29 3.22-1.96 4.82-1.68.19-3.38.05-5.06.08 3.1-7.4 6.28-14.78 9.41-22.17m1.88 6.63c-.74 2.1-1.72 4.12-2.43 6.24 1.88-.01 3.76-.01 5.65-.01-1.32-1.83-1.07-5.28-3.22-6.23zm31.31-6.36c6.03-.36 12.43-.41 18.45.02-.05 1.44-.06 2.87-.05 4.31-2.27.1-4.54-.15-6.78.12.08 5.81 0 11.61.05 17.42-1.64.06-3.27.05-4.89 0 .03-5.8-.04-11.61.04-17.41-2.25-.29-4.53-.02-6.77-.13-.02-1.45-.04-2.89-.05-4.33zm41.67-.21c5.56.17 11.37-.41 16.78.28-.05 1.36-.07 2.72-.06 4.08-3.81 0-7.62.03-11.43-.03-.7 1.17-.55 3.26-.06 4.51 3.34-.08 6.7-.04 10.06-.03.01 1.45.02 2.91-.01 4.36-3.44.01-6.87.01-10.3-.01.1 1.5-.5 3.28.26 4.61 3.86-.06 7.73-.03 11.6-.03.01 1.44.03 2.88.04 4.32-5.63.12-11.26.04-16.88.04-.03-7.37-.03-14.73 0-22.1zm-515.04 3.96c5.86-.11 11.72.02 17.59-.05v18.17c-5.86-.08-11.72.04-17.57-.06-.11-6.01-.07-12.04-.02-18.06zM0 156.94c5.79-.12 11.59-.08 17.39-.03.09 6.02.07 12.04.01 18.06-5.8.07-11.6.01-17.4.03v-18.06zm98.52.75c5.91-.75 12.11-.12 18.13-.3-.14 6.02.47 12.27-.3 18.16-5.92-.12-11.84.02-17.76-.08-.09-5.92.04-11.85-.07-17.78zm20.93-.06c5.97-.59 12.12-.12 18.15-.23-.12 6.03.37 12.18-.23 18.15-5.95-.12-11.91.04-17.86-.09-.07-5.94.05-11.89-.06-17.83zm96.93 19.62c5.87-.16 11.75-.01 17.62-.07 0 6.04.01 12.07-.01 18.11-5.73.05-11.46.01-17.18.03l-.42-.56c-.04-5.83-.02-11.67-.01-17.51zM0 178c5.72-.7 11.61-.16 17.39-.27-.05 6.02.33 12.12-.18 18.1-5.74-.02-11.47-.02-17.21-.02V178zm98.83.23c5.95.05 11.9-.04 17.85.05-.23 6.01.52 12.3-.36 18.14-5.91-.1-11.81.01-17.72-.06.09-6.02-.38-12.22.23-18.13zm20.6.37c5.9-.8 12.16-.19 18.2-.3-.22 6.01.44 12.21-.32 18.11-5.93-.11-11.86.05-17.79-.08-.1-5.91.07-11.82-.09-17.73z" fill="#889eaa"/><path fill="#fff" d="M0 86.78c19.26 27.07 38.64 54.07 58.07 81.02 2.43 3.03 4.41 6.41 6.93 9.36 1.23-.85 1.85-2.28 2.75-3.42 18.49-26.1 36.97-52.2 55.5-78.27 17.12 24.1 34.3 48.16 51.4 72.27 2.76 2.9 4.4 6.89 7.4 9.45 17.54-23.48 34.31-47.57 51.94-70.98.02 16.71.01 33.43.01 50.15-5.87.07-11.73-.06-17.59.05-.05 6.02-.09 12.05.02 18.06 5.85.1 11.71-.02 17.57.06v2.65c-5.87.06-11.75-.09-17.62.07-.01 5.84-.03 11.68.01 17.51l.42.56c5.72-.02 11.45.02 17.18-.03.02 12.9 0 25.81.01 38.71H0v-38.19c5.74 0 11.47 0 17.21.02.51-5.98.13-12.08.18-18.1-5.78.11-11.67-.43-17.39.27v-3c5.8-.02 11.6.04 17.4-.03.06-6.02.08-12.04-.01-18.06-5.8-.05-11.6-.09-17.39.03V86.78m98.52 70.91c.11 5.93-.02 11.86.07 17.78 5.92.1 11.84-.04 17.76.08.77-5.89.16-12.14.3-18.16-6.02.18-12.22-.45-18.13.3m20.93-.06c.11 5.94-.01 11.89.06 17.83 5.95.13 11.91-.03 17.86.09.6-5.97.11-12.12.23-18.15-6.03.11-12.18-.36-18.15.23m-20.62 20.6c-.61 5.91-.14 12.11-.23 18.13 5.91.07 11.81-.04 17.72.06.88-5.84.13-12.13.36-18.14-5.95-.09-11.9 0-17.85-.05m20.6.37c.16 5.91-.01 11.82.09 17.73 5.93.13 11.86-.03 17.79.08.76-5.9.1-12.1.32-18.11-6.04.11-12.3-.5-18.2.3z"/></svg>