<svg viewBox="0 0 1037 1056" xmlns="http://www.w3.org/2000/svg"><path d="M490.53 0h8.85c5.54.47 11.11.38 16.65.77 7.89.5 15.48 4.73 19.93 11.28 6.18 8.95 5.99 21.71-.37 30.52-4.82 6.93-13.18 11.03-21.58 10.96-8.29-.07-16.57-.41-24.85-.67.37-17.62.96-35.24 1.37-52.86m10.91 8.41c-.34 11.99-.8 23.97-.96 35.97 7.06.19 14.92 1.5 21.14-2.73 7.18-4.69 9.48-14.83 6.21-22.54-2.09-5.01-6.79-8.71-12.07-9.84-4.7-.99-9.55-.7-14.32-.86zM425.03 6.15c12.39-1.6 24.81-2.97 37.2-4.57.59 2.78.96 5.59 1.21 8.42-8.81 1.17-17.64 2.1-26.44 3.22.3 4.18.85 8.34 1.55 12.47 8.77-.87 17.47-2.33 26.26-2.95.29 2.72.56 5.45.68 8.18-8.63.91-17.25 1.98-25.86 3.05.39 4.74 1.04 9.46 1.66 14.17 8.88-.55 17.65-2.05 26.5-2.94.43 2.93.8 5.87 1.08 8.82-12.33 1.63-24.7 3.04-37.05 4.53-2.45-17.44-4.59-34.93-6.79-52.4zM584.35 9.42c13.51-3.12 29.03 3.31 35.24 15.95 4.77 9.09 3.24 20.96-3.69 28.53-8.37 9.54-22.88 12.3-34.51 7.71-8.13-3.13-15.09-9.71-17.89-18.05-2.79-8-1.14-17.33 4.15-23.93 4.11-5.27 10.2-8.81 16.7-10.21m1.99 9.86c-7.71 2-13.89 9.57-13.09 17.7.68 10.13 10.83 17.86 20.74 16.93 9.21-.36 17.91-8.38 17.34-17.92-.38-11.97-13.89-20.38-24.99-16.71zM375.3 17.25c8.21-1.16 16.96 1.71 22.69 7.74 7.22 7.38 9.68 19.1 5.72 28.68-3 7.58-9.87 13.26-17.7 15.33-7.57 2.05-15.06 4.47-22.72 6.17-4.99-16.82-9.92-33.66-14.84-50.5 8.87-2.73 17.79-5.45 26.85-7.42m-13.76 11.96c2.86 11.66 6.65 23.08 9.89 34.65 6.66-1.79 14.29-2.85 19.02-8.41 7.71-8.8 3.54-24.58-7.48-28.48-7.12-2.82-14.51.43-21.43 2.24zM312.3 39.33c3.2-2.92 7.81-3.99 11.7-5.86-3.6 11.37-7.85 22.52-11.62 33.83 11.5 4.76 23.31 8.72 34.86 13.36a65.374 65.374 0 0 1-12.29 5.87c-10.3-3.02-20.03-7.82-30.29-11.03 2.65 6.99 6.63 13.38 9.31 20.35-2.48 2.59-6.43 3.36-9.62 4.92-7.53-15.94-15.41-31.72-22.87-47.69 3.2-1.63 6.46-3.14 9.76-4.56 3.77 6.79 6.6 14.06 10.42 20.83 3.8-9.91 6.7-20.17 10.64-30.02zM686.48 66.47c4.11-8.05 12.68-13.29 21.59-14.14 15.1-1.71 30.72 8.59 34.23 23.56-3.3 1.1-6.65 2.03-10.01 2.89-1.51-5.68-4.68-11.21-10.09-13.95-7.12-4.05-16.89-3.22-22.85 2.53-4.15 3.9-5.84 10.07-4.46 15.57 1.74 8 9.03 14.21 17.1 15.09 3.72.43 7.37-.65 10.9-1.69 1.1 3.25 2.15 6.51 3.14 9.79-13.92 5.61-31.04-.7-38.51-13.58-4.74-7.75-5.44-18.01-1.04-26.07zM640.61 61.97c5.02 1.17 9.8 3.13 14.61 4.97-1.47 4.56-3.09 9.08-5.03 13.47-4.76-1.6-9.49-3.3-14.21-4.98 1.22-4.59 3.02-8.99 4.63-13.46zM225.82 95.63c3.12-13.13 15.73-23.13 29.14-23.66 3.01-.16 6.01.25 8.99.66-.46 3.42-1.17 6.81-1.94 10.18-4.99-.95-10.39-1.27-15.02 1.16-6.8 3.18-11.5 10.51-11.13 18.05.11 5.39 3.17 10.57 7.79 13.33 6.76 4.14 15.98 3.35 22.14-1.56 4.78-3.35 6.85-9.1 7.68-14.65 3.37.55 6.75 1.12 10.12 1.72-1.05 13.86-13.18 25.2-26.65 27.09-9.61 1.59-20.15-1.89-26.2-9.68-5.11-6.23-6.84-14.86-4.92-22.64zM764.41 90.7c13.41-2.73 27.95 4.69 33.9 16.96 4.43 8.7 4.08 19.91-1.75 27.9-5.58 8.05-15.85 12.11-25.47 10.94-15.54-1.32-28.89-15.82-27.96-31.57.3-11.77 9.77-22.23 21.28-24.23m.95 10.63c-6.02 1.86-10.75 7.37-11.48 13.65-1.08 7.42 2.93 15.1 9.38 18.8 7.07 4.28 17.11 3.46 22.87-2.67 4.69-4.77 5.79-12.36 3.26-18.46-3.44-9.29-14.67-14.55-24.03-11.32zM186.07 119.38c2.65-2.33 5.3-4.65 8.05-6.87 11.94 12.97 23.66 26.17 35.21 39.49a108.31 108.31 0 0 1-8.1 7.04c-11.69-13.25-23.7-26.22-35.16-39.66zM793.6 170.87c12.96-11.95 26.27-23.52 39.53-35.15 2.97 2.85 5.76 5.9 8.2 9.23-2.98 9.55-6.37 18.97-9.15 28.59 9.98-1.41 19.85-3.61 29.84-4.98 3.35 2.12 5.5 5.69 8.18 8.57-7.9 7.47-16.32 14.38-24.39 21.67-5.17 4.4-9.97 9.23-15.39 13.33-2.38-2.53-4.68-5.12-6.71-7.93 8.64-7.81 17.45-15.42 26.15-23.17-10.84 1.6-21.59 3.78-32.44 5.29 2.91-10.45 6.65-20.66 9.66-31.08-8.87 7.72-17.57 15.61-26.39 23.37-2.52-2.43-4.87-5.04-7.09-7.74zM157.74 146.97a97.55 97.55 0 0 1 7.01-7.91c13.26 11.61 26.54 23.22 39.62 35.04-2.14 2.71-4.45 5.27-6.76 7.83-14.88-1.58-29.69-3.87-44.56-5.64 9.01 8.36 18.55 16.13 27.49 24.56-2.2 2.69-4.51 5.28-6.86 7.84-13.32-11.54-26.5-23.26-39.75-34.89 2.52-3.18 5.21-6.22 8.04-9.13 13.73 1.54 27.42 3.41 41.14 5.03-8.12-7.94-17.05-15-25.37-22.73zM92.52 242.55c9.11-12.85 18.44-25.65 29.28-37.11 1.41 1.28 2.82 2.57 4.24 3.86-36.11 41.71-64.03 90.16-84.41 141.32C19.07 407.59 6.84 468.7 6.4 530c-.62 63.76 11.54 127.34 33.4 187.15 4.57 12.98 10.15 25.57 15.2 38.35l-5.25 2.16C16.32 683-2.01 601 .58 519.02 3.43 420.5 36.5 323.47 92.52 242.55zM878.78 212.1c1.42-1.29 2.85-2.58 4.3-3.85 20.7 23.46 38.39 49.46 54.36 76.32 17.58 29.96 32.44 61.58 43.49 94.53 9.29 28.13 16.28 57.22 18.62 86.8-1.94.09-3.85.18-5.76.25-6.07-61.06-27.94-119.68-58.22-172.73-16.42-28.75-35.4-56.05-56.79-81.32zM245.57 304.57c17.43-7.14 34.14-15.92 50.43-25.36-.95 18.2-10.66 34.8-23.53 47.25-14.56 14.27-32.42 24.68-50.86 33.11-11.61 5.18-23.51 9.86-35.81 13.14-.16-18.84-.08-37.68-.05-56.52 6.29.95 12.69 1.19 19 .29 14.11-1.91 27.67-6.57 40.82-11.91zM506.16 311.21c24.05-7.67 46.48-19.47 68.43-31.76-.61 14.4-7.04 28.02-16.1 39.03-11.41 13.86-26.32 24.38-41.94 33-16.51 8.96-34 16.19-52.08 21.3-.03-18.85.05-37.7-.04-56.56 14.09 2.37 28.31-.79 41.73-5.01zM783.61 311.61c24.52-7.67 47.41-19.63 69.72-32.21-.62 13.87-6.57 27.05-15.12 37.81-10.68 13.48-24.76 23.84-39.57 32.38-17.46 9.91-36.16 17.65-55.44 23.23-.11-18.89-.03-37.77-.04-56.66 13.62 2.45 27.42-.59 40.45-4.55z"/><path d="M143.92 433.85c14.7-3.73 29.83-6.43 45.05-6.27 6.53.35 13.9.83 18.93 5.54 3.64 3.41 2.86 8.79 2.3 13.25-2.64 18.67-6.55 37.13-10.11 55.64-5.35 27.02-10.81 54.02-15.71 81.13-3.21 18.19-6.51 36.41-7.96 54.84-.17 5.01-.96 10.44 1.5 15.06 5.52 10.3 15.27 18.44 26.7 21.26 11.14 2.83 22.92.83 33.51-3.16 14.39-5.47 27.28-14.22 39.21-23.82 22.64-18.27 41.69-40.4 60.48-62.48 23.38-27.37 46.61-54.9 68.64-83.39 6.36-8.35 12.74-16.72 18.46-25.52 1.82-2.59 1.55-5.87 1.73-8.86.28-11.15.49-22.76-4-33.22 13.19-3.41 26.73-5.77 40.37-6.27 7.68.01 16.23-.05 22.7 4.72 3.99 2.91 4.06 8.28 3.37 12.71-2.46 18.32-6.33 36.43-9.81 54.58-8.02 41.34-16.96 82.54-22.7 124.28-.89 7.69-1.94 15.42-1.56 23.18.17 4.93 3.27 9.04 6.15 12.8 7.38 9.39 18.91 15.34 30.87 15.73 15.92.61 31.03-6.09 44.36-14.2 23.76-14.87 43.69-34.96 62.22-55.78 24.04-27.69 47.79-55.62 70.81-84.15 11.7-14.71 23.47-29.41 33.93-45.04 2.28-2.99 1.81-6.92 2.05-10.44.18-10.79.43-22.08-4.15-32.12 14.93-3.72 30.27-6.54 45.71-6.25 6.47.38 13.82.95 18.65 5.81 3.27 3.36 2.58 8.39 2.07 12.62-2.07 15.24-5.16 30.32-8.03 45.42-7.82 40.47-16.37 80.82-22.71 121.56-1.52 10.61-3.15 21.27-3.24 32.01-.42 7.21 4.33 13.3 9.16 18.13 9.76 9.41 23.92 12.83 37.17 11.85 19-1.36 36.79-9.38 53.03-18.89 25.75-15.39 48.41-35.35 69.62-56.42 42.85-43.26 84.69-87.66 122.74-135.24 3.67-4.44 6.87-9.3 11.1-13.24-.31 10.92-4.32 21.28-7.76 31.51-7.42 20.01-16.66 39.51-29.16 56.88-25.3 36.03-53.98 69.78-86.3 99.7-21.09 19.38-43.89 37.1-68.94 51.08-18.06 10.05-37.36 18.11-57.62 22.42-18.54 3.82-38.12 5.18-56.55.01-14.63-3.97-28.11-12.58-37.14-24.84-15.38-20.74-18.31-48.48-13.1-73.22 5.29-23.16 10.43-46.36 14.9-69.69-18.41 30.36-39.28 59.31-63.19 85.58-20.13 22.04-42.48 42.31-67.88 58.14-27.9 17.44-60.56 29.1-93.83 27.18-20.16-1.24-40.63-9.41-53.57-25.39-16.64-20.22-20.36-48.38-15.6-73.51 5.16-23.71 10.87-47.32 15.05-71.23-16.28 26.17-33.92 51.56-54.11 74.89-22.25 25.79-47.24 49.61-76.19 67.77-27.82 17.48-60.36 29.22-93.57 27.52-20.22-1.11-40.82-9.1-53.94-25.01-17.29-20.68-20.93-49.81-15.63-75.56 8.94-39.55 17.77-79.21 22.96-119.46 1.8-14.94 3.33-30.02 2.41-45.08-.3-5.86-1.62-11.62-3.85-17.05zM997.96 576.69c1.96.09 3.93.21 5.91.34-3.84 39.55-10.93 78.85-21.75 117.09-7.46 25.65-16.71 51.03-30.53 73.99-1.73-.99-3.44-2.01-5.13-3.03 17.57-29.76 28-63.07 36.11-96.47 7.18-30.25 12.2-61 15.39-91.92zM54.55 784.59c3.14-8.37 13.98-12.29 21.77-7.94 7.47 3.57 10.83 12.72 8.48 20.5-1.85-.33-3.7-.69-5.54-1.04.89-4.11.85-8.87-2.39-11.98-4.42-5.13-13.67-4.08-16.56 2.13-3.08 5.53.1 12.55 5.69 14.96 1-.43 1.99-.84 3-1.23-1.01-1.97-1.98-3.95-2.98-5.91 1.51-.72 3.01-1.43 4.53-2.1 1.93 3.37 3.85 6.74 5.67 10.17-2.96 1.87-5.87 4.01-9.27 5.04-10.06-1.38-16.49-13.38-12.4-22.6zM916.65 788c1.3-4.58 4.72-9.64 9.86-10.09.36 1.6.71 3.23 1 4.86-2.06 1.77-4.88 3.39-5.27 6.34-.4 2 1.45 4.26 3.57 3.51 4.27-1.7 7.06-6.01 11.63-7.13 4.79-1.2 10.05 2.64 10.24 7.61.33 6.75-4.97 12.84-11.19 14.89-.46-1.86-.89-3.7-1.31-5.55 2.68-1.88 6.15-3.82 6.62-7.4.29-1.81-1.01-3.41-2.82-3.54-5.13 1.57-8.25 7.39-13.98 7.48-5.54.21-9.89-5.71-8.35-10.98zM90.35 813.43c9.15-2.02 18.72 5.42 19.34 14.69.96 7.86-4.82 15.85-12.68 17.14-8.99 1.95-18.45-5.14-19.26-14.26-1.23-8.01 4.6-16.22 12.6-17.57m.99 5.89c-5.51 1.1-9.14 7.25-7.59 12.63 1.23 5.37 7.28 8.84 12.57 7.36 5.2-1.2 8.63-6.93 7.4-12.1-.99-5.48-7.01-9.24-12.38-7.89zM894.66 822.82c1.07-1.68 2.15-3.36 3.27-5.01 7.11 4.36 13.64 9.61 20.89 13.72 2.63-4.03 5.29-8.05 8.12-11.94 1.55 1.05 3.1 2.13 4.64 3.24-3.78 5.76-7.61 11.49-11.59 17.12-8.5-5.63-16.95-11.33-25.33-17.13zM125.41 846.2c1.31 1.54 2.59 3.1 3.86 4.69-6.19 5.46-12.77 10.48-18.88 16.04 2.98 3.8 6.2 7.41 9.19 11.22-1.42 1.24-2.85 2.49-4.29 3.73-4.51-5.26-8.98-10.56-13.34-15.94 7.73-6.69 15.65-13.16 23.46-19.74zM877.19 845.79c11.05 2.39 21.99 5.21 32.98 7.86-1.23 1.76-2.58 3.42-3.94 5.07-2.25-.53-4.49-.98-6.74-1.41-3.04 3.82-6.22 7.53-9.04 11.52.94 2.01 1.82 4.06 2.72 6.11-1.32 1.65-2.62 3.33-3.94 4.99-5.05-10.19-10.04-20.41-14.86-30.71.92-1.16 1.86-2.31 2.82-3.43m5.58 7.27c1.5 3.6 3.22 7.1 5.12 10.52 2.21-2.45 4.28-5.02 6.26-7.67-3.76-1.1-7.55-2.06-11.38-2.85zM860.29 866.11c1.28 1.07 2.55 2.16 3.84 3.27-1.71 2.28-3.62 4.4-5.48 6.56 5.95 5.93 12.31 11.43 18.3 17.32-1.34 1.43-2.7 2.87-4.04 4.3-6.41-5.48-12.22-11.62-18.64-17.09-1.92 2.05-3.89 4.06-6.06 5.84a124.19 124.19 0 0 1-3.48-3.39c5.01-5.77 10.35-11.24 15.56-16.81zM126.8 894.27c7.34-7.05 14.31-14.51 21.89-21.3 4.79 5.59 12.5 10.05 12.92 18.16.9 10.97-11.96 20.48-22.03 15.34-5.05-3.09-8.88-7.82-12.78-12.2m7.8.85c2.45 2.66 4.88 5.85 8.62 6.65 6.93 1.48 14.17-5.61 12.63-12.58-.81-3.72-3.9-6.21-6.6-8.59-4.92 4.8-9.88 9.57-14.65 14.52zM819.94 906.27c4.95-4.57 9.79-9.26 14.96-13.57 1.07 1.13 2.13 2.27 3.21 3.42-3.4 3.39-7.05 6.51-10.45 9.89 1.52 1.75 3.07 3.5 4.63 5.24 3.75-2.94 7.07-6.38 10.71-9.45 1.06 1.08 2.1 2.17 3.14 3.3-3.21 3.51-6.93 6.49-10.29 9.85 1.78 2.06 3.61 4.08 5.46 6.08 3.73-3.04 7.12-6.45 10.76-9.59 1.16 1.19 2.32 2.41 3.47 3.65-4.78 4.77-9.86 9.23-14.83 13.8-7.02-7.45-14.01-14.94-20.77-22.62zM167.07 917.6c1.26-1.57 2.54-3.12 3.83-4.65 15.05 12.61 30.38 24.9 46.3 36.39-1.08 1.63-2.18 3.26-3.29 4.88-16.29-11.3-31.63-23.92-46.84-36.62zM802.03 921.25c1.67-1.25 3.33-2.5 5.02-3.73 6.45 7.97 12.67 16.14 18.84 24.34-1.55 1.12-3.11 2.25-4.67 3.37-4.2-5.09-7.91-10.56-12.26-15.53.43 6.08 1.46 12.1 2.04 18.17-5.72-2.21-11.24-4.88-16.99-6.98 3.89 5.48 8.29 10.57 12.17 16.08-1.45 1.14-2.91 2.29-4.36 3.44-6.63-7.84-12.73-16.13-18.93-24.3 1.72-1.37 3.47-2.71 5.22-4.04 5.38 2.1 10.6 4.59 15.98 6.69-.52-5.86-1.56-11.65-2.06-17.51zM226.7 959.34c-2.99-4.95.55-12.04 6.3-12.58 6.48-.7 12.12 4.47 14.21 10.27-1.72.44-3.45.87-5.17 1.31-1.84-2.06-3.31-4.85-6.08-5.72-2.03-.68-4.71 1-4.02 3.3 1.48 4.38 5.65 7.43 6.52 12.1.91 4.93-3.39 9.99-8.45 9.74-6.7-.16-12.06-5.77-14.11-11.83 1.87-.38 3.75-.73 5.63-1.06 2.11 3.58 5.16 8.03 10.01 6.76 2.27-4.84-3.2-8.23-4.84-12.29zM743.23 960.23c2.87-5.14 9.23-7.44 14.89-6.73-.4 1.74-.81 3.49-1.24 5.24-2.59.62-5.6.72-7.58 2.72-1.28 1.22-.74 3.09-.84 4.66 5.34 1.95 10.88-1.66 16.22.17 4.57 1.68 6.81 7.57 4.42 11.86-3.17 5.76-10.5 8.29-16.78 7.17.48-1.85 1.01-3.67 1.54-5.49 3.13-.32 6.83-.36 9.08-2.92 1.45-1.46 1.19-4.55-1.07-4.98-4.75-.54-9.56 2.01-14.23.38-4.71-1.65-6.91-7.79-4.41-12.08zM262.45 962.92c1.8.87 3.57 1.8 5.31 2.8-4.91 8.94-9.93 17.82-14.96 26.69-1.72-.87-3.42-1.76-5.12-2.63 4.54-9.16 9.96-17.85 14.77-26.86zM720.24 971.93c1.79-.92 3.59-1.82 5.41-2.71 2.92 6.4 6.83 12.41 8.89 19.16 2.07 7.38-3.55 15.05-10.91 16.22-5.67 1.26-11.6-1.93-14.3-6.92-2.92-5.4-5.6-10.92-8.15-16.49 1.8-.79 3.61-1.56 5.43-2.3 2.44 4.77 4.68 9.63 7.14 14.4 1.3 2.58 3.36 5.2 6.44 5.59 5.04.81 10.36-4.35 8.39-9.46-2.23-6.07-5.72-11.59-8.34-17.49zM282.54 973.97c1.89.66 3.76 1.38 5.61 2.18-3.2 7.73-7.36 15.02-10.65 22.71 4.34 2.15 8.73 4.21 13.08 6.36-.83 1.71-1.67 3.42-2.51 5.13-6.27-2.89-12.54-5.81-18.62-9.09 4.28-9.14 8.83-18.15 13.09-27.29zM306.81 985.16c1.88 1.07 4.87 1.16 5.9 3.15.32 7.32-.51 14.65-.41 21.98 4.92-4.78 9.14-10.22 13.92-15.13 1.99-2.62 4.97.25 7.29.86-6.73 7.77-13.87 15.17-20.8 22.75-1.61 2.26-4.24.08-6.24-.3-.29-11.1.16-22.21.34-33.31zM673.33 992.43c7.99-2.42 17.39 2.41 19.7 10.51 2.86 8.46-2.86 18.31-11.47 20.35-8.13 2.39-17.67-2.62-19.76-10.95-2.6-8.38 3.12-17.85 11.53-19.91m.08 5.99c-2.92 1.24-5.16 3.93-5.92 7-1.64 5.69 2.74 11.98 8.58 12.61 6.55 1.19 12.8-5.27 11.6-11.77-.77-6.43-8.42-10.59-14.26-7.84zM347.24 1000.86c6.54 1.78 12.99 3.85 19.41 6.05-.54 1.5-1.08 3.02-1.64 4.55-4.57-1.4-9.12-2.9-13.72-4.18-.68 2.27-1.37 4.54-2.07 6.81 4.45 1.53 8.94 2.91 13.45 4.24-.35 1.52-.72 3.03-1.1 4.57-4.66-1.05-9.16-2.71-13.74-4.03-.93 2.61-1.78 5.27-2.58 7.94 4.55 1.47 9.14 2.85 13.69 4.34-.42 1.6-.85 3.2-1.3 4.82-6.61-1.62-13.05-3.87-19.52-5.96 2.96-9.74 6-19.46 9.12-29.15zM636.23 1005.56c1.87-.52 3.75-1.03 5.63-1.52 2.99 9.74 5.95 19.49 8.82 29.27-1.87.61-3.73 1.21-5.59 1.82-3.08-9.82-6.15-19.65-8.86-29.57zM381.9 1010.93c4.59 1.09 9.33 1.71 13.77 3.39 4.18 1.66 6.2 6.86 4.58 10.99-1.01 2.71-3.66 4.21-5.89 5.81 2.09 4.62 2.31 9.76 2.73 14.75-1.97-.41-3.94-.81-5.9-1.2-.54-3.47-.47-7.04-1.42-10.43-.75-2.75-3.87-3.28-6.12-4.21-1.23 3.93-2.09 7.96-2.96 11.98-1.92-.35-3.82-.72-5.72-1.09 2.11-10.04 4.35-20.06 6.93-29.99m2.68 15.03c2.31.29 4.67 1.16 7.01.68 3.06-.84 4.15-5.05 2.13-7.39-1.73-2.01-4.63-2.08-6.99-2.85-1 3.11-1.72 6.31-2.15 9.56zM599.7 1018.71c5.08-7.62 16.46-9.31 23.72-3.83-.87 1.61-1.76 3.23-2.63 4.86-2.95-1.22-6.04-2.96-9.34-2.25-5.55.89-9.69 6.83-8.36 12.35 1.1 5.45 7.15 9.1 12.51 7.74 3.52-.59 5.66-3.69 7.75-6.26 1.57 1 3.14 2 4.72 3.02-4.02 8.47-15.43 11.92-23.43 7.01-7.81-4.26-10.2-15.5-4.94-22.64zM559.5 1021.79c6.72-1.03 13.43-2.22 20.21-2.77.11 1.57.22 3.15.32 4.75-4.68.68-9.38 1.28-14.04 2.12.32 2.35.66 4.72 1.01 7.08 4.73-.6 9.44-1.33 14.17-1.93-.12 1.54 1.17 3.48-.06 4.77-4.4.88-8.89 1.24-13.3 2.05.29 2.75.67 5.5 1.15 8.24 4.73-.62 9.46-1.34 14.2-1.98.25 1.71.49 3.43.72 5.16-6.66.93-13.31 2.01-19.99 2.77-1.66-10.06-2.99-20.17-4.39-30.26zM521.74 1024.98c4.69-.3 9.38-1.04 14.09-.77 4.38.3 7.91 4.44 7.72 8.79.07 3.11-2.21 5.47-4.09 7.67 3.52 3.76 5.13 8.75 7.04 13.43-2.12.11-4.24.22-6.36.3-1.37-3.37-2.25-7.06-4.51-9.96-1.7-1.93-4.5-1.39-6.76-1.62.18 4.13.49 8.27.64 12.41-1.91.12-3.81.25-5.7.37-.85-10.2-1.49-20.41-2.07-30.62m6.21 3.86c.06 3.25.26 6.5.77 9.73 2.22-.35 4.58-.29 6.68-1.21 2.66-1.44 2.91-5.51.67-7.43-2.22-2-5.44-1.04-8.12-1.09zM485.24 1025.28c5.35.22 11.09-.91 16.13 1.37 5.88 2.89 7.09 11.64 2.47 16.19-3.24 3.6-8.46 3.1-12.83 3.34-.03 3.27-.09 6.54-.14 9.82h-5.96c.14-10.24.12-20.49.33-30.72m5.95 4.49c-.11 3.88-.15 7.76-.11 11.65 2.61-.14 5.74.5 7.8-1.57 2.42-2.2 2.44-6.47-.09-8.58-2.07-1.86-5.06-1.32-7.6-1.5zM412.5 1030.27c18.87 2.78 37.77 5.47 56.8 6.85-.08 1.96-.17 3.93-.27 5.9-19.18-1.06-38.18-4.06-57.19-6.69.1-2.04.31-4.07.66-6.06z"/></svg>