<svg xmlns="http://www.w3.org/2000/svg" viewBox="0 0 1507 285"><g fill="#ffd503"><path d="M621.88 2.22c9.49-2.74 20.07-1.65 28.72 3.16 7.39 4.08 13.36 10.7 16.59 18.51 4.3 10.35 3.71 22.62-1.66 32.48-.53.9-1.07 1.79-1.62 2.67 7.84 8.76 16.58 16.82 24.81 25.27 51.6 51.61 103.19 103.24 154.76 154.87-3.35 3.59-6.89 6.98-10.36 10.44C773.48 190 713.9 130.32 654.28 70.67c-1.14-1.63-2.69.38-3.87.82-10.34 5.68-23.38 6.02-34.03 1-9.93-4.66-17.7-13.83-20.37-24.5-2.09-7.94-1.5-16.54 1.62-24.13 4.29-10.35 13.44-18.61 24.25-21.64m3 11.57c-8.44 2.51-15.28 9.7-17.39 18.25-2.57 9.57 1.1 20.39 8.92 26.46 6.89 5.64 16.69 7.05 25.02 4.06l-.04-.14c6.82-2.48 12.49-8.2 15.05-14.97l.07.06c3.38-8.99 1.34-19.73-5.32-26.68-6.49-7.11-17.14-9.97-26.31-7.04z"/><path d="M802.2 2.16c8.78-2.47 18.47-1.71 26.71 2.27 9.86 4.74 17.52 13.95 20.1 24.61 2.38 9.4 1.09 19.75-3.81 28.15-4.96 8.6-13.41 15.19-23.07 17.61-9.22 2.41-19.37 1.25-27.71-3.38-1.02-.53-1.95-1.31-3.1-1.46-15 15.14-30.13 30.14-45.14 45.27-3.79 3.59-7.21 7.6-11.22 10.93-3.4-3.37-6.73-6.81-10.12-10.17 16.83-17.53 34.35-34.45 51.44-51.74 1.55-1.76 3.62-3.13 4.79-5.19-.55-.84-1.07-1.69-1.56-2.55-6.04-10.99-6.1-25.01-.11-36.03 4.74-8.82 13.13-15.64 22.8-18.32m-12.47 24.36c-3.36 6.37-3.78 14.12-1.31 20.86 2.7 6.7 8.2 12.68 15.17 14.94l.01.27c5.96 2.01 12.61 2.09 18.47-.31 11.06-4.22 18.1-16.72 15.8-28.37C836 22.1 824.97 12.65 813 12.66c-9.57-.28-18.93 5.35-23.27 13.86zm-82.98 107.32c1.13-.91 1.86-2.47 3.33-2.86 3.36 3.24 6.61 6.59 9.92 9.87l-.17.72c-36.01 36-71.95 72.07-107.99 108.05-3.5-3.44-7.06-6.84-10.37-10.46 35.13-35.08 70.15-70.25 105.28-105.32zm-37.79 72.2c1.35-1.05 2.17-3.01 3.88-3.44 8.9 9.23 18.15 18.11 27.05 27.33l-.03.75c-6.34 6.36-12.47 12.92-18.8 19.29-3.97-3.14-7.17-7.25-10.95-10.65-3.29 3.54-7.25 6.65-10.08 10.48 3.58 3.4 6.89 7.08 10.51 10.43-5.93 6.83-12.58 13.09-18.79 19.7l-.76.03c-4.29-4.12-8.4-8.43-12.6-12.64 3.34-3.46 3.7-9.43.38-13.02-2.76-2.9-5.65-5.68-8.48-8.51 12.54-13.57 25.97-26.31 38.67-39.75zm76.08 23.94c8.95-9.31 18.31-18.26 27.26-27.58 13.29 13.52 26.62 27.02 39.84 40.6.72.97 2.08 1.57 2.31 2.85-2.94 2.95-6.15 5.69-8.7 8.99-2.8 3.63-2.37 9.1.76 12.4-3.27 3.78-7.06 7.11-10.51 10.74-.91.66-1.5 2.07-2.76 2.04-6.12-6.73-13.03-12.91-18.78-19.85 3.58-3.39 6.97-6.96 10.51-10.39-2.96-3.78-6.82-6.94-10.14-10.46-3.67 3.51-7.04 7.38-10.89 10.66-6.35-6.33-12.48-12.9-18.79-19.27l-.11-.73z"/></g><g fill="#011689"><path d="M721.21 26.02c1.19-1.81 3-.17 3.93.95 13.93 13.92 27.79 27.91 41.75 41.8l.75-.3c-1 .99-2 1.97-2.98 2.96-13.98-13.98-27.99-27.94-41.94-41.96-14.15 13.9-28 28.1-42.1 42.05-.83-.81-1.64-1.62-2.44-2.44 14.3-14.39 28.68-28.71 43.03-43.06z"/><path d="M684.48 75.38c12.78-12.78 25.52-25.6 38.36-38.32 12.68 12.71 25.34 25.45 38.07 38.12-12.48 12.44-24.85 24.98-37.35 37.4-.3.2-.9.61-1.2.81-12.51-12.79-25.28-25.32-37.88-38.01zm95.03 10.89c1.01-1.01 2.01-2.03 3.03-3.04l-.45.73c24.43 24.51 48.95 48.93 73.38 73.44.15.31.44.93.58 1.23-.54.52-1.63 1.55-2.17 2.06-24.84-24.75-49.6-49.59-74.37-74.42zM589 158.24c24.67-24.71 49.36-49.41 74.08-74.07.81.81 1.62 1.63 2.44 2.44-15.97 16.03-31.99 32-47.98 48-8.83 8.61-17.25 17.72-26.34 26-.74-.8-1.47-1.58-2.2-2.37zm148.46-29.98c12.83-12.68 25.52-25.5 38.3-38.24 23.01 23.09 46.13 46.07 69.12 69.19.57 12.86.09 25.86.23 38.78-12.7.03-25.39 0-38.09.01-23.15-23.27-46.56-46.32-69.56-69.74zm-137.02 31.17c22.95-23.01 45.95-45.98 68.94-68.96 12.63 12.83 25.68 25.29 38.04 38.34-23.17 22.97-46.14 46.14-69.22 69.2-12.61-.11-25.23.18-37.83-.15.15-12.81.02-25.62.07-38.43zM25.47 98.59c11.79-2.63 25.18-.6 34.48 7.49 10.04 8.52 12.5 24.01 6.68 35.62-4.3 8.75-13.25 14.47-22.63 16.32-11.71 2.37-24.91.13-33.97-8.04-9.71-8.59-12.01-23.79-6.3-35.25 4.15-8.47 12.69-14.12 21.74-16.14m2.05 11.2c-6.3 1.6-12.1 5.98-14.41 12.18-2.16 5.45-1.22 11.92 2.25 16.63 7.08 9.55 21.3 11.18 31.66 6.51 6.33-2.82 11.14-9.13 11.39-16.16.35-6.58-3.41-12.92-8.95-16.32-6.47-4.01-14.65-4.71-21.94-2.84zm103.66-10.64c15.86.01 31.73-.15 47.59.08 1.6 3.02 4.05 5.62 5.3 8.79-11.97 11.71-23.88 23.47-35.83 35.19-.76.91-2 1.53-2.29 2.75 12.84-.05 25.67-.01 38.51-.02.07 3.77.06 7.54 0 11.31-16.88.03-33.76-.05-50.63.04-2.23-2.8-4.09-5.93-5.89-9.02 12.58-12.2 25.04-24.53 37.64-36.7l.4-1.2c-11.59-.01-23.32.36-34.83-.19.07-3.68.02-7.35.03-11.03zm104.04 58.12c10.61-19.51 21.82-38.75 32.7-58.13 2.89.1 5.84-.31 8.69.22 10.67 19.34 21.73 38.47 32.43 57.79-3.95.2-7.92.1-11.87.05-2.46-4.37-5.08-8.64-7.5-13.04-11.54-.66-23.25-.11-34.85-.27-2.72 4.37-5.18 8.88-7.8 13.31-3.93.13-7.87-.01-11.8.07m26-24.75c7.23.14 14.46-.08 21.69.12-3.3-6.65-6.92-13.43-10.92-19.59-3.6 6.48-7.19 12.97-10.77 19.47zm108.62-33.35c12.07.04 24.15 0 36.22.02 6.01.11 12.37 1.61 16.86 5.84 5.07 4.84 6.13 12.95 3.41 19.27-2.08 4.81-6.54 8.22-11.42 9.86 4.9 7.92 10.83 15.22 15.81 23.1-4.62-.02-9.23 0-13.84-.02-5.14-7.23-10.17-14.54-15.28-21.79-6.77-.08-13.55.1-20.32-.09-.66 7.2-.09 14.6-.29 21.88-3.76.02-7.53.03-11.29-.01.07-19.35-.21-38.74.14-58.06m11.37 11.18c-.46 4.56-.1 9.18-.2 13.76 7.98.02 15.97.02 23.95 0 3.11-.08 6.46-.21 9.16-1.95 2.82-1.81 3.02-6.1 1.25-8.7-2.08-2.41-5.48-2.76-8.45-2.95-8.57-.22-17.15.08-25.71-.16zM497.8 99.12c3.75.01 7.49-.01 11.24.01.05 8.45 0 16.89.03 25.34 9.43-8.27 18.51-16.94 27.83-25.33 5.46-.02 10.93-.04 16.4.01-7.82 7.48-15.89 14.71-23.88 22.01 8.28 12.19 17.39 23.87 25.79 36-4.69.18-9.39.09-14.08.05a7973.12 7973.12 0 0 0-20.18-28.08c-3.97 3.63-7.92 7.27-11.86 10.92-.07 5.73 0 11.45-.04 17.18-3.76.04-7.53.03-11.29.01.01-19.38-.07-38.75.04-58.12zm397.14.07c12.02-.01 24.04 0 36.06-.01 5.82.07 11.94 1.45 16.47 5.31 6.7 5.75 7.24 16.94 1.65 23.63-2.37 2.92-5.7 4.87-9.2 6.11 5.14 7.77 11.01 15.14 15.84 23.07-4.61-.14-9.21.05-13.81-.11-5.12-7.25-10.11-14.59-15.31-21.78-6.82.05-13.64.05-20.45 0-.16 7.27 0 14.55-.08 21.83-3.75.02-7.48.02-11.22 0 0-19.35-.09-38.71.05-58.05m11.25 11.21c-.15 4.56-.03 9.11-.06 13.67 7.3.13 14.61.01 21.92.06 3.55-.03 7.32.06 10.59-1.57 3.35-1.57 3.83-6.39 1.82-9.18-2.12-2.37-5.52-2.69-8.49-2.88-8.6-.17-17.19.02-25.78-.1zm108.84-11.29c17.1.01 34.19.04 51.29-.02.27 3.77.05 7.56.1 11.34-13.36.01-26.72.02-40.07 0-.1 3.8.01 7.62-.08 11.43 7.65.2 15.31.01 22.96.09.03 3.76.02 7.52 0 11.29-7.64.05-15.29-.04-22.93.04-.01 4.18.06 8.36-.05 12.54 13.78.49 27.69-.39 41.4.44-.36 3.66.31 7.43-.34 11.03-17.43-.1-34.87 0-52.3-.05 0-19.38-.05-38.75.02-58.13zm137.02.02c2.86.03 5.73-.13 8.6.1 10.72 19.37 21.78 38.55 32.51 57.92-3.98.11-8.01.27-11.97-.07-2.4-4.37-5.04-8.6-7.44-12.97-11.59-.48-23.29-.21-34.92-.13-2.61 4.38-5.12 8.82-7.7 13.22-3.89.14-7.77-.03-11.65.09 1.15-3.42 3.49-6.4 5.12-9.65 9.15-16.17 18.27-32.36 27.45-48.51m4.06 13.96c-3.64 6.47-7.22 12.97-10.77 19.49 7.2 0 14.41-.09 21.61.05-1.53-4.09-4.15-7.72-6.11-11.62-1.68-2.54-2.69-5.82-4.73-7.92zm87.78-13.97c3.73.01 7.47-.01 11.22.01.03 15.59.02 31.19 0 46.78 11.65.07 23.29-.01 34.94.04.01 3.76.01 7.52 0 11.29-15.41.01-30.82.03-46.23-.01.03-19.37-.11-38.75.07-58.11zm98.49.12c18.18-.29 36.38 0 54.57-.15.09 3.78.02 7.56.05 11.34-7.21.03-14.41 0-21.6.01-.08 15.6.03 31.2-.06 46.8-3.77.01-7.53.03-11.28-.01v-42.26c-.04-1.55.15-3.13-.3-4.63-7.06.25-14.12-.01-21.18.14-.37-3.73 0-7.5-.2-11.24zm99-.1c4.92-.05 9.85.02 14.78-.04 6.06 6.45 11.88 13.14 17.89 19.66 5.97-6.51 11.83-13.13 17.82-19.63 5.04.01 10.08-.07 15.13.06v.02c-9.25 9.82-18.09 20.02-27.24 29.93-.15 9.25-.08 18.51-.03 27.77-3.59.82-7.44.07-11.11.39-.62-9.35 0-18.8-.3-28.18-9-9.98-18.05-19.91-26.94-29.98zm-773.51 98.84c18.11-18.16 36.31-36.23 54.37-54.44 18.37 17.91 36.29 36.32 54.52 54.4-1.06.02-3.19.08-4.25.11-.07-.01-.2-.01-.27-.01-33.2-.07-66.41-.05-99.62-.01h-.27c-1.5-.03-3-.04-4.48-.05zm-88.6 11.32c2.32.39 6.54-1.44 7.32 1.71-.72 2.9-4.48 1.29-6.58 1.67-2.03.37-2.72-2.88-.74-3.38zm12.98 0c3.5-.1 7.03-.09 10.54 0 1.62.4 1.57 2.98-.05 3.34-3.48.09-6.97.08-10.45 0-1.74-.24-1.8-3.07-.04-3.34zm17.06 3.26c-1.54-.83-1-3.42.79-3.27 5.64-.15 11.29.07 16.93-.11-1.17 1.16-2.32 2.33-3.48 3.5-4.75-.07-9.51.19-14.24-.12zm93.97-3.14c3.54-.37 7.14-.14 10.71-.13 1.93-.02 2 3.2.12 3.33-3.36.14-6.73.08-10.08.03-1.65.03-2.25-2.44-.75-3.23zm19.02.02c6.24-.45 12.55-.08 18.82-.19 2.16-.54 2.93 3.26.6 3.41-6.42.01-12.85.14-19.25-.07-1.23-1-1.28-2.05-.17-3.15zm95.91-.2c5.81.06 11.63-.09 17.45.07 1.64.33 1.64 2.96.02 3.32-4.69.15-9.38.02-14.05.05-1.17-1.13-2.29-2.3-3.42-3.44zm24.05.13c3.58-.24 7.18-.14 10.77-.06 1.54.26 1.85 2.36.5 3.24-3.48.29-7 .11-10.49.11-1.78.15-2.43-2.51-.78-3.29zm17.2.12c2.3-.43 4.75-.37 7.08-.04.99 1.03.97 2.05-.05 3.05-2.29.3-4.68.34-6.96-.02-1-.98-1.02-1.98-.07-2.99zm-298.08 10.94c2.08-.04 4.22-.27 6.27.15 1.41.69 1.04 3.14-.56 3.24-1.99.09-3.98.16-5.95-.07-1.48-.58-1.34-2.96.24-3.32zm12.04.06c6.19-.23 12.42-.13 18.62-.05 1.77.24 1.81 3.04.02 3.38-6.01.11-12.02.08-18.02.01-1.83 0-2.22-2.59-.62-3.34zm24.96-.01c5.84-.32 11.72.1 17.57-.21-1.21 1.2-2.42 2.41-3.62 3.62-4.46-.07-8.91.08-13.36-.06-1.89.12-2.33-2.76-.59-3.35zm96.43-.15c2.77.08 5.55 0 8.34.05 1.25-.29 2.01.67 2.52 1.64-.94 3.12-4.88 1.4-7.24 1.92-1.22-1.2-2.43-2.4-3.62-3.61zm15.5.1c8.22-.14 16.44-.01 24.65-.07 1.39 0 3.46-.28 3.77 1.63-.03 2.07-2.29 1.96-3.73 1.9-8.31-.09-16.63.13-24.93-.11-1.7-.41-1.53-3.22.24-3.35zm32.04.83c2.04-1.86 5.27-.43 7.79-.94-1.25 1.24-2.48 2.49-3.72 3.73-1.72.03-5.12-.15-4.07-2.79zm86.96-.92c5.25.07 10.5.02 15.75.03 1.14-.07 3.16.03 2.99 1.73.11 1.67-1.79 1.89-2.99 1.79-4.08 0-8.16-.03-12.22 0-1.19-1.18-2.36-2.37-3.53-3.55zm24.04.09c5.89-.12 11.78-.05 17.67-.03 1.92-.31 2.6 2.7.82 3.36-5.99.26-12 .06-17.99.11-2.11.34-2.7-3.24-.5-3.44zm24.91-.01c2.18.15 4.72-.66 6.68.58 1.45 3.83-3.86 2.82-6 2.86-2.26.59-3.1-3.26-.68-3.44zm-293.21 12.85c-1.78-.61-1.11-3.71.86-3.3 6.77-.07 13.55-.03 20.33-.01-1.1 1.09-2.18 2.2-3.27 3.3-5.97.18-11.95.2-17.92.01zm119.61-3.19c2.43-.18 4.89-.24 7.34-.08 1.97-.26 2.01 3.5.04 3.32-3.48.14-6.96.03-10.44.03 1.03-1.08 2.05-2.17 3.06-3.27zm13.39-.01c4.34-.3 8.71-.07 13.06-.12 2.41-.32 2.33 3.83-.05 3.41-4.06.03-8.11.03-12.16 0-1.8.19-2.36-2.53-.85-3.29zm17.67 1.87c-.21-2.62 2.94-2.02 4.61-1.85.99 1.13 2.03 2.24 3.09 3.31-2.43-.6-6.37 1.29-7.7-1.46zm103.18-2c6.7.05 13.41-.09 20.12.06 2.09-.34 2.02 3.79-.07 3.32-5.61.04-11.24.23-16.83-.13-1.08-1.09-2.15-2.18-3.22-3.25z"/></g><path d="M641.01 61.51c4.99-4.81 9.77-9.83 14.76-14.64l.67.58c-2.56 6.77-8.23 12.49-15.05 14.97-.1-.23-.28-.69-.38-.91zm147.41-14.13l1.18.04c4.57 4.7 9.21 9.35 13.91 13.92l.08.98c-6.97-2.26-12.47-8.24-15.17-14.94zM663.91 59.04c.55-.88 1.09-1.77 1.62-2.67 4.15 4.3 8.44 8.47 12.65 12.71.8.82 1.61 1.63 2.44 2.44 1.28 1.29 2.56 2.58 3.86 3.86 12.6 12.69 25.37 25.22 37.88 38.01.3-.2.9-.61 1.2-.81 12.5-12.42 24.87-24.96 37.35-37.4 1.25-1.25 2.49-2.5 3.75-3.75.98-.99 1.98-1.97 2.98-2.96 3.94-4.01 7.98-7.91 11.87-11.96.49.86 1.01 1.71 1.56 2.55-1.17 2.06-3.24 3.43-4.79 5.19-17.09 17.29-34.61 34.21-51.44 51.74 3.39 3.36 6.72 6.8 10.12 10.17 4.01-3.33 7.43-7.34 11.22-10.93 15.01-15.13 30.14-30.13 45.14-45.27 1.15.15 2.08.93 3.1 1.46-4.01 3.89-7.91 7.89-11.88 11.81-1.02 1.01-2.02 2.03-3.03 3.04-1.26 1.25-2.51 2.5-3.75 3.75-12.78 12.74-25.47 25.56-38.3 38.24 23 23.42 46.41 46.47 69.56 69.74 3.74 3.73 7.45 7.5 11.19 11.24 1.13 1.14 2.25 2.31 3.42 3.44 2.56 2.55 5.1 5.12 7.68 7.66 1.17 1.18 2.34 2.37 3.53 3.55 2.01 2.01 4.03 4.03 6.06 6.05 1.07 1.07 2.14 2.16 3.22 3.25 2.03 2.01 4.06 4.01 6.05 6.06-5.03 5.02-9.93 10.17-15.13 15.01-3.47-3.37-6.81-6.88-10.29-10.23-1.93-.45-4-.41-5.94-.88.72.85 1.44 1.71 2.17 2.58-3.82 3.99-8.24 7.55-11.38 12.11-2.06 3.74.99 7.09 3.38 9.64-5.89 5.72-11.8 11.65-17.39 17.52h-.24l-.04-.56c-7.87-7.9-15.51-16.03-23.35-23.96 3.46-3.73 7.11-7.28 10.73-10.85-1.87-1.94-3.81-3.81-5.68-5.74-3.97 3.18-7.26 7.23-11.02 10.7-6.89-7.03-13.69-14.15-20.57-21.19-1.06-1.07-2.1-2.18-3.09-3.31 2.09-1.95 4.04-4.05 6.09-6.04 1.24-1.24 2.47-2.49 3.72-3.73 7.37-7.43 14.82-14.77 22.1-22.28.07 0 .2 0 .27.01 8.27 8.21 16.17 16.81 24.47 25 .79-.82 1.58-1.64 2.39-2.46-7.48-7.6-15.07-15.1-22.61-22.65-18.23-18.08-36.15-36.49-54.52-54.4-18.06 18.21-36.26 36.28-54.37 54.44-8.64 8.61-17.24 17.25-25.81 25.92.47 1 .94 2.01 1.4 3.02.26-.1.78-.32 1.04-.42 9.51-9.26 18.57-18.98 27.85-28.47h.27c7.37 7.46 14.83 14.83 22.19 22.3 1.19 1.21 2.4 2.41 3.62 3.61 2.06 2.06 4.07 4.17 6.23 6.14-1.01 1.1-2.03 2.19-3.06 3.27-6.92 7.05-13.74 14.2-20.65 21.26-3.66-3.58-7.07-7.44-10.95-10.78-1.91 1.94-3.85 3.83-5.74 5.78 3.59 3.53 7.08 7.15 10.71 10.64-7.5 8.48-16.11 16.17-23.37 24.75h-.21c-5.6-5.89-11.54-11.79-17.42-17.53 1.18-1.67 3.04-2.89 3.68-4.91.82-2.28.11-4.94-1.61-6.59-3.37-3.41-6.76-6.78-10.16-10.16 1.18-1.78 3.27-2.91 4.12-4.86-1.52-.14-3.05-.7-4.55-.4-4.6 4.38-9.02 8.96-13.51 13.45-5.2-4.59-9.78-9.86-14.89-14.55 1.67-2.32 3.97-4.11 5.92-6.19 1.09-1.1 2.17-2.21 3.27-3.3 2.04-2.02 4.06-4.05 6.09-6.07 1.2-1.21 2.41-2.42 3.62-3.62 2.53-2.54 5.06-5.07 7.6-7.59 1.16-1.17 2.31-2.34 3.48-3.5 3.73-3.72 7.45-7.44 11.17-11.17 23.08-23.06 46.05-46.23 69.22-69.2-12.36-13.05-25.41-25.51-38.04-38.34-1.29-1.28-2.58-2.57-3.86-3.86-.82-.81-1.63-1.63-2.44-2.44-4.27-4.18-8.35-8.55-12.67-12.68 1.18-.44 2.73-2.45 3.87-.82C713.9 130.32 773.48 190 833.12 249.62c3.47-3.46 7.01-6.85 10.36-10.44A451906.97 451906.97 0 0 0 688.72 84.31c-8.23-8.45-16.97-16.51-24.81-25.27m42.84 74.8c-35.13 35.07-70.15 70.24-105.28 105.32 3.31 3.62 6.87 7.02 10.37 10.46 36.04-35.98 71.98-72.05 107.99-108.05l.17-.72c-3.31-3.28-6.56-6.63-9.92-9.87-1.47.39-2.2 1.95-3.33 2.86m-37.79 72.2c-12.7 13.44-26.13 26.18-38.67 39.75 2.83 2.83 5.72 5.61 8.48 8.51 3.32 3.59 2.96 9.56-.38 13.02 4.2 4.21 8.31 8.52 12.6 12.64l.76-.03c6.21-6.61 12.86-12.87 18.79-19.7-3.62-3.35-6.93-7.03-10.51-10.43 2.83-3.83 6.79-6.94 10.08-10.48 3.78 3.4 6.98 7.51 10.95 10.65 6.33-6.37 12.46-12.93 18.8-19.29l.03-.75c-8.9-9.22-18.15-18.1-27.05-27.33-1.71.43-2.53 2.39-3.88 3.44m76.08 23.94l.11.73c6.31 6.37 12.44 12.94 18.79 19.27 3.85-3.28 7.22-7.15 10.89-10.66 3.32 3.52 7.18 6.68 10.14 10.46-3.54 3.43-6.93 7-10.51 10.39 5.75 6.94 12.66 13.12 18.78 19.85 1.26.03 1.85-1.38 2.76-2.04 3.45-3.63 7.24-6.96 10.51-10.74-3.13-3.3-3.56-8.77-.76-12.4 2.55-3.3 5.76-6.04 8.7-8.99-.23-1.28-1.59-1.88-2.31-2.85-13.22-13.58-26.55-27.08-39.84-40.6-8.95 9.32-18.31 18.27-27.26 27.58z" fill="#fffffe"/></svg>