<svg xmlns="http://www.w3.org/2000/svg" viewBox="0 0 1500 600"><path d="M535.38 135.97c.66.65.66.65 0 0zm-165.99 14.06c.67.61.67.61 0 0zm181.89 22.48c1.18-.36 1.77.09 1.79 1.34l-1.77.64c-.01-.5-.02-1.49-.02-1.98zm59.74 61.48c.62.65.62.65 0 0zm-46.58 13.22c.66.62.66.62 0 0z" fill="#fff"/><g fill="#231f20"><path d="M501.34 12.96c24.6 34.33 49.22 68.65 73.82 102.98 8.44 11.51 16.35 23.41 25.24 34.57 17.28 24.2 34.63 48.34 51.9 72.55 1.38 2.09 3.59 3.41 5.03 5.45 28.54 39.68 57.14 79.31 85.69 118.98-14.1.02-28.18.01-42.27.01v-3.87c10.71.27 21.43.06 32.15.12-25.99-36.08-51.97-72.17-77.98-108.23-28.46 36.02-56.85 72.1-85.18 108.23 10.51 0 21.03.01 31.55-.01.03.94.1 2.81.13 3.74-14.14.03-28.27.03-42.41.01 19.7-24.96 39.25-50.04 59.06-74.91-2.12-.21-3.99-1.15-5.77-2.21-3.64 3.69-9.45 2.44-13.92 1.25-4.61 1.72-9.6.78-14.39 1.03-2.18.18-4.29-.26-6.09-1.51-3.8 2.57-8.6 1.12-12.87 1.5-2.73-.14-6.85.82-7.97-2.56-.72-3.2-.38-6.57.54-9.68-4.22-.13-8.89 1.08-12.66-1.39-2.69 1.97-6.07 1.34-9.16 1.58-2.91 2.49-5.01 5.76-7.56 8.59-18.21 21.42-36.13 43.12-55.22 63.77-4.98 5.64-11.39 9.91-18.46 12.46-13.42 4.96-27.89 6.06-42.08 5.99.01-.94.04-2.8.05-3.74 12.35.05 24.85-.82 36.72-4.44 6.8-2.1 13.36-5.46 18.31-10.67 8.72-9 16.82-18.58 25.04-28.02 35.15-40.88 69.42-82.5 103.95-123.89 14.87 20.82 29.75 41.62 44.67 62.4 3.15-3.99 6.3-7.99 9.44-11.99-17.75-24.83-35.57-49.61-53.28-74.47-40.97 49.23-81.6 98.77-123.53 147.19-5.48 6.21-10.88 12.49-16.66 18.42-3.81 4.06-9.12 6.19-14.37 7.65-9.64 2.64-19.7 3.14-29.64 3.25.09-2.24.18-4.48.26-6.71 9.94.07 20.02-.61 29.6-3.45 4.99-1.31 9.44-4.15 12.71-8.14 24.81-27.33 48.26-55.86 72.07-84.06 1.75-1.9 2.97-4.22 4.68-6.15 4.25-4.02 7.55-8.88 11.55-13.13-1.7-.72-4.14-1.29-4.4-3.49-.21-3.46-1-7.65 2.12-10.1-.92-3.83-1.71-8.49 1.13-11.71-.63-.62-1.87-1.87-2.5-2.5-1.96 4.59-8.47 4.38-11.57 1.2-1.19.63-2.27 1.74-3.72 1.62-4.7.04-9.4.17-14.09-.08-2.11-.25-3.43-2.46-3.25-4.46.05-2.75-.77-6.56 2.19-8.11 2.97-.91 6.19-.25 9.25-.47-1.37-.88-2.27-3-4.14-2.72-16.93.12-33.89-.3-50.81.22-.05 6.06.09 12.12-.01 18.17.25 5.66-8.23 5.9-11.04 2.36-2.13 4.24-8.55 4.19-11.49.87-1.16.62-2.18 1.77-3.6 1.68-4.75.11-9.53.23-14.27-.08-2.71-.42-3.5-3.5-3.25-5.83-.17-2.61-.05-6.64 3.32-7.02 4.67-.31 9.36-.09 14.04-.11 1.63-.1 2.84 1.14 4.08 2 3.23-2.35 8.47-2.63 11.01.89-.05-4.56-.05-9.13-.02-13.7.67 1.14 1.38 2.38 1.15 3.77.02 5.08-.15 10.16 0 15.24-.29 4.74 9.33 4.72 8.93-.08-.09-5.93.43-11.93-.3-17.82-2.11-2.91-6.18-.12-8.79-2.11 3.31-.82 6.72-.58 9.84.73.41-1.08.75-2.18 1.03-3.3.44-.01 1.32-.02 1.76-.03-.01-1.62-.01-3.24-.01-4.86-3.59-.04-7.18.14-10.76-.08-1.82-.01-3.69-1.39-3.78-3.3-.3-3.01-.13-6.05.57-8.99-4.54.04-9.5 1.05-13.46-1.82 1.32 3.83 2.61 7.97 1.2 11.98-2.16 3.45-7.35 2.59-10.33.71-1.3.55-2.52 1.44-3.97 1.45-5.29.19-10.58.07-15.85-.2.62 3.5 1.31 7.18.4 10.7-2.22 3.78-7.5 1.85-10.89 1.28 2.45 3.22 2.39 7.43 1.69 11.21-2.03 3.87-7.92 2.89-10.87.64-3.24 4.14-6.96 7.89-9.84 12.31 2.02.27 4.08.34 6.07.81 2.15 1.07 2.16 3.64 2.13 5.72-.12 1.98.34 4.39-1.3 5.9-1.63 1.49-4.07.9-6.07 1.17-.72 1.39-1.48 2.76-2.32 4.08-.18 2.79.55 7.33-3.24 7.92-5.65.18-11.38.53-16.98-.42-24.99 29.43-49.89 58.94-75.77 87.59-6.67 7.07-12.96 14.75-21.27 19.98-12.59 8.12-27.36 11.91-41.97 14.41-14.3 2.28-28.82 3.21-43.3 2.85.02-.93.04-2.79.06-3.72 19.52.32 39.23-1.16 58.16-6.18 13.05-3.49 25.93-9.33 35.17-19.47 20.66-21.77 39.98-44.77 59.57-67.5 57.47-67.38 114.07-135.51 170.57-203.71 27.83 38.81 55.61 77.66 83.5 116.42 3.2-3.89 6.4-7.77 9.62-11.65-30.73-42.96-61.52-85.88-92.32-128.79-30.01 36.35-60.12 72.61-90.33 108.8-41.89 50.04-83.72 100.15-126.68 149.29-8.61 9.73-17.14 19.54-26.31 28.76-7.2 7.3-17.09 10.99-26.76 13.75-17.43 4.64-35.6 5.86-53.57 5.71.11-2.22.2-4.44.28-6.66 14.21.26 28.47-.71 42.46-3.29 8.9-1.75 17.78-4.23 25.81-8.54 6.55-3.44 11.22-9.36 16.28-14.58 25.17-27.6 49.19-56.22 73.46-84.6.81-1.1 2.08-2.11 1.92-3.62.06-27.33.01-54.66.02-81.98.07-3.8-.47-7.74 1.03-11.35-3.51-2.15-3.74-6.88-2.36-10.36 1.07-2.12 3.55-2.75 5.75-2.63 11.98.04 23.97-.07 35.95.06 2.87-.17 5.37 2.44 5.15 5.3.38 2.97-.14 6.84-3.75 7.36 1.26 2.03 2.28 4.25 2 6.71-.21 11.96.32 23.9.25 35.85 40.14-47.78 79.97-95.82 119.7-143.94m-7.68 48.65c3.89.02 7.79.02 11.69 0-1.78-2.56-3.59-5.09-5.42-7.61-2.1 2.53-4.2 5.05-6.27 7.61m6.7 1.44c.22 3.33 3.02-1.57 0 0m-17.34 11.43c2.31.03 4.63.02 6.95-.08.69.8 1.34 1.64 2.01 2.47.04-.62.1-1.86.13-2.48 2.16.06 4.36.31 6.51-.07 2.97-1.52 1.73-5.58 1.75-8.28-.89-3.7-5.66-2.05-8.4-2.44-2.97 3.63-6.01 7.21-8.95 10.88m19.14-9.3c-.47 2.59-.56 5.37.1 7.94 2.16 3.07 6.37-.25 9.05 1.93-5.51 1.96-11.66.04-17.4 1.07-3.34 1.95-.83 6.51-2.12 9.46-.34.08-1.03.25-1.37.34.18-2.93.89-6.07-.18-8.9-2.3-1.98-5.65-.86-8.41-1.17-3.01 3.63-6.04 7.24-9 10.91 5.61-.12 11.25.28 16.85-.32-.03.65-.05 1.3-.11 1.94-2.3-.03-6.02-1.26-7.26 1.55-.54 2.3-.46 4.75-.08 7.07.96 2.76 4.49 2.05 6.75 1.87 2.95-1.01 2.06-4.72 2-7.1-1.54-2.83 1.19-2.48 2.63-2.07-.37 6.39-.39 12.83-.05 19.22 1.62 2.82 6.76 2.65 8.68.17.2-2.7.26-5.41.29-8.12.43.12 1.3.34 1.74.46l-.32.04c.62 3.06-1.69 9.2 3.03 9.73 2.79-.2 7.44 1.32 8.6-2.18.15-2.83 1.02-6.5-1.51-8.57-3.01-.19-6.04-.33-9.03.11-.02-.54-.07-1.62-.1-2.16 5.55 1.02 11.3.68 16.91.38 3.24-2.4 1.33-7.23 1.71-10.68l1.8.48c-1.22-1.04-2.43-2.07-3.71-3.03-1.63-4.96-5.69-8.7-8.53-13.01-.12 4.05.31 8.13-.26 12.15-.39 0-1.17.01-1.56.01.05-3.01.53-6.23-1.2-8.93l2.2.6c-.62-2.46-1.31-4.89-1.82-7.37-.99-2-2.47-3.71-3.71-5.56-1.61.34-3.65.1-4.61 1.74m-39.33 33.74c5.1.07 10.22.2 15.33-.02 1.51 0 2.6-1.56 2.55-2.99.06-2.28.43-4.77-.69-6.86-2.41-1.63-5.57-.67-8.3-.97-3 3.58-6.05 7.12-8.89 10.84m62.35-9.43c-.46 3.31 1.31 7.6-1.98 9.87 1.18.75 2.35 1.54 3.42 2.45.45-.07 1.34-.21 1.78-.27-.78 3.45-.08 7.08-1.3 10.45.83 2.47.81 5.06.67 7.64.72 0 2.16-.01 2.89-.01-.05 1.51-.09 3.02-.13 4.53 2.07-.32 5.12.4 6.06-2.14.29-2.3.31-4.66-.01-6.95-1.06-2.97-4.8-1.78-7.11-1.61-.13-.74-.85-1.98.16-2.39 3.78.16 7.56.25 11.34.19-2.28-3.14-4.46-6.36-6.78-9.47-.82-2.13-3.41-1.55-4.93-.63-.88-.67-2.86-.71-3-1.89 1.65-1.16 4.04.09 5.96-.21-2.3-3.22-4.52-6.5-7.04-9.56m-34.1 9.14c-1.49 3.1 3.33.05 0 0m-29.64 1.76c-2.79 3.36-5.49 6.8-8.49 9.97.19.55.56 1.66.75 2.21l-1.82.2c-3.49 2.82-6.35 6.41-8.64 10.26l-1.27-.08.02.5c2.24-.18 4.49-.02 6.73.11 1.2.79 2.48 1.47 3.72 2.21l-1.67.9c-.11 2.91-1.54 7.48 1.7 9.1 2.28.38 5.86.91 6.87-1.84.3-2.28.3-4.61.01-6.89-.99-2.77-4.37-1.74-6.53-1.8-.09-.89-.17-1.78-.25-2.67 1.11 3.6-6.21 1.27-1.75-.04 1.66-2.05.38-5.4.26-7.84.7-.15 1.41-.3 2.14-.37-.12 2.71-.11 5.42-.23 8.13 3.58 1.79 7.67.84 11.51 1.04-.01-1.29 0-2.58.01-3.86 2.49 0 4.99-.01 7.5-.05-.34-2.11.5-5.34-2.1-6.3-5.14-.34-10.33-.21-15.48.03-.07-.69-.08-1.39-.07-2.08 4.87-.14 9.8.34 14.65-.19 3.66-1.44.91-6.24 2.3-8.85 2.43 1.99-.48 6.91 2.66 8.83 5.01.45 10.08.28 15.1.12 2.55-.12 2.53-3.23 2.49-5.12.01-2.03.26-5.43-2.58-5.54-5.19.07-10.62-.83-15.65.65l-1.39-1.39c-.62.54-1.24 1.07-1.86 1.61-2.6-1.64-5.76-.81-8.64-.96m54.87-.16c.55.66.55.66 0 0m.77 2.76c-.49 5.53-.11 11.1-.16 16.64 2.98-.01 5.96-.01 8.94.01-.04-5.25.13-10.49-.03-15.73.05-1.21-.94-2.06-1.45-3.05-2.4.29-6.39-1-7.3 2.13m-177.9 1.27c-2.51 2.08-2.25 8.43 1.83 8.43 12.01.14 24.03.05 36.05.04 5.63.96 5.59-10.03-.09-8.97-10.98-.06-21.97.04-32.96-.03-1.61.09-3.33-.18-4.83.53m152.4 7.6c.58-.02 1.74-.05 2.32-.06 1.1-1.99-3.72-1.96-2.32.06m-20.64-.72c-1.11 1.48 2.24 3.81 2.92 1.8-.06-1.27-1.76-2.42-2.92-1.8m29.98.01c1.37 1.01 2.68 2.09 3.95 3.24.66-.61 1.34-1.21 2.02-1.8-1.88-.71-3.93-3.07-5.97-1.44m-18.4 1.21c-1.21 2.26 3.16 2.37 2 .05-.5-.02-1.5-.04-2-.05m30.05.26l2.2.43c-.61.36-1.22.71-1.82 1.06-1.86-.67-4.05-1.03-5.88-.14-2.03 1.1-1.19 3.76-1.61 5.62 3.12.05 6.25.05 9.38-.01-.29-1.3-.86-3.88-1.15-5.17.49.14 1.46.42 1.94.56.06-1.2.12-2.41.19-3.61-.81.31-2.44.94-3.25 1.26m24.03-.26c-1.16 2.23 3.26 2.35 2.01.05-.5-.01-1.51-.04-2.01-.05m2.2 3.66c.12 2.49-1.01 6.05 1.57 7.61 2.6.7 5.36.28 8.03.33-.43-4.42-3.84-7.66-6.4-11.01-1.57.19-3.35 1.26-3.2 3.07m-65.3 3.58c3.09.04 6.17.04 9.26-.01-.31-2.11.41-4.95-1.89-6.17-1.91-.3-3.89-.34-5.76.11-2.14 1.27-1.26 4.05-1.61 6.07m10.99-.01c6.46.05 12.93.08 19.39-.01-.4-2.07.61-5.3-1.94-6.28-4.94-.34-9.92-.24-14.86-.07-3.17.23-2.28 4.23-2.59 6.36m-144.74 5.96c5.35.48 10.75.48 16.11.16 3.53-1.49 1.94-6.42 1.83-9.38-5.2-.64-10.53-.37-15.77-.18-3.63 1.48-1.69 6.41-2.17 9.4m19.93-9.55c-.43 2.92-.27 5.89-.08 8.83l-1.64.38-.03.39c7.07-.05 14.25.99 21.28-.29-.38-2.94 1.41-7.78-2.19-9.17-5.77-.37-11.56-.02-17.34-.14m105.34 4.73c.24.49.71 1.46.95 1.94 9.02.21 18.05.01 27.08.1 1.48-.29 4.23.75 3.82-2.07-10.62-.1-21.24-.16-31.85.03m33.15-.01c.22.48.66 1.44.89 1.92 8.99.28 17.99.02 26.99.13 1.5-.31 4.35.81 3.95-2.06-10.61-.12-21.23-.16-31.83.01m51.1 2.48c.5.6.5.6 0 0m-81.63 1.04c-.04 13.96-.01 27.92-.01 41.88 9.04 0 18.08.01 27.12 0-.01-13.96 0-27.91 0-41.87-9.04-.01-18.07.01-27.11-.01m33 0c-.03 13.96-.01 27.92-.01 41.89 9.04-.01 18.08.01 27.12-.02v-41.86c-9.04-.01-18.08.01-27.11-.01m-68.75 11.72c5.05-.05 10.12.29 15.16-.15 3.16-1.19 1.9-5.32 2.01-7.91-.35-4.06-5.45-2.48-8.16-2.8-3.01 3.61-6.04 7.21-9.01 10.86m28.44-11.16c-1.87 2.92 3.3.41 0 0m1.52 3.1c-.18 5.7-.21 11.42.01 17.11.03 2.53 2.85 2.72 4.72 2.96.05-7.75.11-15.5-.04-23.24-1.81.38-4.78.63-4.69 3.17m33.9-2.75V136h3.87c0-3.64.01-7.27-.02-10.91-.96.01-2.89.04-3.85.06m33.02-.15c-.03 3.72-.03 7.43-.02 11.14 2.1-.33 5.17.43 6.2-2.04.3-2.35.33-4.75-.01-7.09-.88-2.6-4.1-1.67-6.17-2.01m10.45.29c-2.25 1.03-1.65 3.74-1.75 5.72.15 4.97-.23 9.96.21 14.91 1.82 3.23 9.36 2.72 8.8-1.89-.05-5.67.27-11.36-.19-17.01-1.17-2.78-4.73-1.89-7.07-1.73m10.3-.93c-.3 3.19-.48 6.42-.12 9.61 1.64 3.06 5.85 2.01 8.48.98-2.67-3.61-4.79-7.77-8.36-10.59m-209.64 4.66c-.63 3.08.63 6.33-.38 9.33l-.06.67.05.63c1.44 3.36-1.28 7.79 1.38 10.67 3.55 1.17 7.51.36 11.21.49 2.31-.29 6.25.57 6.34-2.85-.01-2.54.93-6.12-1.65-7.73-4.85-.55-9.76-.12-14.63-.12-1.14.08-1.64-1.71-.5-2.08 8.57-.08 17.28.55 25.86-.29 1.22.93 3.12 5.3 4.1 1.88l-1.91-2.31c3 .86 6.22 1.22 9.28.4.51-3.29.37-6.65.13-9.95-3.36-1.05-6.95-.18-10.4-.47.59.55 1.19 1.11 1.79 1.66-.21 2.43-.63 4.98.32 7.32-1.23.92-3.33.04-2-2-.09-2.29.93-6.05-2.07-6.88-7.24-.36-14.49-.02-21.73-.16-1.77.09-4.4-.39-5.13 1.79m118.14 8.46c-4.93-.33-9.89-.4-14.81-.07-2.17.29-2.63 2.74-2.51 4.55.04 2.12-.43 5.45 2.3 6.1 4.66.38 9.38.23 14.06.1 1.6.12 3.01-1.45 2.87-3.02-.03-3.59.24-7.13.99-10.64-.99.97-1.94 1.98-2.9 2.98m89.94-2.24c-1.56 3.01 3.38.2 0 0m-12.58.73c.66.65.66.65 0 0m-113.75 12.26c5.12-.07 10.25.24 15.36-.13 3.52-.81 2.44-5.39 2.41-8.04-.62-4.08-5.72-2.49-8.56-2.86-3.11 3.65-6.18 7.32-9.21 11.03m18.6-10.98c.54.59.54.59 0 0m88.54-.12c-.03 3.74-.03 7.49-.01 11.23 1.91-.19 3.98.13 5.77-.74 1.88-2.34 1.05-5.68.89-8.45-1.12-2.62-4.44-1.68-6.65-2.04m21.54.33c-2.9.75-2.12 4.25-2.22 6.47-.26 1.84.69 4.29 2.87 4.24 2.68-.07 6.07.92 8.22-1.12 1.05-2.46.6-5.35.37-7.96-1.92-3.02-6.26-1.7-9.24-1.63m-54.56-.2v10.98c.97.01 2.9.01 3.87.02v-11.01c-.97 0-2.9.01-3.87.01m-137.41 2.03c.13 3.36 3.03-1.47 0 0m2.85.89c-1.9 2.29-1.05 5.75-.77 8.47 1.8 2.89 8.93 2.69 8.7-1.62-.17-2.46 1.01-6.53-2.18-7.44-1.88-.05-4.13-.61-5.75.59m10.4 1.62c-.15 6.04-.22 12.11.04 18.15.48 2.63 3.77 1.94 5.68 2.41.84-1.33 2.17-2.58 1.93-4.31.05-6.15.01-12.31-.02-18.46-2.54.23-6.88-1.31-7.63 2.21m189.63-2.14c.07 2.27-.21 4.61.38 6.82 1.04 2.26 3.94 1.58 5.93 1.92-2-2.99-4.09-5.92-6.31-8.74m-100.91 7.41c.15.61.46 1.82.61 2.42-2.5.27-7.13-1.04-7.71 2.53.15 2.7-1.3 6.89 1.88 8.25 3.82.51 7.69.13 11.53.22v-11c-1.86.01-3.73.02-5.58.05.22-.68.66-2.05.87-2.73-.4.06-1.2.2-1.6.26m75.62-.93c.25.84.73 2.54.97 3.38-2.58.26-6.05-.93-7.87 1.55-.2 2.88-1.27 6.7 1.03 8.95 5.18.93 10.63.52 15.89.25 3.19-1.7 1.74-6.12 1.71-9.08-2.36-2.96-6.72-1.28-9.97-1.62-.26-1.32-.84-2.47-1.76-3.43m10.27 1.84c.26 1.2 1.96 2.66 3.2 2.03.54-1.4-2.43-3.95-3.2-2.03m-186.93 2.29c.58.57.58.57 0 0m10.12-.24c.67.61.67.61 0 0m42.18 10.31c5.12.17 10.28.37 15.4 0 3.59-.9 2.27-5.61 2.3-8.32-.86-3.84-5.81-2.11-8.61-2.59-3.1 3.58-6.15 7.2-9.09 10.91m20.49-10.31c-1.72 1.04-1.24 3.26-1.37 4.94.14 1.72-.36 4.01 1.43 5.04 2.66 1.08 7.91 1.02 7.62-3.03-.14-2.38.88-5.92-1.83-7.19-1.9-.45-4.06-.6-5.85.24m63.7-.19c-.02 3.44-.02 6.88.01 10.32.96.12 2.87.35 3.83.47.04-3.76.04-7.51 0-11.26-.96.12-2.88.35-3.84.47m55.24.05c-.28.26-.85.77-1.13 1.03-.25 2.98-1.87 8.34 2.03 9.45 5.04.14 10.18.48 15.19-.23 2.5-1.8 1.38-5.44 1.44-8.07-.07-2.35-2.8-2.68-4.6-2.58-4.3.15-8.69-.43-12.93.4m-209.73 2.56c-2.13.99-1.42 3.67-1.58 5.54-.05 1.81-.11 4.7 2.3 4.92 2.3.05 5.92.94 6.96-1.85.32-2.36.32-4.77-.02-7.12-1.42-2.72-5.22-1.92-7.66-1.49m10.84-.23c-1.65 1.47-1.21 3.85-1.28 5.81-.04 1.7.17 4.06 2.27 4.43 4.92.29 9.89.3 14.81 0 2.48-.52 2.24-3.46 2.27-5.38.01-1.86.11-4.72-2.24-5.19-5.27-.31-10.59-.27-15.83.33m217.7-.6c-.03 2.41-.27 4.87.17 7.27 1.35 2.14 4.21 1.39 6.31 1.75-2.06-3.08-4.2-6.1-6.48-9.02m-21.91 8.34c-.3 1.63 2.04 2.69 3.39 2.97 1.96-1.18-2.09-3.5-3.39-2.97m-19.17 1.03c.01 1.83.01 3.66.03 5.49.47.01 1.41.03 1.87.05-.01 1.36-.01 2.74-.01 4.11-.69-.01-2.08-.03-2.77-.03l-2.12 2.44c1.15.82 2.28 1.67 3.4 2.54 3.13-2.59 8.13-2.51 11.01.45.42-4.81-1.19-10.12 1.34-14.52-4.25.12-8.57.44-12.75-.53M350 162.3c.6.61.6.61 0 0m20.27-.15c.24 3.32 3.01-1.6 0 0m125.46-.75c0 1.7.02 3.4.03 5.11.96 0 2.89.01 3.86.01-.01-1.61-.01-3.22 0-4.82-.97-.08-2.92-.23-3.89-.3m57.03 1.59c-.6 2.95-1.67 7.58 1.32 9.5 3.56.54 7.18.13 10.76.35-.79-3.66-.88-7.47.08-11.1-3.97.52-8.76-1.23-12.16 1.25m14.33-.86c-2.48 1.28-1.6 4.59-1.72 6.86-.39 2.31 2.09 4.54 4.3 3.43 2.72-1.37 1.48-4.98 1.7-7.42.34-2.2-2.39-4.08-4.28-2.87m4.84-.41c.88 3.65.64 7.44.2 11.13.97-.03 2.91-.1 3.88-.13 1.61-1.95 3.22-3.91 4.85-5.86-1.23-1.7-2.45-3.4-3.67-5.1-1.76-.01-3.52-.02-5.26-.04m-29.73 1.33c-1.22.91-.83 2.59-.97 3.88.11 5.27-.19 10.55.16 15.8.71 3 4.49 2.12 6.75 2.05 2.57-.77 2.05-3.76 2.13-5.82-.17-4.98.26-9.99-.23-14.96-1.66-2.47-5.57-2.24-7.84-.95m-202.1.94c.55.61.55.61 0 0m20.43-.04c-1.24 2.26 3.2 2.27 1.98.01-.5 0-1.49-.01-1.98-.01m-18.53.89c-1.82 1.07-1.29 3.38-1.43 5.14-.03 1.9-.12 5.03 2.48 5.16 5.3.22 10.64.23 15.93-.26 2.14-1.58 1.27-4.62 1.4-6.89.26-1.98-1.32-3.89-3.39-3.58-4.98.12-10.1-.56-14.99.43m21.96-.02c-1.98 1.81-1.29 4.8-1.3 7.19-.12 1.89 1.49 3.51 3.42 3.18 3.39-3.32 6.17-7.22 9.28-10.79-3.79.15-7.68-.5-11.4.42m37.45 7.79c2.52.18 5.79 1.54 7.86-.55 1.33-2.74.3-6.02.38-8.92-3.16 2.77-5.72 6.12-8.24 9.47m63.52-3.18c10.69.33 21.41.3 32.1.02l-.96-1.78c-8.99-.43-18.01-.03-27-.19-1.55.22-4.01-.65-4.14 1.95m33.28-1.83l.76 1.86c10.23.38 20.49.08 30.74.14l-.16-2.11c-10.44.08-20.89-.13-31.34.11m21.1 3.57c.69 1.36 4.7 1.44 5.4.02-1.63-.71-3.77-.68-5.4-.02m31.97 1.34c0 .49.01 1.48.02 1.98l1.77-.64c-.02-1.25-.61-1.7-1.79-1.34M361.1 173.6c-1.45 3.02 3.34.03 0 0m191.14 2.86c-.23 2.65-1.01 5.97.82 8.22 2.28 1.32 5.33.88 7.58-.36.29 2.36 2.38 1.29 3.95 1 4.2-2.58 6.54-7.25 9.86-10.79-3.12.02-6.25-.23-9.35.13-4.21 1.96.07 7.91-3.51 10.54-.08-3.27-2.33-8.42 1.44-10.4l.33-.95-1.21.32c-3.05 1.99-8.01-1.75-9.91 2.29m-212.11-1.23c.6.61.6.61 0 0m170.01-.22l-.96 1.16c-.22 2.87-1.59 7.7 1.88 9.06 4.95.27 9.95.26 14.91 0 3.28-1.18 2.01-5.54 2.04-8.21-.33-2.94-3.84-2.53-5.98-2.54-3.95.25-8.07-.55-11.89.53m21.79.12c-2.45.87-2.09 3.81-2.1 5.89-.01 1.76.06 4.17 2.19 4.72 2.22.13 5.69.91 6.7-1.8.29-2.31.27-4.66.03-6.97-1.08-2.77-4.52-1.99-6.82-1.84m-182.8 1.24c.29 3.33 2.89-1.72 0 0m43.13 7.06c-1.05 1.78 1.49 2.42 2.77 2.47 1.92.03 4.63.33 5.42-1.96.35-3.01.62-6.3-1.13-8.96-2.41 2.77-4.92 5.46-7.06 8.45m-51.14-6.28c-.29.22-.87.67-1.16.89 0 2.97-1.3 6.85 1.03 9.17 2.53.54 6.15 1.26 7.89-1.23.23-2.72.87-5.86-.5-8.35-2.04-1.45-4.98-1.07-7.26-.48m10.91-.41c-2.08 2.55-.96 6.14-.77 9.11-.37.16-1.12.49-1.49.65-.63.74-1.25 1.48-1.88 2.21.9.82 1.8 1.66 2.69 2.5.57-1.3.99-2.68 1.71-3.91 1.32-.69 2.97-.05 4.31-.69 3.1-3.28 5.84-6.88 8.73-10.33-4.42.09-8.92-.29-13.3.46m71.92 5.39c-2.22.44-2.3 3.1-2.25 4.91.02 2.02-.28 4.99 2.23 5.67 4.69.33 9.41.21 14.11.09 2.02.15 3.2-1.97 2.97-3.75-.11-2.32.79-5.85-2.01-6.9-5-.28-10.05-.27-15.05-.02m20.14.77c-2.2 2.31-1.43 6.1-.9 8.94 1.84 2.27 6.12 2.17 8.15.21.91-2.52.66-5.35.24-7.95-1.58-2.46-5.12-1.98-7.49-1.2m106.35 2.06c-.75 1.27 1.14 3.14 2.43 2.48.61-1.2-1.22-3.03-2.43-2.48M544 187.2c-2.24 1.01-1.87 3.81-1.92 5.82.12 1.64-.1 4.17 2.01 4.65 2.3.29 5.68.96 6.91-1.64.43-2.32.4-4.73.03-7.04-1.07-2.8-4.72-2.04-7.03-1.79m9.39 1.7c-.23 3.12-.81 6.68 1.49 9.22 3.16-3.65 6.2-7.4 9.3-11.1-3.46.61-8.58-1.68-10.79 1.88m-213.27-.67c.58.62.58.62 0 0m255.02 12.2c1.02-1.34 1.93-2.76 2.96-4.09l.19 1.25c1.49-.06 2.99-.1 4.5-.13-2.22-3.09-4.44-6.18-6.6-9.29.07 4.12-.04 8.24-1.05 12.26m-243.34-8.74c1.19.53 2.6-1.28 1.88-2.32-1.14-.46-2.68 1.29-1.88 2.32m-11.77-.77c-.6 3.1-.46 6.35.5 9.37 1.55-.02 3.11-.03 4.68-.04 1.33-1.68 3.04-3.16 3.9-5.16.22-1.97.24-4.74-2.16-5.34-2.31-.18-5.14-.7-6.92 1.17m244.16 11.17c.24 2.37-.64 5.49 1.71 7.07 2.59.11 6.24 1.21 8.03-1.3.75-5.88.13-11.86.3-17.78-3.42 3.95-6.68 8.02-10.04 12.01m-34.58-.89c.53-.51 1.58-1.53 2.1-2.04.15.7.46 2.11.61 2.81l-.17-3.63 1.91 1.54c-.73-1.19-1.37-2.43-1.96-3.68-1.14 1.5-2.06 3.15-2.49 5m-170.56-2.22c-3.01 3.6-6.11 7.12-8.99 10.82 5.24.01 10.51.33 15.74-.12 3.15-1.56 1.76-5.87 1.79-8.68-1.46-3.29-5.76-1.59-8.54-2.02m163.16.32c-2.58 1.6-1.39 5.21-1.55 7.73-.21 2.55 3.85 4.05 5.27 1.94 1.89-2.21 4.78-4.62 3.51-7.88-1.07-2.95-4.85-2.23-7.23-1.79m54.28 2.1c.02 2.69-1.18 6.7 1.77 8.27 4.43.52 8.93-.13 13.4 0-1.08-1.38-2.13-2.78-3.17-4.19-.17.56-.52 1.66-.7 2.21-.31-.03-.92-.08-1.23-.1.83-3.32-.54-6.21-2.62-8.65-2.51.3-6.71-.95-7.45 2.46m-256.98 5.44c1.62-1.74 3.15-3.56 4.59-5.46-3.7-.73-4.7 2.6-4.59 5.46m238.1 3.26c2.37.02 4.74.03 7.13.07-1.24-1.93-1.75-4.17-1.98-6.42-1.71 2.13-3.44 4.24-5.15 6.35m17.42-1.58c-2.03.55-1.19 3.54.78 3.21 1.73-.45.73-3.39-.78-3.21M368.6 211.5c-3.1 3.25-5.84 6.85-8.72 10.31 5.38.42 10.81.53 16.19.11 3.23-1.52 1.69-6.03 1.76-8.85-1.78-3.11-6.32-1.67-9.23-1.57m9.61-.27c.6.59.6.59 0 0m197.45 2.87c-.07 2.65-.97 6.53 2.5 7.41 10.22.33 20.47-.03 30.7.13 2.14.29 4.3.43 6.42-.25-.12.45-.35 1.34-.47 1.79 1.83-.35 3.62-.93 5.39-1.55-.91-1.29-1.89-2.51-2.71-3.85-.16 1.7-.71 3.33-2.06 4.43-.13-2.27.19-4.53-.03-6.79-.7-1.49-1.71-2.79-2.61-4.15-4.83.09-9.69-.28-14.5.16-3.24 1.35-1.8 5.56-1.63 8.19l-2.33.01c.16-2.68 1.68-6.92-1.61-8.22-4.57-.36-9.18-.14-13.75-.13-1.69-.24-3.41 1.04-3.31 2.82m-8.08 8.1c1.7-.13 3.49.08 5.15-.46 2.48-1.65 1.18-5.13 1.55-7.58-2.3 2.63-4.54 5.31-6.7 8.04m6.34.31c.35.27 1.05.82 1.4 1.09-2.78.64-5.56.47-8.18-.63-1.12 1.06-2.1 2.25-3.16 3.37-.94 2.91.06 6.29-2.01 8.9 1.47-.33 3.26-.52 3.84-2.18.31-2.34.17-4.72.26-7.07l2.04-.32c-.81 1.66.12 4.44-.02 6.51-.05 3.44 4.39 3.2 6.72 2.54 2.82-2.28 1.26-6.53 1.15-9.59l2.81.4-.73-.91c.86-1.6-3.81-4.04-4.12-2.11m5.7.61c-.07 14 .15 28 0 42 9.04-.01 18.09.04 27.14-.02-.01-13.99-.02-27.98 0-41.96-9.05-.03-18.09-.01-27.14-.02m28 1.27c.36 7.27-.12 14.56.28 21.83l1.37-2.33c.64-6.61-.01-13.3.12-19.92l1.72 1.36c.23-.65.67-1.95.89-2.6-1.47.54-2.93 1.1-4.38 1.66m5.78-.11c-2.58 1.6-1.58 5.17-1.49 7.68 1.4 2.9 6.14 2.52 8.23.63.52.52 1.05 1.04 1.59 1.56.91-.56 1.83-1.11 2.76-1.65l-.31 1.42c1.57-.03 3.14-.05 4.71-.08-2.02-2.79-3.96-5.65-6.19-8.28-.06 2-.05 4 .04 6.01-.72-.03-2.19.8-2.39-.27.2-1.74.37-3.48.26-5.23.6-.71 1.22-1.42 1.85-2.11-2.97-.7-6.06.2-9.06.32m-55.71 10.47c1.09-.24 2.17-.56 3.22-.95 2.15-.78 1.04-3.78 1.56-5.36-1.85 1.89-3.6 3.92-4.78 6.31m7.81 2.67c1.07-.47 2.68-1.71 2.12-3.05-1.47-.95-4.2 2.45-2.12 3.05m45.52-3.43c.62.65.62.65 0 0m-35.01 1.31c-1.39 3.11 3.37 0 0 0m37.15-.02c-1.8.88-1.72 3.04-1.71 4.74.08 1.94-.4 4.49 1.69 5.6 4.9.52 9.88.25 14.81.17 2 .15 2.89-2.13 2.81-3.79-.07-2.3.62-5.46-1.83-6.8-5.23-.3-10.56-.44-15.77.08m-55.85 1.09c-1.96.59-2.02 2.87-1.98 4.54.09 2-.49 4.81 1.74 5.9 2.19.44 5.2.93 6.81-1.05.89-2.41.57-5.15.28-7.66-1.08-2.64-4.61-1.95-6.85-1.73m9.34 3.54c.05 5.68-.3 11.39.2 17.05 1.14 2.78 4.67 1.75 6.96 1.73 1.68 1.14 3.49 2.1 5.43 2.79a52.987 52.987 0 0 0-3.75-4.55c.17-6.28.3-12.59-.01-18.87-1.77-3.22-9.45-2.82-8.83 1.85m-19.93 7.28c2.35-.32 6.12.79 7.12-2.19.28-2.17.15-4.37.17-6.55-2.48 2.88-4.9 5.79-7.29 8.74m85.17-9.01c.05 2.17-.27 4.41.3 6.54 1.06 2.11 3.78 1.48 5.69 1.82-1.9-2.85-3.9-5.64-5.99-8.36m-54.76 7.52c-.88 1.2-.64 1.92.75 2.16.86-1.19.61-1.91-.75-2.16m33.02-1.01c-.25.48-.74 1.44-.99 1.91 2.12 1.25 4.3 2.46 6.84 1.42-2.08-.88-4.12-1.86-5.85-3.33m-55.87 1.62c.59.54.59.54 0 0m76.03-.31c.32 3.3 2.93-1.73 0 0m-65.87 1.21c.66.62.66.62 0 0m57.08.06c-.5 2.07 3.85 2.4 2.92.06-.98-.56-1.95-.58-2.92-.06m-74.05 1.38c-2.23.82-1.82 3.48-1.9 5.37-.05 1.94-.06 4.8 2.42 5.19 4.95.25 9.98.41 14.93-.11 2.77-1.2 1.85-4.76 1.95-7.15.14-1.76-1.13-3.56-3-3.5-4.79-.07-9.65-.36-14.4.2m60.33-1.17c-.08 3.93-.08 7.87 0 11.8 1.38-.66 3.41-.7 3.98-2.42.39-2.28.35-4.64.03-6.92-.55-1.73-2.63-1.83-4.01-2.46m17.29 1.68c-.93 2.31-.36 4.9-.25 7.31-1.07 1.75-1.49 3.74-1.63 5.77 1.15-.83 2.26-1.68 3.43-2.49l-2.6-1.06c1.6-.02 3.2-.01 4.82.02 2.84-3.59 5.69-7.18 8.49-10.81-2.82-.02-5.64-.07-8.45-.03-1.35.07-3.04-.09-3.81 1.29m-11.7 2.9c.03 5.63-.21 11.28.12 16.9.51 2.51 3.61 1.98 5.5 2.33 1.11-1.45 2.23-2.89 3.36-4.33-.21-5.64.48-11.37-.36-16.96-2.01-2.89-9.2-2.35-8.62 2.06m-34.57 7.1c.44-3.57.71-7.3-.58-10.74-1.38 3.35-2.2 7.87.58 10.74m-42.32.26c2.4-.32 5.65.75 7.36-1.5.76-2.47.27-5.13.35-7.66-2.67 2.97-5.22 6.04-7.71 9.16m28.73-1.19c-.46 1.38.01 1.89 1.42 1.51.46-1.4-.01-1.9-1.42-1.51m45.75 1.19c-1.35 3.11 3.38-.11 0 0m-51.74 1.77c-1.88 1.23-1.27 3.86-1.41 5.77-.22 1.98.63 4.77 3.14 4.5 5.09-.07 10.26.49 15.3-.4.27-2.96.75-5.95.55-8.91-1.84-2.37-5.18-1.29-7.74-1.55-3.26.25-6.75-.57-9.84.59m48.6-1.06c-.06 1.54-.08 3.08-.08 4.63 2.57.55 1.46 3.12 1.71 4.9.44-.16 1.32-.48 1.76-.63-.4-3.24.74-7.7-3.39-8.9m-30.43 6.28l.17 2.1c10.44-.08 20.87.11 31.31-.1l-.7-1.89c-10.25-.34-20.52-.08-30.78-.11m.98 3.28c2.49 2.8 6.35 1.57 9.62 1.82 3.42-.27 7.46 1 10.15-1.81-6.58-.33-13.19-.31-19.77-.01m20.23.01c3.26 3.14 8.2 1.57 12.18 1.3-3.35-2.87-8.19-1.07-12.18-1.3z"/><path d="M494.3 86.45c5.57.17 11.38 1.11 16.8-.63.06.39.17 1.17.22 1.56 1.1-.39 2.2-.81 3.29-1.25 2.86.23 5.83-.13 8.56.97-3.46 1.74-7.44.85-11.15 1-2.53.2-5.84-.74-7.52 1.77-.36 2.99-.14 6 .19 8.99l-2.28-.46c.09-2.82.18-5.64.3-8.46.48-.62 1.43-1.87 1.91-2.49-1.39.57-2.71 1.2-4.07 1.82v-1.42c-2.1.21-4.19.47-6.27.77-.02-.72-.01-1.45.02-2.17zm-23.93 40.8h21.26c-.01 5.38.01 10.76-.02 16.13-7.08-.01-14.15-.01-21.22 0-.03-5.37-.01-10.75-.02-16.13zm33.14-.01c7.08.02 14.16.01 21.24.01-.01 5.38.02 10.76-.03 16.14-7.07-.03-14.15-.01-21.22-.02 0-5.37-.01-10.75.01-16.13zm-33.16 18.79c7.1-.05 14.2-.04 21.29 0-.03 5.31-.03 10.63 0 15.94-7.09.05-14.19.04-21.28.01.02-5.32.03-10.63-.01-15.95zm33.15-.03c7.09.01 14.17-.01 21.26.01-.02 5.33-.02 10.65 0 15.98-7.09.02-14.17 0-21.26.01v-16zm-23.97 41.9c-.26-4.83 6.06-5.35 9.34-3.75 2.82 1.77 1.65 5.52 1.84 8.27 3.3-1.88 7.32-1.5 10.92-.98 4.08 2.38 2.43 8.2 1.65 11.99 3.11.2 7.93-1.27 9.4 2.55.33 3.35 1.55 8.71-2.47 10.3-4.72.5-9.51.15-14.25.2-1.56.1-2.83-.92-4.15-1.56-1.46.9-3 1.82-4.79 1.58-4.5-.09-9.02.27-13.49-.22-3.15-.91-2.89-4.68-2.82-7.27-.16-2.12.43-4.76 2.77-5.42 2.4-.45 4.87-.16 7.31-.15-2.35-4.84-.96-10.38-1.26-15.54m2.6-2.86c-.27.26-.82.78-1.1 1.04-.76 4.9-.55 10.05-.12 14.99 2.02 2.77 9.34 2.45 8.7-2.11.02-4 .16-8.01-.11-12-.79-3.13-5.01-2.6-7.37-1.92m9.93 8.12c-1.35 2.28-.85 5.16-.64 7.69.64 3.02 4.37 2.16 6.62 2.32 2.08.26 4.99-.44 4.91-3.05-.09-2.55 1.03-6.48-2.02-7.72-2.91-.08-6.3-.88-8.87.76m.56 11.26c-.37-1.1-1.11-1.8-2.22-2.1-2.41.55 1.57 4.09 2.22 2.1m-19.44.57c-1.64 1.14-1.26 3.31-1.36 5.03 0 1.9-.14 4.75 2.3 5.21 4.94.26 9.93.27 14.87-.01 2.7-.79 2.09-4.12 2.17-6.27.24-2.02-.75-4.7-3.23-4.41-4.9.13-9.97-.6-14.75.45m20.92-.13c-2.3 1.59-1.33 4.79-1.47 7.16-.23 1.96 1.5 3.61 3.46 3.33 4.61 0 9.26.25 13.86-.17 2.44-1 1.86-4.03 1.96-6.12.12-1.89-.5-4.63-2.92-4.49-4.95.01-9.99-.47-14.89.29zm-48.6 1.78c2.8-.49 7.23-1.01 8.4 2.41.45 4.67.26 9.41.13 14.1-.03 2.04-2.05 3.57-4.01 3.48-2.46.19-6.01.3-6.87-2.66-.63-3.97-.16-8.02-.29-12.02-.12-2.07.4-4.57 2.64-5.31m-.44 1.56c-2.06 2.72-.67 6.55-1.08 9.73.28 2.47-.95 6.21 2.03 7.42 2.24.17 5.41.89 6.76-1.49.48-4.28.2-8.62.2-12.92.39-4.13-5.4-4.15-7.91-2.74zm137.31 18.05c7.09.01 14.17 0 21.26 0-.02 5.34.01 10.67-.03 16.01-7.07-.02-14.14-.02-21.2 0-.04-5.34-.02-10.67-.03-16.01zm-196.21 7.52c1-3.41 5.24-2.95 8.01-2.66 2.38.31 2.92 2.88 3.29 4.82 3.57-1.47 7.97-1.68 11.54-.25 2.7 2.9 1.55 7.64.75 11.17 2.37.2 5.4 1.2 5.3 4.15.01 2.9.94 6.98-2.04 8.76-3.54.96-7.32.41-10.96.44-1.45.11-2.48-1.03-3.65-1.65-1.36.84-2.74 1.87-4.44 1.69-5.33-.03-10.67.18-15.99-.12-3.48-.46-3.2-4.59-3.15-7.17-.19-2.24.4-5.22 3.02-5.68 3.19-.32 6.4-.12 9.6-.12-2.47-4-1.28-8.94-1.28-13.38m1.72-.84c-1.48 3.4-.62 7.37-.64 11 .37 3.21 4.45 2.52 6.75 2.34 3.07-1.01 1.91-4.89 2.18-7.31-.21-2.28.69-5.75-2.12-6.73-2.04-.11-4.41-.6-6.17.7m11.55 3.38c-4.28 2.2 1.27 8.76-3.36 10.43.55.65 1.64 1.95 2.18 2.6.48-.93.97-1.85 1.51-2.73 2.97-.16 7.75 1.76 9.46-1.65-.05-2.81 1.33-6.96-1.56-8.7-2.7-.44-5.56-.51-8.23.05m-21.25 12.08c-2.61.5-2.21 3.65-2.23 5.64.01 1.74-.17 4.36 2.01 4.89 5.65.4 11.36.25 17.03.1 2.53-.08 2.77-3.14 2.69-5.06.03-2.06.11-5.39-2.63-5.61-5.62-.16-11.26-.24-16.87.04m22.35.3c-2.45 1.9-1.22 5.6-1.27 8.3.79 2.94 4.46 1.94 6.71 2.18 2.72-.22 7.72 1 7.98-3.03-.07-2.54 1.04-6.79-2.21-7.75-3.7-.14-7.62-.58-11.21.3zm181.82-3.66c7.1-.04 14.2-.06 21.3 0-.05 5.32-.03 10.64-.01 15.95-7.09.03-14.19.03-21.28.01.02-5.33.03-10.65-.01-15.96zm-144.13 12.96c.74-4.52 6.45-3.28 9.74-3.33 2.97-.35 4.4 2.45 4.59 4.97 5.87-2.01 12.32-.71 18.42-.89 4.16.99 2.97 6.24 2.96 9.39.07 2.46-2.54 3.29-4.39 3.94.6 2.96.85 6.03.45 9.05-.42 1.72-2.19 2.88-3.91 2.82-4.19-.01-8.65.79-12.49-1.28-3.94 1.96-8.41 1.3-12.65 1.31-1.97.16-4.08-.98-4.49-3-.39-3.64-1.16-8.73 3.12-10.37-2.55-3.65-1.19-8.44-1.35-12.61m2.71-1.96c-.3.26-.9.77-1.2 1.03-.96 3.5-.46 7.31-.35 10.93.55 2.55 3.6 2.07 5.55 2.19 2.12-.14 5.38.52 6.15-2.17.21-3.57.57-7.29-.27-10.79-2.38-2.62-6.73-1.32-9.88-1.19m13.27 4.19c-.24.25-.72.75-.97 1-.38 2.81-1.25 6.58.9 8.85 4.13 1.19 8.6.29 12.87.58 2.11 0 5.68.3 5.8-2.68-.12-2.65 1.16-6.61-1.8-8.07-5.57-.08-11.34-.66-16.8.32m-4.49 11.83c-3.53-.07-7.11-.54-10.6.16-2.42 1.34-1.67 4.49-1.75 6.76-.13 1.65.7 3.61 2.55 3.78 4.23.25 8.5.24 12.72-.13.53-3.69-1.28-8.01 1.57-11.07-.81-.78-1.61-1.56-2.39-2.34-.63.86-.54 2.96-2.1 2.84m6.44.08c-2.99 1.27-1.69 5.25-1.87 7.8.01 3.61 4.36 2.89 6.79 2.99 2.56-.32 6.37.94 7.77-1.97-.04-2.76 1.2-6.48-1.15-8.56-3.72-.94-7.74-.62-11.54-.26zm144.05 56.41c18.24-22.75 36.03-45.87 54.24-68.65 16.54 23.09 33.22 46.08 49.77 69.17l-3.46.12c-.01 1.63-.01 3.28 0 4.92-15.79-22.01-31.53-44.06-47.38-66.03-17.35 21.91-34.42 44.05-51.97 65.81-.01-1.43-.01-2.86.01-4.28-.31-.27-.91-.79-1.21-1.06zm-242.95-47.71c.14-2.9-.94-7.41 2.75-8.55 2.63-.18 6.29-.98 7.94 1.73 1 2.04.4 4.42.49 6.61 5.44-1.42 11.12-.49 16.67-.77 2.41-.2 5.78.25 6.17 3.21.07 3.26 1.31 8.86-3.08 9.82-6.36.32-12.75.02-19.12.12 1.13-.69 2.38-1.39 3.78-1.15 5.25-.18 10.57.45 15.79-.28 2.54-1.58 1.44-5.06 1.58-7.55.19-2.3-2.27-3.31-4.18-3.02-5.2.14-10.47-.35-15.63.28-3.38 1.93-.94 6.5-1.69 9.48-3.4 2.08-8.44 2.66-11.34-.56-2.89 3.12-7.52 2.03-11.29 1.82-3.17-1.32-2.46-5.18-2.49-7.92-.24-2.11.89-4.49 3.14-4.83 3.55-.25 7.51-.81 10.51 1.56m1.89-6.68c-1.63 4.26-.46 9.24-.73 13.79-.29 4.72 9.15 4.72 8.93.03.03-4.33.25-8.67-.17-12.98-1.48-2.6-5.85-2.24-8.03-.84m-13.18 6.67c-.26.29-.77.88-1.02 1.17-.09 2.99-1.62 9.03 2.99 9.11 2.85-.13 8.3 1.28 8.42-3.07-.14-2.57 1.09-6.69-2.22-7.64-2.7-.14-5.62-.62-8.17.43zm194.32-3.41c4.93-.34 9.9-.16 14.84-.11 1.94-.08 3.65 1.66 3.69 3.58.31 2.95.03 5.94-.71 8.82 3.64-.05 7.45-.57 10.87 1.03 2.49-1.71 5.71-1.94 8.55-1.11 3.45 1.84 2.04 6.43 2.12 9.58-1.02 4.43-7.12 3.59-10.26 2.12-1.37.64-2.7 1.59-4.27 1.53-4.42.04-8.84.16-13.25-.09-1.88-.09-3.45-1.76-3.52-3.62-.28-2.99-.37-6.16 1.16-8.87-3.88-.36-10.08 1.89-11.91-2.82-.19-3.3-1.47-8.71 2.69-10.04m-.88 1.86c-1.31 1.19-.78 3.18-.95 4.75-.06 1.93.01 4.92 2.57 5.1 4.64.26 9.32.21 13.97.03 2.19.04 2.93-2.3 2.79-4.11-.11-2.23.61-5.26-1.84-6.5-5.26-.27-10.57-.36-15.82.05l-.72.68m11.72 11.83c-2.48 1.33-1.66 4.6-1.75 6.9-.16 1.62.84 3.46 2.59 3.63 4.61.24 9.25.2 13.86.03 1.89.02 3.03-1.92 2.71-3.65-.23-2.47 1.03-6.7-2.5-7.13-4.96-.15-10-.47-14.91.22m18.64.46c.58 3.09-1.7 8.31 2.24 9.6 2.25.16 5.68.78 6.51-2.05-.1-2.8 1.26-6.79-1.65-8.54-2.42-.53-4.97-.3-7.1.99z"/><path d="M647.96 297.78c3.83-.18 7.67-.19 11.51-.07.02 2.13.09 4.27-.22 6.38-3.62 1.2-7.59.38-11.33.26-.01-2.2 0-4.38.04-6.57zM636.23 304c3.73-.27 7.47-.3 11.22-.22.16 2.18.55 4.42.01 6.59-3.73.85-7.61.33-11.38.07.03-2.15.08-4.3.15-6.44zm23.95-.06c3.84-.27 7.69-.29 11.52.18-.1 2.22-.21 4.44-.38 6.65-3.8.04-7.61.03-11.39-.35.06-2.16.14-4.32.25-6.48zm-149.07 11.11c-.06-2.74-.51-6.68 2.68-7.86 2.7-.37 5.43-.16 8.16-.2 3.41.11 7.06-.58 10.17 1.24 2.75-1.62 6.07-1.47 9.12-1 3.47 1.48 2.44 5.96 2.46 8.94.12 3.31-3.52 4.17-6.14 4.07.81 3.16 1.16 6.63.25 9.8-1.88 3.18-6.25 1.95-9.28 1.98-5.22-1.38-2.72-8.21-2.72-12.01-3.98.03-8.01.47-11.95-.17-2.08-.58-2.86-2.85-2.75-4.79m3.03-6.75c-2.29.9-1.87 3.73-1.94 5.7-.09 1.91.24 4.73 2.67 4.88 4.73.22 9.49.23 14.22-.02 2.81-.41 2.47-3.8 2.46-5.91.1-1.81-.13-4.57-2.45-4.72-4.98-.16-9.99-.29-14.96.07m20.15.07c-2.54 1.6-1.56 5.05-1.62 7.56-.2 2.32 2.29 3.33 4.21 3.11 2.22.2 5.79-.01 5.71-3.07-.12-2.53.99-6.28-1.83-7.67-2.14-.31-4.36-.37-6.47.07m-7.04 12.69c-1.37 2.31-.7 5.27-.62 7.84.89 3.15 4.96 1.92 7.4 2.08 2.16.22 3.42-2 3.12-3.92-.13-2.32.77-5.76-2.07-6.78-2.57-.09-5.63-.85-7.83.78zm120.78-9.91c3.78-.18 7.57-.19 11.35-.06.04 2.28.02 4.56-.03 6.84-3.71.06-7.44.3-11.13-.18-.43-2.18-.28-4.4-.19-6.6zm-11.57 6.35c3.41-.43 6.92-.5 10.34-.04 1.98 1.44.47 4.62.68 6.78-3.78.03-7.56.01-11.33-.15 0-2.2-.13-4.42.31-6.59zm23.49.08c3.77-.38 7.57-.39 11.36-.34.18 2.21.3 4.43.41 6.65-3.84.44-7.71.44-11.55.2-.1-2.17-.17-4.35-.22-6.51zm-11.84 6.66c3.74-.13 7.48-.14 11.23-.07.07 2.3.08 4.6.05 6.9-3.82.08-7.64.09-11.45-.13.02-2.24.08-4.47.17-6.7zM64.15 355.13c8.64-6.93 20.03-9.26 30.88-9.15 7.79-.11 15.56 1.41 22.77 4.36 3.77 1.35 7.26 3.44 11.13 4.52 1.86-.21 3.66-.76 5.51-1.04-2.61 4.49-5.92 8.51-8.87 12.76-2.05 2.74-3.76 5.82-6.45 8.02-.54-1.94-.15-4.41-1.92-5.8-7.24-6.74-17.6-8.96-27.24-8.49-5.72.33-11.89 1.36-16.25 5.4-2.18 2.02-4 5.19-2.92 8.22 1.08 2.39 3.84 3.13 6.18 3.63 10.31 1.88 20.93 1.73 31.12 4.32 5.36 1.48 10.98 4.18 13.64 9.35 3.63 6.93 2.24 15.48-1.49 22.07-3.93 7.06-10.65 12.28-18.21 14.98-17.84 6.5-38.54 5.23-55.12-4.21-2.31-1.7-5.09-.41-7.66-.3 2.86-5.17 6.38-9.93 9.51-14.94 1.6-2.28 2.77-5.05 5.28-6.51.41 2.08-.11 4.54 1.29 6.33 2.25 2.89 5.66 4.55 8.98 5.91 9.67 3.75 20.73 4.88 30.63 1.34 4.59-1.7 9.21-4.99 10.43-9.98.76-2.52-1.03-5.11-3.45-5.79-6.42-2.07-13.25-2.2-19.9-3.04-7.48-.93-15.47-1.11-22.05-5.24-4.77-2.84-7.38-8.45-7.34-13.9.09-8.84 4.52-17.45 11.52-22.82zm802.3-7.39c11.24-.42 22.52-.35 33.77-.03-1.39 1.52-3.09 2.73-4.37 4.34-.74 1.55.05 3.22.42 4.75 4.38 13.87 8.78 27.74 13.11 41.63 10.48-13.55 20.68-27.32 31.1-40.93 1.3-1.77 2.74-3.53 3.43-5.66.11-1.56-1.6-1.97-2.54-2.75.09-.39.26-1.19.34-1.59 10.75.12 21.51-.26 32.24.21-1.53 2.47-5.44 2.9-5.8 6.13-5.04 23.42-10 46.86-14.96 70.29-1.22 2.97 2.29 4.16 3.22 6.52-9.13.39-18.29.33-27.42.04 1.68-2.55 5.58-3.27 5.86-6.7 3.57-16.71 7.12-33.41 10.66-50.12-14.99 18.84-29.57 38.02-44.41 56.99-6.42-18.97-12.21-38.15-18.56-57.15-3.6 16.8-7.19 33.6-10.72 50.4-1.14 2.65 1.6 4.11 3.06 5.8-1.07 1.65-3.33.7-4.93.99-6.93-.13-13.87.18-20.79-.2 1.57-2.59 5.56-3.23 5.82-6.64 4.97-23.33 9.96-46.66 14.88-70.01 1.16-2.84-2.28-4.17-3.41-6.31zM313.27 364.8c.58-2.37.66-5.03 2.44-6.89.92 1.91 1.47 4.98 4.34 4.44 18.99.03 37.98.07 56.97-.02 3.06.16 4.45-3.12 6.69-4.6-.83 7.14-2.79 14.08-4.17 21.13l-1.47-.24c-.77-1.42-.95-3.77-3.07-3.61-6.98-.34-13.98-.03-20.96-.13-3.5 16.7-7.21 33.36-10.58 50.08-1.53 2.7 4.33 3.88 2.37 5.76-8.21.27-16.46.28-24.67-.06 1.59-2.17 5.02-2.76 5.64-5.63 3.7-16.69 7.12-33.44 10.72-50.15-6.85.07-13.72-.15-20.57.08-2.88.09-4.3 3.08-6.49 4.51.51-4.97 1.9-9.77 2.81-14.67zm351.7-2.45c3.14.28 4.57-3.11 7.06-4.38-.63 4.56-1.81 9.01-2.69 13.53-.61 2.7-.9 5.59-2.41 7.99-1.16-1.51-1.35-4.62-3.85-4.51-14.07-.25-28.15-.04-42.22-.1-1.03 4.96-2.11 9.91-3.14 14.87 8.45-.02 16.91.03 25.37-.01 3.31.44 4.86-3.07 7.33-4.56-.92 6.88-2.8 13.59-4.06 20.41-.37.06-1.11.16-1.48.21-.8-1.37-.88-3.83-2.92-3.84-8.92-.5-17.88-.07-26.81-.21-1.17 5.54-2.35 11.08-3.52 16.63 14.43-.04 28.87.07 43.31-.05 3.2.24 4.64-3.13 6.91-4.77-.25 4.94-1.78 9.68-2.65 14.53-.6 2.48-.76 5.23-2.34 7.34-.75-1.33-1.27-2.75-2.17-3.96-1.41-.89-3.2-.48-4.76-.62-17.32.06-34.65 0-51.98.03-3.38-.01-6.8.18-10.13-.46 2.22-1.85 5.79-2.96 6.07-6.32 3.95-18.7 8.04-37.37 11.87-56.09.8-2.55-3.22-3.07-2.85-5.54 20.68-.25 41.38.01 62.06-.12zm88.65 7.89c1-4.24 1.49-8.64 3.2-12.69 1.23 1.62 1.5 4.96 4.19 4.77 18.99.13 37.99.04 56.98.04 3.27.37 4.89-2.97 7.3-4.51-.6 4.79-1.87 9.46-2.78 14.2-.58 2.52-.73 5.31-2.48 7.38-.98-1.73-1.34-4.76-4.01-4.47-6.82-.08-13.68-.33-20.49.15-3.62 16.6-7.18 33.23-10.59 49.89-.78 2.48 2.11 3.51 3.33 5.14-2.2 1.25-4.85.58-7.24.75-6.21-.23-12.47.46-18.64-.46 2.1-1.81 5.65-2.7 6.04-5.9 3.59-16.54 7.03-33.11 10.59-49.65-6.66.04-13.32-.09-19.97.03-3.2-.38-4.67 2.93-6.74 4.65-.33-3.18.7-6.24 1.31-9.32zm-580.98-8.47c10.02-1.6 20.92-1.24 29.98 3.77 6.86 3.73 11.92 10.7 12.87 18.5 1.31 11.52-2.5 23.59-10.27 32.21-8.93 9.85-22 15.61-35.26 16-9.82.46-20.53-1.24-28.01-8.13-5.22-4.53-8.2-11.31-8.31-18.18-.11-11.13 4.08-22.39 11.95-30.34 7.26-7.31 16.91-12.1 27.05-13.83m3.45 12.4c-11.32 1.19-21.5 9.82-24.32 20.88-1.81 6.04-1.38 13.23 2.98 18.11 4.13 4.96 11.01 6.5 17.19 6.04 12.23-.66 23.57-10.06 26.07-22.12 1.4-5.72.93-12.38-3.18-16.92-4.55-5.31-12.08-6.77-18.74-5.99zm512.22-5.92c9.72-6.66 22.1-8.31 33.59-6.84 6.98.83 13.37 3.91 19.61 6.96 2.08 1.33 4.4-.25 6.53-.55-3.5 6.09-8.04 11.5-12.16 17.16-.74-3.43-2.86-6.35-6.19-7.63-8.81-4.09-19.21-5.11-28.54-2.26-3.69 1.2-8.07 3.57-8.33 7.94-.01 2.14 2.16 3.22 3.97 3.64 11.55 2.75 23.99.79 35.11 5.49 4.45 1.81 7.89 5.91 8.66 10.68 1.32 7.91-2.59 16.08-8.86 20.86-8.37 6.55-19.33 8.64-29.74 8.61-9.64.09-19.28-2.01-27.97-6.19-2.06-1.51-4.19.29-6.24.78 2.99-6.21 7.19-11.74 10.73-17.63.26.16.77.47 1.03.62.05 4.5 4.83 6.02 8.33 7.27 10.3 3.19 22.1 4.13 32.08-.57 3.85-1.53 6.39-8.21 1.46-10.02-11-3.29-22.9-1.51-33.88-4.92-4.49-1.39-8.34-4.99-9.32-9.68-1.94-9.01 2.59-18.67 10.13-23.72zm349.07-5.71c10.53-2.57 21.98-2.29 32.06 1.94 3.1 1.19 5.98 2.85 9.04 4.15 1.99.81 4.03-.55 6.03-.74-3.79 5.95-8.07 11.59-12.43 17.14-.82-2.36-1.28-5.16-3.76-6.36-8.52-5.14-19.22-6.3-28.84-4.15-4.05 1.1-9.02 2.93-10.14 7.47-.77 2.25 1.23 4.14 3.29 4.53 11.58 2.96 24.1.9 35.33 5.51 4.63 1.77 8.22 6.01 8.99 10.94 1.23 7.94-2.71 16.13-9.07 20.86-8.45 6.54-19.47 8.55-29.93 8.48-9.66.07-19.26-2.15-27.95-6.33-1.98-1.26-4.04.52-5.99.81 3.36-6.17 7.38-11.96 11.11-17.9.91 2.17 1.41 4.87 3.82 5.95 8.51 4.48 18.55 5.62 28.02 4.54 4.12-.73 8.65-1.58 11.74-4.66 1.72-1.83 2.76-5.17.69-7.13-1.5-1.3-3.51-1.65-5.37-2.04-8.67-1.44-17.52-1.28-26.16-2.85-4.49-.84-9.26-2.71-11.69-6.82-3.45-5.77-2.28-13.14.65-18.87 4.04-7.82 12.35-12.29 20.56-14.47zm72.62 1.39c14.13-5.18 30.38-3.66 43.43 3.8 2.46 1.78 5.37.9 8.05.15-3.03 5.07-6.84 9.6-10.18 14.45-.66.86-2.68 3.84-2.86.96-.52-3.77-4.28-5.5-7.39-6.83-8.75-3.39-18.79-4.16-27.7-.96-3.32 1.2-7.01 3.62-7.15 7.52-.06 2.5 2.72 3.42 4.73 3.85 10.98 2.34 22.62.84 33.26 4.85 4.39 1.56 8.15 5.06 9.37 9.64 2.05 7.87-1.46 16.44-7.57 21.55-7.99 6.81-18.77 9.19-29.03 9.38-10.33.33-20.73-1.79-30.02-6.35-1.95-1.24-4.02.64-5.95.89 3.33-6.2 7.36-12 11.13-17.93 1.05 6.66 8.36 8.17 13.83 9.58 9.04 1.87 19.08 2.24 27.51-2.02 3.83-1.63 6.07-8.25 1.16-9.94-10.6-3.08-21.97-1.65-32.63-4.49-3.99-1.1-7.85-3.56-9.56-7.46-2.56-5.63-1.34-12.27 1.39-17.6 3.29-6.39 9.59-10.6 16.18-13.04zm93.49-2.26c9.74-1.45 20.28-1.07 29.11 3.71 6.95 3.66 12.15 10.65 13.14 18.51 1.4 11.85-2.61 24.3-10.83 32.99-12.66 13.62-33.1 18.45-50.85 13.72-8.92-2.44-16.94-9.31-19.25-18.47-2.02-8.06-.39-16.61 2.75-24.16 6.1-14.45 20.76-23.91 35.93-26.3m-.03 12.98c-10.11 2.19-18.76 10.25-21.39 20.29-1.73 5.83-1.48 12.65 2.43 17.58 4.19 5.62 11.75 7.29 18.41 6.62 12.37-.96 23.58-10.87 25.62-23.19 1.19-5.7.27-12.21-4.01-16.45-5.37-5.52-13.87-6.36-21.06-4.85zM230.4 363.41c1.52-1.52 3.75-.94 5.66-1.06 6.71.19 13.44-.31 20.14.33-2.04 1.95-5.59 2.91-5.97 6.12-2.35 10.68-4.53 21.39-6.85 32.07-.69 3.68-1.73 7.59-.6 11.3 1.49 4.16 6.08 6.07 10.15 6.68 7.14.98 15.02.39 21.09-3.83 4.1-2.86 5.66-7.9 6.72-12.54 2.36-11.1 4.74-22.2 7.08-33.3 1.38-2.95-1.9-4.47-3.2-6.61 8.09-.26 16.21-.42 24.29.08-1.99 2.09-5.62 3.03-5.92 6.35-2.69 12.33-5.23 24.7-7.91 37.03-1.68 7.44-4.91 15.17-11.53 19.5-9.21 6.12-20.75 6.94-31.49 6.74-7.89-.36-16.52-1.31-22.84-6.53-5-4.42-4.66-11.79-3.76-17.82 2.57-13.34 5.74-26.56 8.33-39.89.77-2.4-2.15-3.26-3.39-4.62zm158.86-.59c8.17-1 16.52-.24 24.76-.39.16 2.67-3.88 2.45-4.54 4.89-1.91 7.01-3.11 14.21-4.68 21.31 12.67 0 25.34-.02 38.02.01 1.44-7.26 3.33-14.43 4.46-21.74-1.01-1.57-2.36-2.87-3.51-4.32 8.36-.44 16.75-.11 25.13-.19l-.52 1.61c-1.97.97-4.39 1.94-4.7 4.44-3.9 17.78-7.56 35.6-11.42 53.39-.3 1.65-.85 3.34-.59 5.05 1.12 1.23 2.42 2.27 3.64 3.43-8.58 1.12-17.35.52-25.98.34 1.68-2.12 5.08-2.73 5.7-5.63 1.87-7.93 3.39-15.94 5.14-23.89-12.69-.01-25.37 0-38.05-.01-1.64 7.96-3.5 15.87-5.01 23.85-.67 2.55 2.29 3.78 3.44 5.64-8.64.33-17.37.63-25.98-.17 2.12-1.83 5.65-2.75 6.05-5.97 3.91-18.11 7.68-36.25 11.6-54.36.2-1.2.51-2.43.31-3.63-1.06-1.25-2.27-2.37-3.27-3.66zm83.39-.06c9.23-.73 18.56-.43 27.81-.16-2.04 2.32-6.47 3.48-5.66 7.31 1.85 11.54 4.2 22.99 6.31 34.49 6.41-10.4 12.73-20.85 19.15-31.25 1.12-1.91 2.36-3.86 2.6-6.11-1-1.63-2.61-2.77-3.74-4.29 4.24-.74 8.58-.25 12.87-.37 6.35.12 12.73-.31 19.07.27-1.69 1.59-3.82 2.68-5.36 4.43-1.15 1.79-.52 4.01-.27 5.98 1.88 10.39 3.57 20.8 5.48 31.18 6.09-9.76 11.79-19.76 17.76-29.59 1.41-2.45 3.14-4.89 3.33-7.81-.94-1.42-2.39-2.39-3.47-3.69 1.06-1.31 2.96-.58 4.41-.8 7.85.16 15.71-.23 23.55.24-2.63 2.72-6.6 3.95-8.44 7.49-9.77 15.62-19.11 31.51-28.75 47.22-1.47 2.5-3.23 4.94-3.89 7.81-.84 2.73 2.55 3.6 3.99 5.2-3.74.9-7.6.5-11.39.57-5.63-.09-11.26.2-16.87-.21 2.05-2.45 6.74-3.75 5.66-7.78-2.12-13.07-4.4-26.11-6.67-39.14-7.63 11.92-14.87 24.1-22.37 36.1-1.23 2.21-2.99 4.57-2.44 7.25 1.1 1.23 2.5 2.1 3.76 3.17-3.92 1.07-8.03.47-12.03.6-5.11-.12-10.25.37-15.32-.41 1.62-1.32 3.55-2.27 4.98-3.82 1.42-2.3.61-5.14.29-7.63-3-16.38-5.57-32.85-8.79-49.19-.33-3.32-3.4-4.98-5.56-7.06zm509.94-.11c8.6-.47 17.27-.4 25.88-.04-2.06 2.09-5.62 3.05-5.96 6.4-3.96 18.69-8.04 37.36-11.88 56.08-.71 2.54 2.42 3.56 3.67 5.23-8.57 1.11-17.33.49-25.96.34 1.79-2.24 5.43-2.93 5.83-6.17 3.96-18.48 7.89-36.97 11.8-55.46 1.29-2.88-2-4.42-3.38-6.38zm278.03-.05c8.4-.48 16.82-.12 25.23-.21l-.56 1.61c-1.97.97-4.37 1.91-4.67 4.41-2.58 11.53-4.95 23.1-7.41 34.65-.68 3.95-1.54 8.87 1.65 12.01 3.97 3.85 9.94 4.26 15.18 4.17 6.44-.23 13.69-2.04 17.56-7.65 3.09-4.94 3.66-10.89 4.98-16.45 1.89-9.42 4.21-18.77 5.84-28.23-.83-1.72-2.54-2.79-3.7-4.22 8.16-.52 16.41-.5 24.58-.01-2.06 1.94-5.63 2.91-6 6.14-2.69 12.33-5.23 24.7-7.91 37.04-1.67 7.57-4.98 15.45-11.75 19.81-9.59 6.21-21.52 6.89-32.62 6.55-7.5-.48-15.69-1.52-21.61-6.58-5.04-4.5-4.54-11.97-3.62-18.04 2.55-12.89 5.49-25.71 8.11-38.59 1.13-2.82-1.9-4.43-3.28-6.41zm87.99.55c.92-1.42 2.96-.52 4.38-.8 14.64.08 29.29-.03 43.93.05 6.04.21 12.67.27 17.72 4.08 3.3 2.37 4.81 6.54 4.64 10.5-.15 6.76-2.56 13.86-7.87 18.31-4.55 3.81-10.37 5.51-16.05 6.8 4.24 7.95 7.67 16.38 12.6 23.93 1.04 2.13 5.06 2.09 4.82 4.64-9.89.38-19.83.33-29.72.01 1.45-1.46 3.19-2.58 4.65-4.03.26-1.79-.69-3.44-1.36-5.02-3.08-6.29-6.13-12.59-9.21-18.87-5.41 0-10.82-.01-16.21 0-1.56 7.81-3.54 15.53-4.81 23.38.69 1.81 2.39 2.97 3.47 4.56-8.59.17-17.25.6-25.81-.24 2.2-1.88 5.8-2.96 6.08-6.33 3.91-18.34 7.82-36.68 11.7-55.03 1.25-2.68-1.61-4.12-2.95-5.94m14.97 27.1c8.79-.03 17.59.05 26.38-.02 3.87-.13 8.58-.82 10.68-4.55 1.34-2.57 2.35-6.2.3-8.66-2.17-1.92-5.3-1.9-8.02-2.1-8.69-.11-17.39-.01-26.08-.04-1.07 5.12-2.17 10.24-3.26 15.37zm71.93-27.69c8.58-.23 17.21-.45 25.78.12-2.16 1.98-5.73 3.06-6.03 6.42-3.93 18.62-8.01 37.22-11.82 55.86-.79 2.34 1.99 3.4 3.12 5.01-.96 1.55-3.09.65-4.55.93-6.95-.15-13.91.22-20.85-.24 1.61-2.2 5.07-2.79 5.66-5.72 3.89-17.65 7.5-35.36 11.35-53.02.35-1.69.73-3.38.85-5.11-1.11-1.47-2.43-2.77-3.51-4.25zm-211.25 112.56c5.49 0 10.99 0 16.49.01-.02 1.6-.01 3.22.02 4.83-1.78.03-3.55.05-5.3.09.04 4.4.02 8.8.03 13.2h-6c-.01-4.4-.02-8.8.03-13.19-1.78-.05-3.56-.08-5.31-.11 0-1.61.01-3.22.04-4.83zm18.75 0c2.39 0 4.79 0 7.21.01 1.01 3.64 2.02 7.28 3.15 10.89 1.02-3.63 2.03-7.25 3.05-10.88 2.39-.02 4.8-.02 7.21-.01-.02 6.04.01 12.09-.03 18.14-1.8-.02-3.59-.03-5.36-.03-.04-3.49.02-6.98.25-10.46-1.1 3.48-2.07 6.99-3.08 10.5-1.43-.03-2.83-.05-4.22-.06-.97-3.43-1.91-6.86-2.84-10.3-.01 3.44.03 6.88.03 10.33-1.81-.01-3.6-.01-5.38 0 0-6.05-.01-12.09.01-18.13z"/></g><g fill="#bcbdc1"><path d="M410.71 131.72c30.21-36.19 60.32-72.45 90.33-108.8 30.8 42.91 61.59 85.83 92.32 128.79-3.22 3.88-6.42 7.76-9.62 11.65-27.89-38.76-55.67-77.61-83.5-116.42-56.5 68.2-113.1 136.33-170.57 203.71-19.59 22.73-38.91 45.73-59.57 67.5-9.24 10.14-22.12 15.98-35.17 19.47-18.93 5.02-38.64 6.5-58.16 6.18.13-4.86.26-9.72.62-14.57 17.97.15 36.14-1.07 53.57-5.71 9.67-2.76 19.56-6.45 26.76-13.75 9.17-9.22 17.7-19.03 26.31-28.76 42.96-49.14 84.79-99.25 126.68-149.29zm105.6-31.49c.55.66.55.66 0 0zm32.96 22.97c.5.6.5.6 0 0z"/><path d="M440.23 137.25c.54.59.54.59 0 0zm-80.96 13.02c.58.57.58.57 0 0zm114.56 153.5c41.93-48.42 82.56-97.96 123.53-147.19 17.71 24.86 35.53 49.64 53.28 74.47-3.14 4-6.29 8-9.44 11.99-14.92-20.78-29.8-41.58-44.67-62.4-34.53 41.39-68.8 83.01-103.95 123.89-8.22 9.44-16.32 19.02-25.04 28.02-4.95 5.21-11.51 8.57-18.31 10.67-11.87 3.62-24.37 4.49-36.72 4.44-.02-4.86.33-9.72.65-14.57 9.94-.11 20-.61 29.64-3.25 5.25-1.46 10.56-3.59 14.37-7.65 5.78-5.93 11.18-12.21 16.66-18.42zM350 162.3c.6.61.6.61 0 0zm-9.9 1.69c.55.61.55.61 0 0zm.03 11.24c.6.61.6.61 0 0zm-.01 13c.58.62.58.62 0 0zm38.09 23c.6.59.6.59 0 0zm191.53 132.52c28.33-36.13 56.72-72.21 85.18-108.23 26.01 36.06 51.99 72.15 77.98 108.23-10.72-.06-21.44.15-32.15-.12-.01-3.18-.01-6.35 0-9.53-.01-1.64-.01-3.29 0-4.92l3.46-.12c-16.55-23.09-33.23-46.08-49.77-69.17-18.21 22.78-36 45.9-54.24 68.65.3.27.9.79 1.21 1.06-.02 1.42-.02 2.85-.01 4.28-.02 3.46-.01 6.92.02 10.38-.01 1.24.01 2.49.02 3.74l-.02-.52c-.03-.93-.1-2.8-.13-3.74-10.52.02-21.04.01-31.55.01z"/><path d="M554.28 246.31c.59.54.59.54 0 0z"/></g><path d="M653.37 268.07c15.85 21.97 31.59 44.02 47.38 66.03-.01 3.18-.01 6.35 0 9.53-33.11-.19-66.22.58-99.33.63-.03-3.46-.04-6.92-.02-10.38 17.55-21.76 34.62-43.9 51.97-65.81m-5.41 29.71c-.04 2.19-.05 4.37-.04 6.57 3.74.12 7.71.94 11.33-.26.31-2.11.24-4.25.22-6.38-3.84-.12-7.68-.11-11.51.07M636.23 304a343.9 343.9 0 0 0-.15 6.44c3.77.26 7.65.78 11.38-.07.54-2.17.15-4.41-.01-6.59-3.75-.08-7.49-.05-11.22.22m23.95-.06c-.11 2.16-.19 4.32-.25 6.48 3.78.38 7.59.39 11.39.35.17-2.21.28-4.43.38-6.65-3.83-.47-7.68-.45-11.52-.18m-12.15 7.21c-.09 2.2-.24 4.42.19 6.6 3.69.48 7.42.24 11.13.18.05-2.28.07-4.56.03-6.84-3.78-.13-7.57-.12-11.35.06m-11.57 6.35c-.44 2.17-.31 4.39-.31 6.59 3.77.16 7.55.18 11.33.15-.21-2.16 1.3-5.34-.68-6.78-3.42-.46-6.93-.39-10.34.04m23.49.08c.05 2.16.12 4.34.22 6.51 3.84.24 7.71.24 11.55-.2-.11-2.22-.23-4.44-.41-6.65-3.79-.05-7.59-.04-11.36.34m-11.84 6.66c-.09 2.23-.15 4.46-.17 6.7 3.81.22 7.63.21 11.45.13.03-2.3.02-4.6-.05-6.9-3.75-.07-7.49-.06-11.23.07zM293.88 458.75h91.18c10.01-.05 20.39-.48 29.85 3.37 11.11 4.18 19.81 14.13 22.27 25.77 2.39 11.42 1.63 24.32-5.32 34.1-6.12 8.76-16.4 13.48-26.68 15.22 11.49 16.55 22.87 33.18 34.29 49.78-8.36-.03-16.72.11-25.07-.08-11.37-16.32-22.99-32.46-34.5-48.68-21.55.04-43.1.01-64.65.02v48.74c-7.13.01-14.25.01-21.37.01V458.75m21.34 19.28c.05 13.65.04 27.29.01 40.94 24.92.08 49.85 0 74.78.04 6.47-.04 13.4-.41 19-4.05 4.14-2.61 6.67-7.26 7.23-12.05.89-6.59-.35-14.07-5.43-18.76-5.58-5.09-13.53-6.06-20.77-6.15-24.94.02-49.88-.05-74.82.03zm163.3.08c37.74.04 75.49 0 113.24.03-.02 6.36-.02 12.72 0 19.08-30.62.06-61.25.02-91.87.02-.03 7.84-.04 15.68.01 23.52 21.28-.01 42.57-.04 63.86.01-.02 6.4-.03 12.8.01 19.2-21.3.07-42.6.01-63.9.03 0 9.29-.01 18.59.01 27.88 32-.01 63.99 0 95.99-.01 0 6.37-.01 12.74.01 19.12-39.12.03-78.25 0-117.38.01.01-36.29-.02-72.59.02-108.89zm200.84.07c8.89-.13 17.78-.01 26.67-.06 19.79 36.28 39.56 72.58 59.34 108.87-7.86.03-15.71-.01-23.57.03-4.19-7.75-8.31-15.55-12.52-23.29-24.37.05-48.75-.02-73.12.04-4.1 7.75-8.32 15.43-12.4 23.2-7.88.05-15.77.04-23.65.01 19.78-36.25 39.6-72.48 59.25-108.8m13.41 18.45c-8.61 15.96-17.32 31.87-25.84 47.89 17.21-.08 34.42.07 51.63-.08-8.6-15.94-16.94-32.02-25.79-47.81zm102.24-18.51c7.12.02 14.24.01 21.36 0 0 29.91.02 59.82-.01 89.74 28.04.04 56.08.01 84.12.01.05 6.36-.02 12.72.05 19.08-35.17.11-70.35.02-105.53.05.01-36.3-.02-72.59.01-108.88zm123 0c41.88.03 83.75-.02 125.63.02-.13 6.25.16 12.51-.11 18.75-5.39.86-11 .12-16.47.36-11.84-.02-23.68.03-35.52-.03-.08 29.91-.05 59.82-.01 89.74-7.14.08-14.28.03-21.41.03 0-29.92.04-59.83-.02-89.75-17.37.02-34.73.01-52.1.01 0-6.38-.01-12.76.01-19.13zm148.53.03c8.71-.03 17.43-.05 26.15.01 15.4 16.55 30.92 32.99 46.38 49.49 15.43-16.5 31-32.87 46.34-49.46 8.69-.13 17.38-.05 26.07-.05-20.6 22.07-41.29 44.05-61.97 66.04-.01 14.26-.05 28.51.02 42.77-7.14.09-14.28.05-21.42.03.04-13.31 0-26.61.03-39.92.56-3.46-2.64-5.46-4.56-7.75-19.04-20.36-38.11-40.69-57.04-61.16z" fill="#ed3529"/></svg>