<svg height="682.667" viewBox="0 0 512 512" width="682.667" xmlns="http://www.w3.org/2000/svg"><path d="m327.1 10.9c-3 4.7-6.4 10.2-7.7 12.1-1.2 1.9-13.3 21-26.8 42.5-13.5 21.4-25 39.7-25.6 40.5-.5.8-5 7.8-9.8 15.5-37.5 59.3-76.9 121.7-79 125-1.4 2.2-3.5 5.6-4.8 7.5-1.2 1.9-6.9 11.1-12.8 20.3-5.8 9.2-10.6 16.9-10.6 17.2s8.7.2 72.8-.9c19-.4 24.2-.2 24.2.8 0 .7-.6 3.5-1.4 6.2s-3.3 12.1-5.6 20.9-6.2 23.9-8.7 33.5-7.6 29.2-11.3 43.5c-9.9 38.1-17.2 66.1-23.9 91.5-3.2 12.4-5.8 22.6-5.6 22.8s38.8-63.9 42.9-71.2c.6-1.1 1.5-2.5 1.9-3 1-1.3 61.3-102.2 62.1-103.9.3-.7 2.4-4.1 4.6-7.6 2.2-3.4 4-6.7 4-7.2s.5-.9 1-.9c.6 0 1-.4 1-.9s6.6-11.8 14.6-25.2c8.1-13.4 15.5-25.8 16.4-27.4 1-1.7 6.6-11 12.5-20.8s10.5-18 10.3-18.2c-.3-.3-11.8-1-33.8-2-22.8-1-36.8-1.7-41.5-2-2.7-.2-6.7-.4-8.8-.4-2.1-.1-3.6-.5-3.3-.9.4-.7 4.6-15.4 6-21.2.4-1.3 1.3-4.6 6.2-22.8.8-3 4.1-15.3 7.4-27.5 3.4-12.2 7.7-28.1 9.6-35.2 1.9-7.2 4.8-17.7 6.4-23.5 17.4-63.5 23.2-85.2 22.8-85.5-.2-.1-2.7 3.6-5.7 8.4z"/></svg>